<?xml version="1.0" encoding="UTF-8" standalone="no"?>
<svg
   xmlns:dc="http://purl.org/dc/elements/1.1/"
   xmlns:cc="http://creativecommons.org/ns#"
   xmlns:rdf="http://www.w3.org/1999/02/22-rdf-syntax-ns#"
   xmlns:svg="http://www.w3.org/2000/svg"
   xmlns="http://www.w3.org/2000/svg"
   viewBox="0 0 5333.3335 5333.3335"
   height="5333.3335"
   width="5333.3335"
   xml:space="preserve"
   id="svg2"
   version="1.1"><metadata
     id="metadata8"><rdf:RDF><cc:Work
         rdf:about=""><dc:format>image/svg+xml</dc:format><dc:type
           rdf:resource="http://purl.org/dc/dcmitype/StillImage" /></cc:Work></rdf:RDF></metadata><defs
     id="defs6"><clipPath
       id="clipPath198"
       clipPathUnits="userSpaceOnUse"><path
         id="path196"
         d="m 27898.9,33558.8 c 452.9,-2779.6 -1433.3,-5400.1 -4213,-5852.9 -2779.6,-452.9 -5400,1433.4 -5852.9,4213 -452.9,2779.6 1433.4,5400.1 4213,5852.9 2779.6,452.9 5400.1,-1433.3 5852.9,-4213" /></clipPath></defs><g
     transform="matrix(1.3333333,0,0,-1.3333333,0,5333.3333)"
     id="g10"><g
       transform="scale(0.1)"
       id="g12"><g
         transform="scale(2.45399)"
         id="g14"><path
           id="path16"
           style="fill:transparent;fill-opacity:1;fill-rule:nonzero;stroke:none"
           d="M 16300,0 H 0 V 16300 H 16300 V 0" /></g><g
         transform="scale(1.43353)"
         id="g18"><path
           id="path20"
           style="fill:#ffffff;fill-opacity:1;fill-rule:nonzero;stroke:none"
           d="m 15882.5,5910.25 c -44.6,-13.96 -91.7,-22.68 -140.6,-25.47 l -2025.7,-114.4 -2958.1,-167.07 c -318.1,-17.79 -590.2,225.32 -608.3,543.07 L 9941.91,9828.9 c -17.79,317.7 225.29,590.2 543.09,607.9 l 2297.1,129.8 2686.7,151.7 c 318.1,17.8 590.2,-225.3 608.3,-543.1 l 89,-1573.69 118.9,-2108.79 c 15,-268.91 -156.6,-505.39 -402.5,-582.47" /></g><g
         transform="scale(1.41727)"
         id="g22"><path
           id="path24"
           style="fill:#b2b2d4;fill-opacity:1;fill-rule:nonzero;stroke:none"
           d="m 15949.8,6051.78 c 1.2,135.68 2.7,392.51 0.9,695.98 19.7,39.66 29.7,84.53 27.3,131.1 7.2,8.04 13.9,16.44 20.3,25.19 56.7,77.4 79.2,172.16 63.4,267.13 -14.5,86.58 -58.5,160.17 -120.1,212.1 -8.1,337.62 -22.2,673.13 -46.3,928.9 56,63.93 189.1,224.09 353.9,479.02 l 11.7,-207.44 c -160.2,-203.78 -282.6,-349.27 -282.6,-349.27 50.1,-342.91 40.9,-771.2 40.9,-771.2 280.8,-297.4 45.5,-708.75 45.5,-708.75 v -673.9 c -36.3,-14.12 -74.8,-23.93 -114.9,-28.86" /></g><g
         transform="scale(1.44244)"
         id="g26"><path
           id="path28"
           style="fill:#000072;fill-opacity:1;fill-rule:nonzero;stroke:none"
           d="m 15405.9,10558 c -9,0 -18,-0.2 -27.2,-0.7 l -4953,-279.7 c -263.1,-14.8 -465.05,-241 -450.21,-504.13 l 206.61,-3659.64 c 14.8,-263.1 241.2,-464.63 504.1,-450.22 l 4953,279.6 v 0 c 263.1,14.91 465.1,241.05 450.2,504.15 l -206.6,3659.74 c -14.4,253.9 -225.6,450.9 -476.9,450.9 M 10658.8,5472.76 c -351.2,0 -646.4,275.37 -666.53,630.39 l -206.6,3659.64 c -20.73,367.81 261.53,683.81 629.33,704.61 l 4953,279.6 c 368,21.7 683.9,-261.5 704.6,-629.3 l 206.6,-3659.66 c 20.8,-367.71 -261.5,-683.78 -629.3,-704.58 l -4953,-279.59 c -12.7,-0.76 -25.5,-1.11 -38.1,-1.11" /></g><g
         transform="scale(1.49475)"
         id="g30"><path
           id="path32"
           style="fill:#ffffff;fill-opacity:1;fill-rule:nonzero;stroke:none"
           d="m 14715.8,3082.11 c 0,0 50.2,-88.64 115.1,-225.45 152.5,-320.46 387.3,-904.17 255.5,-1231.64 -73.9,-184.32 -264.2,-287.01 -650.3,-216.09 -1091.8,201.03 -1289.8,964.7 -1325.6,1262.75 -7.7,63.89 -6,128.45 3.4,192 172.9,1199.19 -64.6,2320.45 -64.6,2320.45 -247.5,-32.11 -494.7,-5.35 -494.7,-5.35 -100,-691.76 8,-1776.88 43.5,-2093.32 7,-64.56 5.6,-129.79 -4.4,-194.35 -258.6,-1663.82 -1658.5,-1793.27 -1974.6,-1045.32 -36.4,85.63 -60.2,170.59 -74.6,252.88 -71.5,419.47 113.8,786.42 254.6,994.81 78.3,115.41 142.8,182.31 142.8,182.31 -440.8,1010.53 -494.7,2584.03 -494.7,2584.03 -114.7,-301.05 -194.3,-401.4 -194.3,-401.4 -118.8,-645.26 -318.16,-824.21 -318.16,-824.21 C 9812.98,4290 9665.8,4333.15 9665.8,4333.15 c -354.57,-287 -437.19,-39.47 -437.19,-39.47 -44.83,43.82 -83.3,89.31 -117.08,135.81 -411.44,572.67 -19.07,1308.58 -19.07,1308.58 21.41,2290 1160.44,3039.96 1160.44,3039.96 11,10.03 22.4,19.74 33.4,29.44 1985.3,1746.13 4048.2,1165.74 4048.2,1165.74 238.1,384.99 456.6,834.29 456.6,834.29 75.2,957 736.5,1709.6 1064.3,1591.2 162.3,-58.5 151.9,-197.4 100.4,-322.8 -52.9,-127.8 -148.9,-241.5 -148.9,-241.5 468,-193.7 493.1,-829.9 493.1,-829.9 -315.4,-2026.77 -1315.6,-3094.84 -1315.6,-3094.84 30.4,-300.72 45.2,-730.89 51.5,-1135.97 10,-593.41 2.4,-1132.63 2.4,-1132.63 344.2,-1813.34 -322.5,-2558.95 -322.5,-2558.95" /></g><g
         transform="scale(1.37502)"
         id="g34"><path
           id="path36"
           style="fill:#b2b2d4;fill-opacity:1;fill-rule:nonzero;stroke:none"
           d="m 15937.2,1598.02 c -67.5,0 -143.4,7.7 -227.4,23.19 -1119.2,206.04 -1329,973.52 -1367.2,1293.95 -7.2,59.06 -6.1,121.24 3.1,184.8 188.4,1304.49 -68.7,2542.22 -71.2,2554.51 -9,42.47 -46.5,72.07 -88.9,72.07 -3.9,0 -7.9,-0.22 -11.8,-0.8 -96,-12.43 -192.7,-16.36 -276,-16.36 -137.4,0 -238.6,10.62 -240.2,10.76 -3.3,0.37 -6.7,0.58 -10,0.58 -44.4,0 -83.2,-32.87 -89.7,-77.89 -110.3,-762.09 7.9,-1952.19 46.7,-2298.8 7,-62.4 5.7,-125.31 -3.9,-187.05 -161.3,-1037.52 -722.1,-1469.29 -1193.2,-1527.4 -37.4,-4.66 -74.4,-6.91 -110.6,-6.91 -302.4,0 -558.4,157.02 -669.2,419.19 -26,61.6 -45.7,122.76 -59.9,183.06 189.9,-95.93 435.7,-186.04 689.2,-186.04 147.4,0 297.5,30.47 440.6,108 260.6,140.87 419.7,354.18 517,562.32 122.5,262.11 161.2,555.27 124.3,842.24 -34.5,269.16 -88.3,780.94 -89,1364.57 -0.1,163.92 -93.7,314.1 -242.7,382.39 -191.4,87.71 -466.1,259.85 -722.1,588.36 -44.1,56.58 -21.3,131.92 32.4,163.27 38.9,-17.89 81.5,-27.28 125.2,-27.28 5.1,0 10.1,0.08 15,0.37 l 233.1,11.34 c 272.2,-22.98 623.6,-43.7 1002.4,-43.7 534,0 1122.8,41.23 1622.9,175.85 10.3,2.84 20.5,4.15 30.2,4.15 85.3,0 144.3,-98.84 89.6,-174.55 -125,-173.52 -326.1,-393.01 -606.2,-521.01 -166.3,-75.93 -260.1,-255.85 -234.5,-436.8 43,-303.7 82.6,-779.04 24.5,-1311.1 -61.5,-563.12 140.4,-1129.23 558,-1511.98 266.8,-244.44 632.1,-438.76 1122.3,-449.23 -6.3,-11.49 -13.1,-22.48 -20.5,-32.95 -64.2,-89.96 -179,-135.12 -342.3,-135.12" /></g><g
         transform="scale(1.03791)"
         id="g38"><path
           id="path40"
           style="fill:#b2b2d4;fill-opacity:1;fill-rule:nonzero;stroke:none"
           d="m 16297.8,4351.03 c -28.4,0 -324.5,1.74 -621,70.72 92.3,132.48 165.2,209.46 167.7,212.06 0.2,0.19 0.4,0.39 0.5,0.68 100.3,-89.51 274.3,-226.61 455,-283.46 0,0 -0.8,0 -2.2,0" /></g><g
         transform="scale(1.35229)"
         id="g42"><path
           id="path44"
           style="fill:#b2b2d4;fill-opacity:1;fill-rule:nonzero;stroke:none"
           d="m 16064.2,3122.03 c -258.4,0 -420,66.99 -420,66.99 253.6,10.58 445.7,104.05 545.4,165.06 31.6,-56.5 69.9,-129.56 110.4,-213.71 -85.1,-13.17 -164.2,-18.34 -235.8,-18.34" /></g><g
         transform="scale(1.38948)"
         id="g46"><path
           id="path48"
           style="fill:#7c7cb6;fill-opacity:1;fill-rule:nonzero;stroke:none"
           d="m 16269.6,6882.7 c -0.2,34.25 -0.5,69.23 -0.8,104.57 10.1,9.06 19.7,18.78 28.8,29.14 2.4,-47.49 -7.8,-93.27 -28,-133.71" /></g><g
         transform="scale(1.37162)"
         id="g50"><path
           id="path52"
           style="fill:#b2b2d4;fill-opacity:1;fill-rule:nonzero;stroke:none"
           d="m 11798.7,6526.66 c -112.7,0 -210.7,0.66 -292.2,1.46 -14.2,0.15 -28.2,1.39 -41.7,3.65 -4.3,54.75 -8.3,109.72 -12.3,164.77 17.4,-2.7 35.1,-4.16 53,-4.38 81.8,-0.8 180.1,-1.46 293.2,-1.46 106.6,0 225.5,0.51 355.7,1.97 l 8,-163.96 c -133.7,-1.46 -255.5,-2.05 -363.7,-2.05 m 3703.9,199.11 -7.9,162.58 c 261.4,28.95 526.6,62.05 792.8,99.81 4,0.51 7.8,1.17 11.7,1.82 0.4,-55.55 0.6,-109.79 0.8,-161.99 -8.3,-1.97 -16.7,-3.58 -25.2,-4.82 -259.2,-36.74 -517.5,-69.04 -772.2,-97.4" /></g><g
         transform="scale(1.48453)"
         id="g54"><path
           id="path56"
           style="fill:#b2b2d4;fill-opacity:1;fill-rule:nonzero;stroke:none"
           d="m 14605.4,7077.24 c 153.4,389.95 5.7,938.74 -143.2,1326.81 -75.6,197.17 -263.6,316.47 -462.4,316.47 -63.1,0 -127.3,-11.99 -189.4,-37.39 -1009.1,-412.38 -1737.9,-538.28 -2251.4,-538.28 -366.7,-0.07 -623.6,64.12 -794.8,134.05 126.3,-25.2 288.5,-45.2 485.2,-45.2 373.7,0 872.1,72.27 1485.4,318.35 1205.7,483.99 1625.8,1146.35 1741.1,1378.47 110.6,-274.42 226.8,-461.82 335.8,-589.61 87.6,-102.86 209.6,-152.71 331,-152.71 148.2,0 295.4,74.3 378.1,217.24 396,684.86 443.8,1406.06 443.8,1406.06 -277.9,133.3 -280.6,353.6 -280.6,353.6 0,0 -123.6,14.5 -195.6,435.5 -16.7,96.7 39.6,191.9 136.1,281.2 -211.2,-279.2 123.3,-352.2 123.3,-352.2 12.9,-166.6 96.1,-232 160.6,-257.7 22.6,-30.4 47.7,-61.2 75.6,-92.2 4.3,-80.7 33,-197.1 162.8,-197.1 15.8,0 33.2,1.7 52.2,5.5 31.5,-22.8 65.2,-45.3 101,-67.2 -337.3,-1877.72 -1264.2,-2888.82 -1273.8,-2899.12 -16.6,-17.72 -24.7,-41.83 -22.3,-66.02 22.8,-224.85 36.7,-524.07 45,-831.44 -15.1,2.03 -30.5,3.1 -46.1,3.1 -15.9,0 -32,-1.07 -48.2,-3.36 -116.8,-16.58 -233.2,-32.2 -349.2,-46.82" /></g><path
         id="path58"
         style="fill:#b2b2d4;fill-opacity:1;fill-rule:nonzero;stroke:none"
         d="m 14014.2,6394.9 c -14.7,0 -25.8,1.9 -33.8,4 -48.1,12.8 -66.2,56.1 -67.2,58.5 -6.2,18.8 -16.9,35.8 -31,49.7 -69.5,68.2 -128.5,139.1 -178.5,211.8 156,193.8 346.4,504.2 428.3,931.1 0,0 3.7,-0.2 10.7,-0.2 73,0 501.9,23.7 707.3,570.2 225,598 150,2652.5 766,3479 0,0 -2.2,-11.2 -5.7,-34.8 -44.4,-111.9 -80.8,-226.4 -104.4,-342.5 -28.6,-120.8 -46.3,-243 -59.1,-365.6 -21.8,-245.4 -40,-491.6 -42.2,-737.9 -1.4,-72.4 -2.1,-144.9 -1.9,-217.3 -68.8,-82.4 -111.4,-187.9 -115.5,-304.7 -4.4,-129.3 39.9,-252.3 125.2,-348.6 -0.1,-1.9 -0.2,-3.7 -0.2,-5.7 -1.9,-53.6 7.6,-104.9 26.3,-151.7 12.2,-138.8 28.1,-277.6 49,-417.3 -153.1,-395.3 -259.2,-535.6 -259.7,-536.3 -12.7,-16.1 -21.3,-34.9 -25,-55 -165,-894.6 -435,-1160.5 -436.4,-1161.8 -15.5,-14 -27.3,-31.6 -34.2,-51.3 -107.7,-304.1 -221.4,-369.3 -258.5,-369.3 h -0.1 c -8.4,1.7 -16.8,2.6 -25.3,2.6 -28.3,0 -56.1,-9.5 -78.7,-27.8 -186.4,-150.6 -298,-179.1 -355.4,-179.1" /><path
         id="path60"
         style="fill:#7c7cb6;fill-opacity:1;fill-rule:nonzero;stroke:none"
         d="m 15438.5,9190.2 c -18.7,46.8 -28.2,98.1 -26.3,151.7 0,2 0.1,3.8 0.2,5.7 4.3,-4.8 8.7,-9.6 13.2,-14.3 0.6,-0.6 1.1,-1.1 1.6,-1.7 3.4,-47.2 7.1,-94.3 11.3,-141.4" /><g
         transform="scale(1.50242)"
         id="g62"><path
           id="path64"
           style="fill:#000072;fill-opacity:1;fill-rule:nonzero;stroke:none"
           d="m 9639.76,4390.84 v 0 0 m 0.07,-0.07 h 0.13 -0.13 m 3342.87,850.16 c 38.7,0 73.1,-27.08 81.3,-65.96 2.4,-11.24 237.6,-1144.01 65.2,-2337.89 -8.4,-58.17 -9.4,-115.08 -2.9,-169.12 35,-293.26 227.1,-995.66 1251.3,-1184.22 262.9,-48.39 438.3,-13.98 521.4,102.43 220.2,308.7 -164.1,1143.75 -330.9,1439.41 -17.4,31.02 -13.2,69.75 10.5,96.31 6.2,6.99 630.4,740.2 301.2,2474.94 -1,5.52 -1.5,11.11 -1.4,16.7 0.2,15.11 20.4,1522.68 -53.2,2247.5 -2.3,23.9 5.7,47.73 22.1,65.23 9.8,10.45 978.5,1067.28 1285.8,3026.14 -4.8,67.6 -54,585.5 -438.5,744.6 -24.6,10.2 -42.8,31.4 -49.1,57.1 -6.2,25.9 0.2,53.1 17.3,73.4 63.2,75.3 185.2,263.1 158.3,362.9 -5,18.9 -18.4,46.4 -74.8,66.8 -55.2,19.9 -135.4,-1.4 -226,-59.8 -310.3,-200.3 -668.8,-777.1 -721.9,-1451.6 -0.8,-10.4 -3.5,-20.5 -8.1,-29.9 -2.1,-4.5 -221.6,-455 -458.2,-837.46 -19.5,-31.48 -57.6,-46.32 -93.3,-36.27 -5,1.39 -518.3,141.64 -1262.8,66.89 -685.5,-68.76 -1713.8,-339.32 -2719.9,-1237.87 -3,-2.66 -6.2,-5.12 -9.5,-7.32 -13.3,-8.92 -1096.65,-757.78 -1117.28,-2956.02 -0.14,-13.38 -3.53,-26.56 -9.78,-38.34 -17.38,-32.68 -419.26,-808.63 120.33,-1338.44 9.39,-9.25 16.51,-20.56 20.64,-33.08 0.66,-1.6 12.71,-30.42 44.73,-38.94 25.95,-7.05 103.16,-9.38 259.04,116.55 19.51,15.77 44.93,21.76 69.22,16.77 h 0.07 c 24.69,0 100.37,43.4 172.05,245.8 4.6,13.12 12.45,24.83 22.77,34.15 0.93,0.86 180.61,177.84 290.51,773.28 2.4,13.38 8.1,25.89 16.6,36.61 0.3,0.47 74.5,98.64 180.7,377.26 14.1,37 52.5,59.1 91.4,52.45 39.1,-6.46 68.1,-39.61 69.5,-79.21 0.5,-15.51 58.1,-1561.34 485.1,-2540.43 13.5,-30.88 7,-66.89 -16.4,-91.12 -6,-6.19 -599.2,-633.97 -304.1,-1332.44 113.5,-268.71 393.7,-416.73 713.7,-377.33 431.1,53.18 944.3,448.34 1092,1397.88 8.7,56.5 9.9,114.08 3.6,171.19 -35.6,317.22 -143.7,1406.39 -42.8,2103.86 6.4,44.27 46.9,75.68 91.3,70.76 2.4,-0.27 239.7,-25.16 472.3,5.12 3.6,0.53 7.3,0.73 10.9,0.73 m 1602.5,-3944.62 c -72.4,0 -151.7,7.92 -237.8,23.76 -1132.9,208.66 -1346.9,998.32 -1386.3,1328.12 -8.2,68.49 -7.1,140.1 3.4,212.72 143.3,992 -1.7,1939.67 -49.3,2205.9 -140.5,-12.24 -271.8,-8.38 -352.4,-3.52 -80.2,-679.24 19.8,-1683.68 53.5,-1984.26 8,-71.76 6.5,-144.17 -4.5,-215.32 -161.9,-1041.12 -744.6,-1476.88 -1236,-1537.52 -395.8,-48.72 -744.1,138.71 -887.3,477.76 -295.4,698.87 160.7,1308.16 300.1,1471.16 -303.5,727.56 -416.7,1700.85 -457,2210.23 -23.3,-43.2 -41.2,-71.55 -52.5,-88.26 -105.1,-555.24 -268.4,-772.42 -322.98,-831.99 -104.97,-283.41 -239.42,-334.26 -312.3,-338.65 -150.36,-115.21 -280.48,-157.88 -386.91,-126.6 -86.59,25.3 -128.46,89.66 -145.23,124.07 -561.69,566.95 -212.92,1370.32 -148.56,1504.57 26.82,2225.54 1089.88,3004.48 1186.38,3070.64 1041,927.83 2106.7,1206.18 2817.9,1276.38 630.5,62.1 1093.3,-21.5 1254.8,-57.9 196.6,325 375.1,683 411.7,757.2 62.2,728.6 446.2,1336.6 796.2,1562.4 137.2,88.5 265.9,115 372.6,76.5 119.7,-43.2 163.5,-121.9 179.1,-180.3 39.8,-148 -58.4,-326.3 -129.1,-429.9 418.2,-247.6 446,-825.7 447.1,-851.9 0.2,-5.3 -0.1,-10.7 -0.9,-16.1 -289.8,-1862.23 -1141.9,-2908.93 -1304.5,-3094.43 67.5,-717.51 52,-2100.14 50.4,-2221.48 299.2,-1588.24 -164.2,-2368.58 -304.7,-2561.2 130.5,-242.27 588.2,-1156.86 294.3,-1568.8 -91.7,-128.66 -242.3,-193.28 -449.2,-193.28" /></g><path
         id="path66"
         style="fill:#000072;fill-opacity:1;fill-rule:nonzero;stroke:none"
         d="m 13794.5,6292.9 c -61.1,0 -114.5,44.7 -123.5,106.9 -9.9,67.7 36.4,130.6 103.6,141.5 18.6,3.6 354.4,78.3 416.2,757.4 6.6,72.1 63.6,129.7 135.6,136.9 72.7,7.7 137.9,-36.2 158.9,-106.1 45.1,-149.6 111.1,-255 181,-289.2 24.7,-12.1 65.9,-25 138.8,3.2 64.4,24.7 136.7,-7.3 161.5,-71.8 24.8,-64.4 -7.3,-136.7 -71.7,-161.5 -119.8,-46.2 -236.8,-44.2 -338.5,5.6 -64.1,31.3 -120.8,80.1 -170.1,145.9 -157.9,-599.4 -554.3,-664.7 -573.6,-667.5 -6.1,-0.9 -12.2,-1.3 -18.2,-1.3" /><path
         id="path68"
         style="fill:#000072;fill-opacity:1;fill-rule:nonzero;stroke:none"
         d="m 14553.7,6409.7 -211,134.2 c 0,0 -3.2,-3.2 -7.1,-13.2 1.5,3.8 36.4,97 41,488.7 0.8,68.6 56.6,123.6 125,123.6 h 1.5 c 69,-0.9 124.3,-57.5 123.5,-126.5 -2.7,-228.8 -17.6,-519.8 -72.9,-606.8" /><path
         id="path70"
         style="fill:#000072;fill-opacity:1;fill-rule:nonzero;stroke:none"
         d="m 15325.6,8033.9 c -27.2,0 -54.7,8.9 -77.7,27.2 -686,546.1 -1626.4,394 -1635.8,392.5 -67.8,-11.6 -132.5,34.1 -144.1,102.2 -11.7,67.9 33.9,132.5 101.8,144.2 42.9,7.4 1058.4,173.8 1833.8,-443.3 54,-43 62.9,-121.6 19.9,-175.6 -24.7,-31 -61.1,-47.2 -97.9,-47.2" /><path
         id="path72"
         style="fill:#000072;fill-opacity:1;fill-rule:nonzero;stroke:none"
         d="m 15492.1,8742.8 c -38.2,247.1 -60.5,490.6 -74.2,737 -13.7,245.8 -18.2,492.2 -13.3,738.4 2.2,246.3 20.4,492.5 42.2,737.9 12.8,122.6 30.5,244.8 59.1,365.6 24.7,121 63.2,240.4 110.2,356.9 18.9,-125.8 20.2,-247.7 26.2,-370 3,-61.1 2.6,-121.6 3.3,-182.3 1.3,-60.7 1,-121.1 0,-181.5 -4.1,-241.7 -0.2,-483.4 7.2,-725 8.5,-241.5 19.6,-482.9 34.5,-724 15.7,-240.5 33.1,-483.4 52.7,-720.8 l 0.3,-2.7 c 5.7,-68.8 -45.5,-129.2 -114.3,-134.9 -65.7,-5.5 -123.8,41.4 -133.9,105.4" /><g
         transform="scale(1.38233)"
         id="g74"><path
           id="path76"
           style="fill:#000072;fill-opacity:1;fill-rule:nonzero;stroke:none"
           d="m 16113,8548.21 c 1.2,67.42 7.9,135.85 15.4,204.07 3.5,34.15 8.3,68.37 12.4,102.58 4.8,34.44 12.7,68.15 27.6,105.19 27.1,-29.95 41.7,-64.09 53.4,-97.37 10.6,-33.57 21,-67.21 29.7,-100.99 17.8,-67.57 33.2,-135.06 42.1,-203.65 6.4,-49.62 -28.6,-95.12 -78.3,-101.56 -49.6,-6.44 -95.1,28.57 -101.6,78.27 -0.6,4.34 -0.8,9.19 -0.7,13.46" /></g><g
         transform="scale(1.15153)"
         id="g78"><path
           id="path80"
           style="fill:#000072;fill-opacity:1;fill-rule:nonzero;stroke:none"
           d="m 16293.2,6613.88 c -101.1,8.85 -198,21.36 -296.1,36.64 -97.6,15.72 -195,32.13 -291.5,52.8 -96.7,20.32 -192.7,43.16 -288.1,67.91 -95.4,24.06 -189.8,54.45 -279.3,100.04 100.7,3.3 197.2,-6.16 294.1,-13.89 96.7,-7.99 193.5,-13.9 290.4,-17.28 96.8,-3.39 193.3,-7.65 289.9,-8.43 96.1,-1.13 193.8,-1.91 287.4,-0.78 l -6.8,-217.01" /></g><g
         transform="scale(1.27224)"
         id="g82"><path
           id="path84"
           style="fill:#000072;fill-opacity:1;fill-rule:nonzero;stroke:none"
           d="m 15317,6188.07 119.5,19.1 121.6,21.38 c 81.2,14.62 162.6,29.79 244,46.06 81.2,17.13 163.1,33.01 244.3,52.58 41,8.49 81.8,17.69 124,23.5 42.1,6.21 84.6,11.95 129.6,11.87 -67.4,-58.4 -142.7,-100.29 -220.3,-135.19 -78,-34.2 -156.9,-66.74 -237.2,-95.74 -80,-29.79 -161.4,-55.89 -243.7,-79.39 -41.1,-12.02 -82.6,-22.48 -124.5,-32.23 -42.3,-9.74 -82.9,-19.17 -128.3,-26.25 l -29,194.31" /></g><g
         transform="scale(1.15306)"
         id="g86"><path
           id="path88"
           style="fill:#000072;fill-opacity:1;fill-rule:nonzero;stroke:none"
           d="m 15133.6,4407.07 c -668.7,0 -1126.9,171.63 -1155.4,182.56 l 77.6,202.42 c 9.9,-3.73 1002,-372.75 2178.4,2.08 l 65.8,-206.58 c -424.5,-135.29 -823.2,-180.48 -1166.4,-180.48" /></g><g
         transform="scale(1.37101)"
         id="g90"><path
           id="path92"
           style="fill:#000072;fill-opacity:1;fill-rule:nonzero;stroke:none"
           d="m 15518.2,3643.02 c -916.2,0 -1206.7,320.71 -1221.3,337.56 l 137,120.28 c 4,-4.31 414.2,-432.97 1838.2,-212.18 l 27.9,-180.16 c -300.7,-46.61 -559.6,-65.5 -781.8,-65.5" /></g><g
         transform="scale(1.03791)"
         id="g94"><path
           id="path96"
           style="fill:#000072;fill-opacity:1;fill-rule:nonzero;stroke:none"
           d="m 15854.6,4789.54 c 8,-13.59 24.2,-37.19 38.2,-55.79 15,-19.84 30.1,-40.27 46.8,-59.64 33.2,-38.44 67,-78.91 105.7,-114.75 38.2,-36.22 77.7,-73.13 120.6,-106.94 42,-35.55 87.6,-66.96 134.1,-101.26 -57.2,3.37 -114.7,12.23 -171,26.78 -56.8,13.97 -112.1,34.2 -166,58.49 -53.6,24.85 -106.9,52.79 -156.6,86.9 -25,16.86 -49.7,34.78 -73.6,54.24 -24.1,21.1 -45.5,38.16 -71.4,68.12 l 193.2,143.85" /></g><g
         transform="scale(1.3549)"
         id="g98"><path
           id="path100"
           style="fill:#000072;fill-opacity:1;fill-rule:nonzero;stroke:none"
           d="m 16300,3335.09 c -9.4,-8.71 -14.6,-13.06 -21.8,-18.45 -6.7,-5.32 -13.3,-9.89 -19.9,-14.54 -13.2,-9.45 -26.6,-17.79 -40.3,-25.46 -27.4,-15.28 -54.6,-29.82 -83.3,-40.6 -56.6,-23.32 -115.1,-39.41 -173.6,-50.19 -58.7,-9.96 -117.1,-16.97 -175.4,-16.16 -58,-1.11 -115.6,4.72 -171.7,13.21 27.7,7.6 55.2,13.36 82.1,21.11 26.8,9.15 53.7,14.84 79.7,25.1 26,8.92 51.5,18.82 76.5,29.74 25.3,9.52 49.3,22.36 73.4,33.58 47.3,25.09 92.2,52.62 134.1,82.22 20.7,15.13 41,30.19 60,46.06 l 27.6,23.76 c 4.3,3.99 8.8,7.9 12.6,11.81 3.6,3.47 8.9,8.42 9.5,9.3 l 130.5,-130.49" /></g><g
         transform="scale(1.48434)"
         id="g102"><path
           id="path104"
           style="fill:#000072;fill-opacity:1;fill-rule:nonzero;stroke:none"
           d="m 16290.3,10371.5 c -1056,60.8 -1439.5,436.6 -1455.3,452.5 l 119.3,118.9 c 3.5,-3.5 362.6,-346.7 1345.7,-403.2 l -9.7,-168.2" /></g><g
         transform="scale(1.03023)"
         id="g106"><path
           id="path108"
           style="fill:#ffffff;fill-opacity:1;fill-rule:nonzero;stroke:none"
           d="m 14613.4,13345.3 -350.6,-140.6 C 13743,12996 13152.6,13248.3 12944,13768 l -512.7,1277.4 c -163.2,406.5 34.1,868.4 440.6,1031.5 l 555.7,223.1 1185.8,-2954.7" /></g><path
         id="path110"
         style="fill:#b2b2d4;fill-opacity:1;fill-rule:nonzero;stroke:none"
         d="m 14306.1,13653.7 c -364.8,0 -710.8,218.5 -854.8,577.2 l -107.8,268.6 c 140.4,-103.4 311.1,-161.3 487.3,-163.4 141.9,-236 313.8,-469.1 521.4,-681.2 -15.4,-0.8 -30.8,-1.2 -46.1,-1.2" /><g
         transform="scale(1.0402)"
         id="g112"><path
           id="path114"
           style="fill:#000072;fill-opacity:1;fill-rule:nonzero;stroke:none"
           d="m 13232.1,15987.5 -438.7,-176.2 c -340.5,-136.6 -506.4,-524.9 -369.7,-865.4 l 507.7,-1265 c 181.6,-452.4 697.5,-672.9 1150,-491.3 l 235.6,94.6 -1084.9,2703.3 m 521.4,-3101.8 c -446.1,0 -869.1,267 -1045.1,705.6 l -507.8,1265.1 c -185.9,463.5 39.8,992 503.3,1178.1 l 661.8,265.5 1264,-3149.3 -458.8,-184.2 c -136.8,-54.9 -278.3,-80.8 -417.4,-80.8" /></g><g
         transform="scale(1.35679)"
         id="g116"><path
           id="path118"
           style="fill:#ffffff;fill-opacity:1;fill-rule:nonzero;stroke:none"
           d="m 15447.6,11879.8 266.2,106.8 c 394.6,158.4 586.2,606.8 427.8,1001.5 l -389.3,969.8 c -123.9,308.8 -474.6,458.5 -783.2,334.6 l -421.9,-169.3 900.4,-2243.4" /></g><g
         transform="scale(1.3421)"
         id="g120"><path
           id="path122"
           style="fill:#b2b2d4;fill-opacity:1;fill-rule:nonzero;stroke:none"
           d="m 16043.5,12320.9 c 2.5,221.3 -25,435.4 -70.2,635.8 93.8,91.8 155.8,211 178.2,338.9 l 80.3,-200.1 c 68.2,-169.9 66.1,-356.2 -5.8,-524.5 -41.7,-97.8 -104.2,-182.8 -182.5,-250.1" /></g><g
         transform="scale(1.35786)"
         id="g124"><path
           id="path126"
           style="fill:#000072;fill-opacity:1;fill-rule:nonzero;stroke:none"
           d="m 14655.4,14061 831.1,-2070.9 180.6,72.4 c 167.9,67.4 299.5,196.2 370.6,362.6 71,166.3 73.1,350.5 5.7,518.4 l -389,969.1 c -50.6,126.4 -147.6,225.5 -272.8,278.9 -125.2,53.5 -263.8,55 -390.1,4.3 l -336.1,-134.8 m 728.8,-2310.4 -968.3,2412.6 507,203.5 c 172,69 360.6,67 531.1,-5.9 170.4,-72.8 302.3,-207.6 371.4,-379.6 l 388.9,-969.2 c 85.7,-213.5 83.1,-447.7 -7.3,-659.2 -90.4,-211.7 -257.8,-375.4 -471.3,-461.1 l -351.5,-141.1" /></g><g
         transform="scale(1.31451)"
         id="g128"><path
           id="path130"
           style="fill:#ffffff;fill-opacity:1;fill-rule:nonzero;stroke:none"
           d="m 16125.9,11774.5 174.1,-433.9 c 0,0 -333,-943.7 -1953.5,-1594.07 C 12726,9096.17 11833,9547.82 11833,9547.82 l -174.1,433.85 4467,1792.83" /></g><g
         transform="scale(1.15101)"
         id="g132"><path
           id="path134"
           style="fill:#b2b2d4;fill-opacity:1;fill-rule:nonzero;stroke:none"
           d="m 14476.3,10953.1 c -444,0 -755.1,81 -921,139 l -46.4,115.5 c 281.7,-93.4 585.5,-140 910.3,-140 550.4,0 1161.5,134 1829.3,402 l 51.5,-128.3 c -744.8,-298.9 -1357.5,-388.2 -1823.7,-388.2" /></g><g
         transform="scale(1.30321)"
         id="g136"><path
           id="path138"
           style="fill:#b2b2d4;fill-opacity:1;fill-rule:nonzero;stroke:none"
           d="m 14396.3,10016.8 v 0 0 l -45.5,113.2 v 0 c 938,376.5 1577.6,881.6 1908.2,1505.6 l 41,-102 c -144.4,-283.7 -619.2,-1001.3 -1903.7,-1516.8" /></g><g
         transform="scale(1.15101)"
         id="g140"><path
           id="path142"
           style="fill:#7c7cb6;fill-opacity:1;fill-rule:nonzero;stroke:none"
           d="m 16300,11341.3 -51.5,128.3 v 0 l 51.5,-128.3 v 0" /></g><g
         transform="scale(1.32271)"
         id="g144"><path
           id="path146"
           style="fill:#000072;fill-opacity:1;fill-rule:nonzero;stroke:none"
           d="m 11832.9,9559.88 c 166.5,-66.54 1006.5,-341.2 2389.5,213.95 1382.5,554.87 1799.8,1333.57 1874.5,1497.37 l -123.4,307.5 -4264.1,-1711.35 123.5,-307.47 m 792.8,-318.82 c -574.7,0 -886.9,152.19 -908.7,163.23 l -31.9,16.1 -221.4,551.97 4614.8,1852.14 221.5,-551.9 -11.8,-33.7 c -14.1,-39.9 -364,-985.8 -1995.4,-1640.54 -688.3,-276.18 -1247.6,-357.3 -1667.1,-357.3" /></g><g
         transform="scale(1.43848)"
         id="g148"><path
           id="path150"
           style="fill:#ffffff;fill-opacity:1;fill-rule:nonzero;stroke:none"
           d="m 12969,9258.08 c 3331,1336.92 1297.3,4024.52 1297.3,4024.52 -728.4,938.7 -2024.9,1316.2 -3244.4,826.8 -1219.36,-489.4 -1895.14,-1658.5 -1772.51,-2840.2 0,0 388.53,-3348.02 3719.61,-2011.12" /></g><g
         transform="scale(1.32671)"
         id="g152"><path
           id="path154"
           style="fill:#b2b2d4;fill-opacity:1;fill-rule:nonzero;stroke:none"
           d="m 12510.8,9790.57 c -422.4,0 -798.6,97.08 -1125.4,291.33 -84.1,50 -162.8,105.3 -236.4,164.6 215.2,-67.1 456.1,-105.4 725.7,-105.4 283,0 597.7,42.2 947.6,137.4 300.1,38.9 641.7,127.4 1029.3,282.9 2387.6,958.3 1749.4,2547.6 1749.4,2547.6 -43.7,108.9 -93,207.9 -147,297.5 -149.2,815 -622.1,1440 -622.1,1440 -27.6,35.5 -55.9,70.3 -84.9,104.4 241.4,-163.2 459.8,-366.1 646,-606 9.1,-12.1 907,-1220.5 572,-2424.9 -211.1,-759.2 -863.2,-1362.9 -1938.5,-1794.5 -556.4,-223.23 -1062.7,-334.93 -1515.7,-334.93" /></g><g
         transform="scale(1.3435)"
         id="g156"><path
           id="path158"
           style="fill:#000072;fill-opacity:1;fill-rule:nonzero;stroke:none"
           d="m 12975.8,15244.1 c -378.1,0 -764.5,-72.8 -1140,-223.4 -1232,-494.5 -1971.39,-1678.1 -1839.87,-2945.3 1.56,-13.6 185.97,-1488.8 1247.17,-2119.51 668.9,-397.55 1546.4,-383.03 2608.1,43.09 1061.8,426.12 1705.8,1022.32 1914.3,1772.02 330.8,1189.4 -555.9,2382.7 -564.9,2394.6 -542.4,699.1 -1361.7,1078.5 -2224.8,1078.5 m -622.4,-5762.2 c -450.7,0 -853.9,104.87 -1206.4,314.7 -1140.5,678.7 -1328.59,2194.3 -1336.11,2258.5 -140.3,1351.8 645.71,2612.5 1955.61,3138.2 1310,525.8 2749.5,158.2 3581.9,-914.6 39.7,-52.4 951.6,-1277.6 596.7,-2556.4 -224.5,-809 -905.6,-1446.9 -2024.6,-1896 -572,-229.55 -1095.6,-344.4 -1567.1,-344.4" /></g><g
         transform="scale(1.32175)"
         id="g160"><path
           id="path162"
           style="fill:#000072;fill-opacity:1;fill-rule:nonzero;stroke:none"
           d="m 13903.5,10601 c 2396.5,961.8 1756,2557.1 1756,2557.1 -745.7,1858 -3104.9,803.9 -3104.9,803.9 0,0 -2433.4,-869.3 -1687.7,-2727.4 0,0 640.1,-1595.37 3036.6,-633.6" /></g><g
         transform="scale(1.13217)"
         id="g164"><path
           id="path166"
           style="fill:#ffffff;fill-opacity:1;fill-rule:nonzero;stroke:none"
           d="m 12686.6,13115.9 v 0 0 m 0,0 v 0 c -115.6,288.1 -165.8,555.8 -165.8,803.5 0,-247.7 50.2,-515.4 165.8,-803.5 v 0 m 1970.4,3184 c 0,0 0.1,0.1 0.1,0.1 0,0 -0.1,-0.1 -0.1,-0.1" /></g><g
         transform="scale(1.24194)"
         id="g168"><path
           id="path170"
           style="fill:#8080b9;fill-opacity:1;fill-rule:nonzero;stroke:none"
           d="m 12107.8,11313.2 c -397.6,286.2 -541,639.9 -542.5,643.4 v 0 0 0 c -105.4,262.7 -151.1,506.7 -151.1,732.6 -0.3,1474.3 1947.2,2170.1 1947.2,2170.1 0,0 0,0 0.1,0 0,0 0.1,0 0.2,0 13.4,6.1 716.6,316.9 1492.8,316.9 508.2,0 1047.7,-133.3 1445.5,-572.5 -355.3,251.5 -776.4,334.6 -1177.9,334.6 -783.5,0 -1492.7,-316.6 -1492.7,-316.6 0,0 -221.6,-79.4 -515.1,-240.8 -48.7,-26.7 -78.1,-77 -81.9,-132.3 -12.2,-180.6 -166.2,-445.1 -413.3,-681 -237.5,-227 -497.6,-366.9 -678.1,-380.7 -56.4,-4.4 -105.7,-41.2 -127.7,-93.3 -161.7,-383.1 -194.4,-840.3 20,-1374.6 0,0 76.7,-190.7 274.5,-405.8" /></g><g
         transform="scale(1.29074)"
         id="g172"><path
           id="path174"
           style="fill:#000072;fill-opacity:1;fill-rule:nonzero;stroke:none"
           d="m 14294.9,14505.3 c -724.9,0 -1390.1,-292.2 -1399.1,-296.2 l -6.9,-2.8 c -12.5,-4.5 -1261.9,-461 -1676.2,-1382.5 -178.7,-397.4 -176.9,-829.2 5.2,-1283.1 1.5,-3.6 162.4,-388.8 604.3,-652.6 587.9,-351.1 1410.7,-331.2 2379.4,57.6 968.6,388.7 1576.8,943.1 1759,1603.3 136.9,496.1 -13.2,885.6 -14.7,889.5 -182.3,454 -479.7,767.2 -884,930.7 -245.4,99.4 -510,136.1 -767,136.1 z m -1485.5,-4060.2 c -491.2,0 -849.2,132.7 -1097,283 -492.6,298.6 -667,722.6 -674.2,740.5 -202.7,504.9 -203.2,987.9 -1.8,1435.4 441.7,981.1 1692.4,1450.2 1783.8,1483.4 89,39.3 1317,564.9 2314.4,161.4 455,-184.1 788.5,-533.5 991.1,-1038.4 7.2,-17.9 174.3,-444.8 24.9,-1001.2 -136.1,-506.2 -572,-1219.6 -1876.9,-1743.3 -583.3,-234.1 -1067.4,-320.8 -1464.3,-320.8" /></g><g
         transform="scale(1.57945)"
         id="g176"><path
           id="path178"
           style="fill:#000072;fill-opacity:1;fill-rule:nonzero;stroke:none"
           d="m 16216.1,9980.85 c -3.3,0 -6.6,0.19 -9.9,0.64 -1339.7,168.71 -1435.6,1005.41 -1439,1040.91 l -0.4,7.4 -12.8,5050.9 c -0.1,43.7 35.2,79.3 78.9,79.4 h 0.2 c 43.6,0 79.1,-35.4 79.1,-79 l 12.9,-5046.5 c 7.4,-58.5 120,-747.3 1300.8,-896.1 43.4,-5.4 74.1,-45 68.7,-88.4 -5,-40 -39.2,-69.25 -78.5,-69.25" /></g><g
         transform="scale(1.62342)"
         id="g180"><path
           id="path182"
           style="fill:#000072;fill-opacity:1;fill-rule:nonzero;stroke:none"
           d="m 14440,13140.6 -2754.1,1306.6 c -38.5,18.2 -54.9,64.2 -36.6,102.6 18.2,38.4 64.1,54.8 102.6,36.5 l 2670.9,-1267.2 1744.4,1283.6 c 34.2,25.2 82.4,17.9 107.6,-16.4 25.2,-34.3 17.9,-82.4 -16.4,-107.6 L 14440,13140.6" /></g><g
         transform="scale(1.52379)"
         id="g184"><path
           id="path186"
           style="fill:#000072;fill-opacity:1;fill-rule:nonzero;stroke:none"
           d="m 15375.1,14012.9 c -32.4,0 -63,19.2 -76,51 l -864.8,2112 c -17.2,41.9 2.8,89.8 44.8,107 42,17.1 89.8,-2.9 107,-44.9 l 864.8,-2112 c 17.2,-41.9 -2.9,-89.8 -44.8,-107 -10.2,-4.2 -20.7,-6.1 -31,-6.1" /></g><g
         transform="scale(2.32136)"
         id="g188"><path
           id="path190"
           style="fill:#ea3f24;fill-opacity:1;fill-rule:nonzero;stroke:none"
           d="m 12046.9,14103.3 c 0,-1213.2 -983.4,-2196.7 -2196.65,-2196.7 -1213.21,0 -2196.73,983.5 -2196.73,2196.7 0,1213.2 983.52,2196.7 2196.73,2196.7 1213.25,0 2196.65,-983.5 2196.65,-2196.7" /></g><g
         id="g192"><g
           clip-path="url(#clipPath198)"
           id="g194"><g
             transform="scale(2.32141)"
             id="g200"><path
               id="path202"
               style="fill:#ff7a45;fill-opacity:1;fill-rule:nonzero;stroke:none"
               d="m 7484.03,15472.1 c 0,0 1538.97,1205.3 2246.47,940.9 707.5,-264.5 -1161.01,-715.2 -2017.35,-1508.6 -856.33,-793.3 553.07,558.5 1969.02,672.1 730.73,58.7 802.53,-49.8 755.63,-158.3 -43.9,-101.8 -192.4,-203.5 0,-167.4 397.8,74.5 952.4,84.3 418.4,-172.2 -533.9,-256.5 -1197.98,-159.8 -1486.25,-323.8 -288.32,-164.1 -1441.58,-752.1 -1273.8,-763.8 77.93,-5.4 337.3,140.7 621.18,286.9 327.47,168.6 687.6,337.2 839.19,273.1 282.97,-119.8 588.08,-255.5 1439.38,29.5 851.3,285.1 434.2,594.5 906.4,596.6 472.2,2.1 -61.8,-907.8 -1100.8,-950.3 -353.5,-14.4 -618,11.7 -824.77,37.8 -400.79,50.6 -584.9,101.1 -781.81,-143.4 -298.43,-370.6 -55.87,-122.5 -513.26,-369.6 -457.44,-247.2 -843.19,-272.1 -924.18,-465.2 -81.03,-193.2 537.73,141.8 980.27,360.3 442.57,218.4 496.03,549.2 813.51,337.4 317.52,-211.7 1506.44,-262 1814.34,-55.7 308,206.3 702.2,-236.9 -357.4,-321.7 -1059.6,-84.8 -1545.29,21.5 -1692.31,85.4 -147.03,63.8 149.69,-200.1 -427.93,-547.9 -577.63,-347.8 -1268.67,-236 -1013.65,-575 255.01,-339.1 418.32,155.9 1188.54,340 770.18,184 494.87,675.9 1002.25,436.5 507.4,-239.3 165.9,-538.9 841.9,-136.1 676,402.9 1047.2,580.5 803.8,277.4 -243.4,-303.2 -1895.13,-1245.6 -1989.38,-607.1 0,0 -143.71,103.4 -271,-73.5 -127.34,-176.8 -75.6,-314.8 -581.16,-445.9 -505.6,-131.2 -299.95,-614.9 -60.74,-585.7 239.21,29.2 1262.68,635.1 1420.78,563.3 158.1,-71.9 -67.6,-303.8 633.8,122.8 701.4,426.5 1443.6,723.1 1093,119.5 -350.6,-603.6 -1779,-748.5 -1789.8,-418.5 -10.8,330 -1.3,-341.7 -768.65,-476.5 -767.3,-134.8 2927.95,-1210.9 3542.85,782.1 410.1,1329 -571.9,1014 -1212.3,699.1 -320,-157.3 -554.7,-314.7 -487.7,-266.9 201.1,143.3 609.4,511.7 778.5,851.9 169,340.1 141.6,628.3 -202.6,464.9 -344.2,-163.4 -370.1,-7.1 185.9,325.3 555.9,332.3 667.6,1393.6 199.2,1084.1 -468.3,-309.5 -378,-282.6 -810.4,-549.9 -432.3,-267.3 -253.7,146.7 -79.1,236.4 174.6,89.7 340.1,229.7 184.3,317 -155.7,87.3 -387.1,-181.4 -568,-181.6 -181,-0.2 -46,189.7 145.8,210.1 191.9,20.5 424.4,318.2 60.6,460.8 -185,72.6 -364.5,-64 -525.2,-200.5 -155.3,-131.9 -293,-263.9 -401.3,-207.2 -220.31,115.4 -286.86,74.6 -469.08,55 -87.45,-9.4 -82.41,34.4 -30.15,78.2 56.6,47.5 168.64,95 278.45,74.8 211.28,-38.8 627.48,131.5 708.28,354.5 80.8,223 -214,804.2 -905.53,586.7 -691.57,-217.5 -1980.14,-573.8 -2306.14,-1388.1" /></g><g
             transform="scale(2.28896)"
             id="g204"><path
               id="path206"
               style="fill:#ff7a45;fill-opacity:1;fill-rule:nonzero;stroke:none"
               d="m 7785.16,15588 c 62.3,62.9 440.11,386.9 652.44,313.4 98.82,-34.2 303.36,66.5 488.73,167.1 213.11,115.8 400.84,231.5 373.32,142.3 -51.51,-166.7 -999.58,-543.5 -1426.72,-878 -427.14,-334.5 -838.59,-793.2 -446.54,-660.9 392.06,132.2 736.93,421.3 929.42,351.5 85.24,-30.9 404.46,71.2 698.18,173.3 369.51,128.4 698.66,256.9 470.91,120.5 -408.79,-244.7 -1331.61,-533.6 -1432,-767.7 -100.4,-234.1 -216.56,-88.1 -104.64,75.3 111.93,163.4 -326.34,342.7 -402.97,-118.4 -76.63,-461.1 -255.14,-823.3 19.04,-724.2 274.15,99 585.95,169.6 946.29,347.1 360.38,177.4 25.16,-133 -348.59,-249.7 -373.71,-116.8 -737.37,-386.9 -726.31,-468.7 11.09,-81.8 160.64,-244.1 512.19,-86.9 161.26,72.1 211.15,42.7 263.05,13.2 61.3,-34.8 125.43,-69.6 378.91,62.7 468.2,244.5 161.95,-62.7 -361.17,-253.5 -523.12,-190.8 -540.73,-325.6 -609.97,-224.7 -69.21,100.9 -760.61,1191.5 -415.61,2067.9 l 542.04,598.4" /></g><g
             transform="scale(2.29352)"
             id="g208"><path
               id="path210"
               style="fill:#ae3724;fill-opacity:1;fill-rule:nonzero;stroke:none"
               d="m 11752.6,14323.4 c -96.3,-0.1 -36.8,112 244.6,300 4.8,-72.5 5.9,-144.6 3.6,-216.1 -13,-5.2 -26.6,-11.2 -40.7,-17.9 -94.8,-45 -165.8,-66 -207.5,-66 m -1021.5,72.3 c -3.9,0 -7.8,0 -11.6,0 23.6,83.6 40.3,169.7 49.6,257.6 108.3,25.8 227.9,60.1 360.6,104.6 670.6,224.5 563.5,463.9 708.4,560.1 61.5,-151.4 107.2,-312 134.6,-480.1 1.5,-9.5 3,-18.9 4.4,-28.4 -221.9,-204 -584.1,-390.9 -1044.2,-409.6 -70.7,-2.9 -137.9,-4.2 -201.8,-4.2 m 7.2,771.6 c -22.5,98.6 -53.9,193.1 -93.4,282.8 126,19.9 259,32.6 364.4,32.6 221.6,0 321.4,-56.3 -21,-220.7 -81,-38.9 -164.8,-69.8 -250,-94.7 m 575.7,2.3 c -136.2,0 0.9,259.9 135.6,329.1 74.8,38.4 147.9,85.9 195.4,134.7 48.5,-59.7 93.8,-121.8 135.8,-186.5 3.3,-6.8 6.6,-13.7 9.8,-20.6 -62.6,-42.3 -142.4,-93.7 -260.9,-167 -104.2,-64.4 -173.3,-89.7 -215.7,-89.7 m -748.9,436.9 c -29.4,50.4 -61.5,99 -96.2,145.4 112.4,-33.3 120.2,-89.3 96.2,-145.4 m 495.8,29.1 c -182.8,0 -46.2,192 147.9,212.8 53.3,5.7 109.7,32.5 155.9,71.4 38.3,-32.5 75.5,-66.3 111.4,-101.4 -134.2,-49.9 -287,-182.6 -414.9,-182.8 -0.1,0 -0.2,0 -0.3,0 m -672.4,252.8 c -13.8,0 -27.3,2.2 -40.3,6.8 -28.6,30.1 -58.5,59 -89.3,86.7 -34,44 -70.4,86 -108.7,125.9 8.3,-0.5 16.9,-0.8 25.7,-0.8 156.1,0 373.2,77.4 516,193 27.6,-7.1 54.8,-14.7 81.9,-22.8 38.1,-15.4 75.6,-31.7 112.4,-49.1 -50.6,-35.2 -99.9,-75.8 -147.7,-116.3 -131.4,-111.7 -250.4,-223.4 -350,-223.4" /></g><g
             transform="scale(2.30226)"
             id="g212"><path
               id="path214"
               style="fill:#ae3724;fill-opacity:1;fill-rule:nonzero;stroke:none"
               d="m 9857.26,16260.2 c -15.15,10.2 -30.53,20.2 -46.04,29.8 30.71,4 61.68,7.3 92.78,10 -13.64,-13 -29.27,-26.2 -46.74,-39.8" /></g><g
             transform="scale(2.30343)"
             id="g216"><path
               id="path218"
               style="fill:#bd603b;fill-opacity:1;fill-rule:nonzero;stroke:none"
               d="m 10550.8,14027.7 c 51.3,96.9 92.6,199.5 122.6,306.1 3.8,0 7.7,0 11.5,0 63.6,0 130.6,1.2 201,4.1 458.1,18.7 818.7,204.7 1039.7,407.9 9.3,-61.9 15.9,-123.8 19.9,-185.3 -280.1,-187.2 -339.3,-298.8 -243.5,-298.8 41.5,0 112.2,21 206.6,65.8 14.1,6.7 27.6,12.6 40.6,17.8 -2.7,-84.2 -10.2,-167.5 -22.2,-249.7 -133.4,30.4 -286.5,45.4 -455.9,45.4 -270.4,0 -582,-38.2 -920.3,-113.3 m 172,562.5 c 14.3,135.4 11,274.8 -11.9,415.6 -5.3,32.5 -11.6,64.6 -18.8,96.2 84.8,24.9 168.3,55.6 248.9,94.3 340.9,163.8 241.6,219.8 21,219.8 -105,0 -237.5,-12.7 -362.9,-32.5 -23.6,53.7 -50.2,105.7 -79.4,155.7 23.8,55.9 16.1,111.7 -95.8,144.9 -37.3,50 -77.5,97.6 -120.3,142.6 13.1,-4.6 26.4,-6.7 40.2,-6.7 99.2,0 217.7,111.2 348.5,222.4 47.6,40.3 96.7,80.7 147.1,115.8 172.5,-81.3 332.6,-184.8 476.4,-306.9 -46,-38.8 -102.2,-65.5 -155.2,-71.2 -193.2,-20.6 -329.3,-211.8 -147.3,-211.8 0.1,0 0.2,0 0.3,0 127.4,0.1 279.5,132.2 413.1,182 59.6,-58.2 115.7,-119.6 168.2,-184.3 -47.3,-48.5 -120.1,-95.9 -194.6,-134.1 -134.1,-68.9 -270.5,-327.6 -135,-327.6 42.3,0 111.1,25.2 214.8,89.3 118,72.9 197.4,124.2 259.8,166.3 16.7,-35.4 32.4,-71.4 47.2,-107.9 -144.2,-95.7 -37.6,-334.1 -705.3,-557.7 -132.1,-44.2 -251.2,-78.4 -359,-104.2 m -590.7,1447.5 c -8.8,0 -17.3,0.3 -25.6,0.8 -77.1,80.1 -162.32,151.6 -254.23,213.5 17.46,13.5 33.08,26.8 46.72,39.7 63.42,5.5 127.61,8.3 192.51,8.3 191.5,0 377.3,-24.4 554.4,-70.1 -142.2,-115.1 -358.4,-192.2 -513.8,-192.2" /></g></g></g><g
         transform="scale(2.31029)"
         id="g220"><path
           id="path222"
           style="fill:#f7b2a7;fill-opacity:1;fill-rule:nonzero;stroke:none"
           d="m 7863.51,13841.3 c -11.6,2.5 -23.2,5 -34.85,7.3 -19.95,21.1 -39.34,42.7 -58.13,64.9 -10.17,84.4 -15.41,170.3 -15.41,257.4 0,168 19.48,331.6 56.23,488.6 49.65,-10.2 91.03,-37.9 109.99,-73 -11.3,-44.9 -21.3,-90.3 -29.83,-136.2 -22.51,-46.9 -26.57,-89.6 -18.65,-118.4 -12.25,-94.1 -18.57,-190.1 -18.57,-287.6 0,-68.4 3.12,-136.1 9.22,-203 m -26.84,915.9 c 23.07,80.9 50.73,159.7 82.72,236.4 64.53,38.2 135,78.5 210.53,119.7 -49.04,-88.5 -92.24,-180.7 -128.94,-276 -51.47,-22.6 -106.44,-50.3 -164.31,-80.1 m 176.34,432 c 44.8,82.6 94.97,162.1 149.9,237.7 113.62,65.2 234.25,129.8 351.77,192 -75.19,-73.9 -145.05,-153 -209.11,-237 -101.37,-61.6 -199.8,-125.8 -292.56,-192.7 m 441.12,563.5 c 325.8,297.5 743.58,496 1205.04,547.3 40.3,-20.5 79.64,-42.7 117.95,-66.6 -196.64,-25.3 -385.06,-76.4 -561.97,-149.9 -2.46,6.2 -8.52,9 -17.66,9 -50.42,0 -194.91,-86.2 -353.59,-172.4 -136.3,-74 -283.12,-148 -389.77,-167.4" /></g><g
         transform="scale(2.18017)"
         id="g224"><path
           id="path226"
           style="fill:#ffcab5;fill-opacity:1;fill-rule:nonzero;stroke:none"
           d="m 8392.07,15888.5 c 29.68,71 62.75,140.1 99.21,207.3 98.3,70.9 202.6,138.9 310.02,204.2 -68.61,-90 -130.9,-185.1 -186.13,-284.6 -80.04,-43.7 -154.71,-86.4 -223.1,-126.9" /></g><g
         transform="scale(2.28088)"
         id="g228"><path
           id="path230"
           style="fill:#ffcab5;fill-opacity:1;fill-rule:nonzero;stroke:none"
           d="m 7974.37,14516.7 c -8.02,29.2 -3.9,72.4 18.9,119.9 -7.37,-39.6 -13.68,-79.6 -18.9,-119.9 m 49.11,257.9 c -19.21,35.6 -61.12,63.6 -111.41,73.9 7.81,33.3 16.36,66.3 25.65,99 58.62,30.2 114.3,58.2 166.43,81.1 -31.75,-82.5 -58.75,-167.3 -80.67,-254 m 244.68,851.2 c 87.03,119.8 185.9,230.4 294.98,330 108.03,19.6 256.74,94.6 394.8,169.6 160.73,87.3 307.07,174.6 358.15,174.6 9.25,0 15.39,-2.9 17.89,-9.1 -266.43,-110.7 -506.87,-271.5 -709.51,-470.6 -119.03,-63 -241.22,-128.4 -356.31,-194.5" /></g><g
         transform="scale(2.29432)"
         id="g232"><path
           id="path234"
           style="fill:#dfafa7;fill-opacity:1;fill-rule:nonzero;stroke:none"
           d="m 10770.1,16271.4 c -27.2,8.2 -54.4,15.8 -81.9,22.9 2.3,1.9 4.6,3.8 6.9,5.7 25.3,-9.1 50.2,-18.6 75,-28.6" /></g><g
         transform="scale(2.31216)"
         id="g236"><path
           id="path238"
           style="fill:#dfafa7;fill-opacity:1;fill-rule:nonzero;stroke:none"
           d="m 9769.23,16220.3 c -38.28,23.9 -77.59,46.1 -117.86,66.5 78.2,8.7 157.61,13.2 238.09,13.2 8.91,0 17.78,-0.1 26.69,-0.2 -10.64,-22.2 -29.15,-45.4 -54.54,-69.6 -30.97,-2.6 -61.8,-5.9 -92.38,-9.9" /></g><g
         transform="scale(2.31213)"
         id="g240"><path
           id="path242"
           style="fill:#e5bfb1;fill-opacity:1;fill-rule:nonzero;stroke:none"
           d="m 10605.8,16168.8 c -176.4,45.5 -361.5,69.8 -552.3,69.8 -64.63,0 -128.6,-2.8 -191.79,-8.2 25.39,24.1 43.9,47.3 54.54,69.6 244.05,-3 478.45,-47.1 696.45,-125.6 -2.2,-1.9 -4.5,-3.8 -6.9,-5.6" /></g><g
         transform="scale(1.97204)"
         id="g244"><path
           id="path246"
           style="fill:#dfafa7;fill-opacity:1;fill-rule:nonzero;stroke:none"
           d="m 9171.47,16224 c -19.78,4 -39.6,7.7 -59.48,11.2 -3.15,21.5 -6.04,43.1 -8.62,64.8 22.01,-26 44.72,-51.3 68.1,-76" /></g><g
         transform="scale(2.33056)"
         id="g248"><path
           id="path250"
           style="fill:#000072;fill-opacity:1;fill-rule:nonzero;stroke:none"
           d="m 9811.36,16171.3 c -1171,0 -2123.69,-952.7 -2123.69,-2123.7 0,-1171 952.69,-2123.7 2123.69,-2123.7 1170.94,0 2123.64,952.7 2123.64,2123.7 0,1171 -952.7,2123.7 -2123.64,2123.7 m 0,-4376.1 c -1241.97,0 -2252.41,1010.5 -2252.41,2252.4 0,1242 1010.44,2252.4 2252.41,2252.4 1241.94,0 2252.34,-1010.4 2252.34,-2252.4 0,-1241.9 -1010.4,-2252.4 -2252.34,-2252.4" /></g><g
         transform="scale(1.99634)"
         id="g252"><path
           id="path254"
           style="fill:#0086ff;fill-opacity:1;fill-rule:nonzero;stroke:none"
           d="m 15457.1,14731.1 c 118.3,-244.6 188.8,-500.2 214.7,-755.8 93.9,-920.8 -386.3,-1843 -1267.7,-2269.1 -965.3,-466.8 -2098.4,-187.1 -2745.2,611.8 -107.7,133 -202,280.4 -279.8,441.1 -38.6,79.9 -72.3,161 -100.5,243 -373.8,1071.1 107.3,2276.1 1153.5,2782.1 1066.7,515.8 2338.5,119.8 2932.3,-880.9 33.2,-55.4 64,-112.8 92.7,-172.2" /></g><g
         transform="scale(1.9194)"
         id="g256"><path
           id="path258"
           style="fill:#61bbff;fill-opacity:1;fill-rule:nonzero;stroke:none"
           d="m 16076.7,15321.6 c 123,-254.4 196.3,-520.2 223.3,-786.1 -186.7,-211.8 -479.6,-480.2 -815.3,-556.3 -578.4,-130.9 -1060.2,-596.3 -1252.5,-698.8 -192.5,-102.4 -1144.5,-571.4 -1458.3,-444.2 -176.8,71.7 -446.2,27.5 -647.6,-24.4 -112.1,138.3 -210.2,291.6 -291.1,458.8 -40.1,83 -75.1,167.4 -104.5,252.7 161.7,84.9 462.8,212.2 686.2,125.8 320.5,-124.2 971.7,125.6 1434,535.1 462.2,409.6 1024.4,535.9 1360.4,552.6 287.4,14.2 623,508.1 769,763.9 34.5,-57.7 66.5,-117.4 96.4,-179.1" /></g><g
         transform="scale(1.91813)"
         id="g260"><path
           id="path262"
           style="fill:#005ed4;fill-opacity:1;fill-rule:nonzero;stroke:none"
           d="m 13967,12012.4 c -253.8,0 -508.5,42.7 -755.3,128.5 -190,66.1 -367.8,155.3 -530.3,264.7 237.1,-78 486.5,-118.7 738.8,-118.7 344,0 693.4,75.6 1023.8,235.4 650.5,314.6 1091.1,888.7 1257.5,1537.8 217,100.8 407.4,268.1 550.3,420.2 23.8,-310.4 -16.5,-625.4 -121.9,-928.3 -201.3,-578.2 -615.7,-1043.4 -1166.9,-1309.9 -315.9,-152.7 -655.1,-229.7 -996,-229.7 m 1760.2,3107.2 c -38.5,186.7 -100.5,371.7 -187.2,551.1 -29.9,61.7 -62,121.4 -96.5,179.1 -99,166.8 -216.1,317.2 -347.6,450.2 356.7,-201.2 651.6,-493.8 857.2,-853.3 -58.8,-97.5 -137.2,-215.7 -225.9,-327.1" /></g><g
         transform="scale(1.91247)"
         id="g264"><path
           id="path266"
           style="fill:#4483d4;fill-opacity:1;fill-rule:nonzero;stroke:none"
           d="m 15748,14101.8 c 68.4,267 90.6,546.7 62.1,826.3 -8,78.9 -20.1,157.8 -36.3,236.3 89,111.7 167.6,230.3 226.6,328.1 26.8,-46.8 52.1,-94.7 75.8,-143.8 127.2,-263.2 202.1,-542.5 223.8,-825.5 -143.3,-152.6 -334.3,-320.3 -552,-421.4" /></g><g
         transform="scale(1.93413)"
         id="g268"><path
           id="path270"
           style="fill:#b2daff;fill-opacity:1;fill-rule:nonzero;stroke:none"
           d="m 12392.6,12441.1 c -97.9,81.5 -188.6,171.3 -271.5,268.6 10.9,5.2 21.6,10.6 32.4,15.9 28,-39.3 57.1,-77.6 87.2,-114.8 48.1,-59.4 98.8,-116 151.9,-169.7 m 624.5,3736.7 c -22.3,32.5 -45.5,64.6 -69.3,96 18.8,8.1 37.6,16 56.5,23.6 36.8,1.7 72.5,2.6 107.1,2.6 62.2,0 120.9,-2.8 175.6,-8.5 -83.7,-29.2 -166.5,-63.5 -248.2,-103 -7.2,-3.6 -14.5,-7.1 -21.7,-10.7" /></g><g
         transform="scale(1.97768)"
         id="g272"><path
           id="path274"
           style="fill:#000072;fill-opacity:1;fill-rule:nonzero;stroke:none"
           d="m 13543,16099 c -330.6,0 -659.6,-74.7 -966,-222.9 -1103.6,-533.6 -1567.2,-1865.5 -1033.6,-2969.1 258.5,-534.5 709.7,-936.4 1270.5,-1131.6 560.8,-195.2 1164,-160.4 1698.6,98.1 534.6,258.5 936.5,709.7 1131.7,1270.5 195.2,560.8 160.3,1164 -98.2,1698.6 -258.4,534.5 -709.7,936.5 -1270.4,1131.7 -239.4,83.3 -486.5,124.7 -732.6,124.7 m 3.6,-4574.8 c -260.2,0 -521.3,43.7 -774.3,131.8 -592.6,206.3 -1069.5,631 -1342.7,1196 -563.9,1166.3 -74,2574 1092.3,3138 565,273.1 1202.6,310 1795.2,103.7 592.7,-206.3 1069.6,-631.1 1342.8,-1196.1 273.2,-564.9 310,-1202.5 103.7,-1795.2 -206.3,-592.6 -631.1,-1069.5 -1196.1,-1342.7 -323.8,-156.6 -671.5,-235.5 -1020.9,-235.5" /></g><g
         transform="scale(1.96297)"
         id="g276"><path
           id="path278"
           style="fill:#00b1ff;fill-opacity:1;fill-rule:nonzero;stroke:none"
           d="m 11036,13698.6 c -52.3,-421.5 -220.1,-824 -487.1,-1158.4 -208.1,-260.6 -476.5,-479.9 -796.72,-635.1 -410.86,-198.6 -851.52,-264.3 -1273.33,-213.9 -586.36,69.8 -1136.03,363.7 -1518.36,836.2 -109.53,135.3 -205.56,285.3 -284.78,448.8 -39.22,81 -73.36,163.6 -102.14,247.1 -197.66,565.7 -160.47,1168.4 70.05,1689 155.38,350.5 397.87,663.5 715.5,903.5 118.95,89.9 248.35,169.4 387.68,236.9 306.93,148.5 630.67,222.3 950.6,229.5 811.02,17.8 1598.6,-395.6 2031.4,-1125.3 33.8,-56.6 65.2,-114.9 94.5,-175.3 120.2,-248.8 191.8,-508.7 218.3,-768.7 17.5,-172.5 15.2,-344.9 -5.6,-514.3" /></g><g
         transform="scale(1.96297)"
         id="g280"><path
           id="path282"
           style="fill:#00ff4e;fill-opacity:1;fill-rule:nonzero;stroke:none"
           d="m 11036,13698.6 c -171,-140.1 -328.9,-252.4 -449.9,-306.4 -513,-229.3 -873.4,622.3 -982.42,1353.5 -109.27,731.6 -786.06,382.1 -1004.35,781.2 -218.29,399.2 98.07,755.3 98.07,755.3 811.02,17.8 1598.6,-395.6 2031.4,-1125.3 33.8,-56.6 65.2,-114.9 94.5,-175.3 120.2,-248.8 191.8,-508.7 218.3,-768.7 17.5,-172.5 15.2,-344.9 -5.6,-514.3" /></g><g
         transform="scale(1.96922)"
         id="g284"><path
           id="path286"
           style="fill:#000072;fill-opacity:1;fill-rule:nonzero;stroke:none"
           d="m 8694.12,16180.1 c -56.01,-71.6 -251.98,-359.1 -77.55,-678.1 78.87,-144.2 226.85,-176.7 398.18,-214.4 252.95,-55.7 539.61,-118.8 608.67,-581.2 78.51,-526.6 294.54,-1132.9 600.18,-1300.4 99.9,-54.8 200.7,-58 308.2,-10 103.2,46.1 244.8,142.1 421.1,285.4 18.3,160.1 19.3,321.9 3.1,481.2 -26.5,259.7 -98.1,511.8 -212.8,749.3 -28.9,59.6 -59.9,117 -92.1,170.7 -407.9,688 -1156.61,1106.4 -1956.98,1097.5 m 1690.58,-2919.3 c -71.4,0 -141.5,18.7 -209.9,56.2 -359.22,196.8 -575.65,863.4 -651.82,1374.4 -58.76,393.3 -287.68,443.7 -530.06,497 -179.16,39.4 -364.41,80.2 -465.47,264.9 -232.02,424.3 100.96,807.1 104.36,810.9 l 14.72,16.6 22.15,0.5 c 846.58,18.7 1639.32,-420.8 2069.72,-1146.7 33.5,-56 66,-116.1 96.2,-178.4 120,-248.3 194.8,-511.8 222.4,-783.3 17.7,-173.5 15.8,-349.8 -5.7,-524 l -2.4,-20.2 -15.8,-12.9 c -190.6,-156.2 -345.3,-261.4 -459.9,-312.5 -63.5,-28.4 -126.5,-42.5 -188.5,-42.5" /></g><g
         transform="scale(1.93656)"
         id="g288"><path
           id="path290"
           style="fill:#00ff4e;fill-opacity:1;fill-rule:nonzero;stroke:none"
           d="m 7939.2,12758.7 c -124.45,340.3 -730.16,879.9 -813.3,1103.7 -82.88,224.2 -215.85,116.2 -348.56,381.9 -132.71,265.7 -42.86,871.1 -42.86,871.1 l -0.26,0.3 c 157.5,355.3 403.3,672.6 725.26,915.8 499.6,268.5 604.17,-243.5 695.56,-658.6 91.15,-415 -456.48,-647.3 -16.52,-1344.4 439.7,-697.2 -74.87,-1609.9 -199.32,-1269.8" /></g><g
         transform="scale(1.92231)"
         id="g292"><path
           id="path294"
           style="fill:#000072;fill-opacity:1;fill-rule:nonzero;stroke:none"
           d="m 8046.9,12871.1 c 9.73,-26.5 20.86,-39.1 27.57,-39.7 15.4,-0.7 57.07,24.6 104.77,101.6 136.97,220.9 251.47,734.3 -24.4,1171.7 -290.95,461 -173.38,733.5 -69.66,974 59.31,137.3 110.5,255.9 79.49,396.9 l -3.9,17.8 c -59.82,272 -127.61,580.4 -300.99,660 -82.51,37.9 -186.18,22.5 -316.86,-47 -305.68,-231.8 -550.22,-540 -707.85,-892.2 -8.53,-61.6 -79.18,-604.4 39.07,-841.1 60.97,-122 117.25,-154 176.82,-187.9 63.41,-36 128.96,-73.3 176.56,-202 34.07,-91.7 176.56,-256 327.47,-429.9 196.48,-226.6 419.24,-483.4 491.91,-682.2 m 29.08,-143.9 c -4.06,0 -8.07,0.2 -12.12,0.6 -35.69,3.7 -84.59,25.3 -114.66,107.6 v 0 c -66.12,180.7 -282.21,429.9 -472.82,649.7 -164.07,189.1 -305.77,352.4 -346.46,461.9 -34.38,93.2 -74.64,116.1 -130.36,147.7 -63.88,36.3 -143.37,81.6 -218.54,231.9 -124.74,249.9 -67.78,759.7 -51.71,882.4 l -6.97,6.9 14.26,32.9 c 165.16,372.6 423.45,698.7 746.81,943 l 6.76,4.3 c 160.75,86.4 299.74,103.9 412.99,51.8 220.52,-101.2 294.23,-436.4 359.21,-732.2 l 3.9,-17.8 c 38.18,-173.7 -24.71,-319.5 -85.52,-460.5 -98.11,-227.4 -199.61,-462.6 62.11,-877.2 301.15,-477.5 175.05,-1039.8 24.81,-1282 -61.43,-99.1 -127.45,-151 -191.69,-151" /></g><g
         transform="scale(1.52981)"
         id="g296"><path
           id="path298"
           style="fill:#ffffff;fill-opacity:1;fill-rule:nonzero;stroke:none"
           d="m 13535.8,16090.8 c -267,-334.3 -611.5,-615.7 -1022.3,-814.8 -527.2,-254.9 -1092.7,-339.2 -1633.9,-274.5 61.4,117.6 167,233.7 347.4,256.5 388.3,49.1 381.4,231.1 577.5,406.3 114.8,102.5 266.9,89.8 424.1,77.1 111.4,-8.9 225.4,-17.9 330.6,14.1 210.2,63.4 472,544.5 976.6,335.3" /></g><g
         transform="scale(1.52931)"
         id="g300"><path
           id="path302"
           style="fill:#000072;fill-opacity:1;fill-rule:nonzero;stroke:none"
           d="m 10965,15047 c 525.2,-48.8 1052.9,46.8 1531.3,278.2 374.8,181.6 698.2,433.2 962.2,748.3 -293.4,89.8 -494.8,-77.3 -658.6,-213.2 -80.9,-67.1 -150.7,-124.9 -222.4,-146.6 -114.6,-34.9 -234.5,-25.2 -350.5,-15.8 -154.1,12.4 -287.2,23.1 -385.9,-65.1 -54.4,-48.6 -92.8,-98.4 -129.8,-146.6 -92.8,-120.7 -180.4,-234.7 -474.4,-271.9 -112.3,-14.1 -203.5,-70.4 -271.9,-167.3 m 267.5,-110.5 c -118.3,0 -236.8,7.1 -355.2,21.2 l -70.5,8.4 32.9,63 c 85.6,163.8 218.6,261.5 384.9,282.6 253.5,32 322.1,121.2 409,234.3 37.8,49.3 80.9,105.2 142.1,160 130.1,116.1 297.4,102.7 459.1,89.7 106.9,-8.6 217.4,-17.6 314.3,11.9 52.8,15.9 115.5,68 188.1,128.2 185.3,153.7 439.1,364.2 821.8,205.6 l 60.2,-24.9 -40.6,-51 c -280.9,-351.7 -630.6,-630.5 -1039.6,-828.6 -410.6,-198.5 -856.3,-300.4 -1306.5,-300.4" /></g><g
         transform="scale(1.46908)"
         id="g304"><path
           id="path306"
           style="fill:#007cd4;fill-opacity:1;fill-rule:nonzero;stroke:none"
           d="m 11322.1,15709.4 c -464.4,58.5 -911,225.1 -1300.7,486.1 307.5,-100.5 630.9,-152.9 958.1,-152.8 411.4,0 828.9,82.9 1227.8,257.3 -38.3,-40.4 -68.9,-80.3 -96.8,-116.7 -90.5,-117.7 -161.9,-210.6 -425.8,-243.9 -150.1,-19 -274.2,-98.1 -362.6,-230" /></g><g
         transform="scale(1.49221)"
         id="g308"><path
           id="path310"
           style="fill:#007cd4;fill-opacity:1;fill-rule:nonzero;stroke:none"
           d="m 12697.2,16179.8 c -52.3,0 -105.7,4.3 -158.3,8.5 -2.8,0.2 -5.8,0.5 -8.7,0.7 157.9,31.6 319.5,68.6 485,111 -58.3,-47.6 -109.7,-86 -154.2,-99.5 -51.7,-15.7 -107.1,-20.7 -163.8,-20.7" /></g><g
         transform="scale(1.49759)"
         id="g312"><path
           id="path314"
           style="fill:#b2b2d4;fill-opacity:1;fill-rule:nonzero;stroke:none"
           d="m 11473,15387.4 c -83.9,0 -167.5,3.6 -250.8,10.8 66.5,79.1 151.1,125.6 252.6,138.4 300.3,37.9 389.8,154.4 484.6,277.6 37.8,49.2 76.9,100 132.5,149.7 66.4,59.5 148.2,74.9 241.3,74.9 48,0 99.1,-4.2 152.7,-8.4 55,-4.5 110.9,-9 166.6,-9 64.4,0 128.7,6 191.3,25.1 73.3,22.1 144.6,81.2 227.1,149.7 41.2,34.2 84.6,70.1 131.3,103.8 97.4,-36.8 197.2,-68.8 299,-95.6 -216.8,-208.4 -469.7,-386.6 -754.8,-524.5 -410.6,-198.5 -845.1,-292.6 -1273.4,-292.5" /></g><g
         transform="scale(1.49782)"
         id="g316"><path
           id="path318"
           style="fill:#000072;fill-opacity:1;fill-rule:nonzero;stroke:none"
           d="m 11220.5,15395.8 c -38.6,3.3 -77.2,7.4 -115.6,12.2 86.7,129.4 208.4,206.9 355.7,225.6 258.8,32.7 328.8,123.8 417.6,239.2 27.3,35.7 57.4,74.8 94.9,114.5 35.7,15.6 71.3,32 106.7,49.1 21.1,10.2 42.1,20.6 62.8,31.3 111.2,17.3 224.8,37.6 340.7,60.7 2.9,-0.2 5.9,-0.4 8.8,-0.6 52.3,-4.3 105.5,-8.5 157.7,-8.5 56.4,0 111.6,5 163.1,20.7 44.4,13.3 95.6,51.6 153.6,99 75,19.3 150.7,39.6 227,61 2.2,-0.8 4.5,-1.7 6.7,-2.5 -46.6,-33.6 -90.1,-69.6 -131.2,-103.7 -82.6,-68.5 -153.9,-127.6 -227.1,-149.7 -62.6,-19.1 -126.9,-25.1 -191.3,-25.1 -55.7,0 -111.6,4.5 -166.6,8.9 -53.6,4.3 -104.7,8.5 -152.7,8.5 -93.1,0 -174.8,-15.5 -241.2,-74.9 -55.6,-49.7 -94.8,-100.5 -132.6,-149.7 -94.7,-123.2 -184.2,-239.7 -484.4,-277.6 -101.5,-12.8 -186.1,-59.3 -252.6,-138.4" /></g><g
         transform="scale(1.74178)"
         id="g320"><path
           id="path322"
           style="fill:#b2e7ff;fill-opacity:1;fill-rule:nonzero;stroke:none"
           d="m 8232.1,13825.6 c -263.06,221.5 -484.73,500.5 -643.88,829.6 -256.86,531.3 -310.2,1109.1 -190.9,1644.8 2.64,-177.3 23.71,-362.7 86.52,-488.5 4.83,-9.6 9.59,-18.7 14.41,-27.6 -18.88,-330.9 25.55,-669 139.8,-996.3 32.38,-94 70.97,-187 115.17,-278.5 89.11,-184.2 197.27,-353.2 320.71,-505.5 50.23,-62.1 103.05,-121.5 158.17,-178" /></g><g
         transform="scale(1.95246)"
         id="g324"><path
           id="path326"
           style="fill:#b2e7ff;fill-opacity:1;fill-rule:nonzero;stroke:none"
           d="m 7845.09,15958.2 c -19.82,15.3 -41.08,28.3 -63.97,38.8 -25.41,11.7 -52.09,19.8 -80.11,24.4 37.65,20.9 76.11,40.9 115.35,59.9 264.12,127.7 541.06,199 817.27,218.7 -11.78,-20.1 -24.12,-42.7 -36.11,-67.5 -204.66,-36.3 -407.84,-101 -604.21,-196 -50.76,-24.5 -100.18,-50.6 -148.22,-78.3" /></g><g
         transform="scale(1.95314)"
         id="g328"><path
           id="path330"
           style="fill:#b2ffca;fill-opacity:1;fill-rule:nonzero;stroke:none"
           d="m 8719,16245.4 c 13.47,22.1 26.11,40.4 36.35,54.3 11.57,0.2 23.09,0.3 34.61,0.3 138.09,0 275.2,-12.7 409.81,-37.6 -2.56,-2.9 -5.12,-5.8 -7.68,-8.7 -65.23,5.6 -130.77,8.4 -196.51,8.4 -92,0 -184.32,-5.5 -276.58,-16.7" /></g><g
         transform="scale(1.9531)"
         id="g332"><path
           id="path334"
           style="fill:#b2b2d4;fill-opacity:1;fill-rule:nonzero;stroke:none"
           d="m 8594.67,16227.1 c 11.98,24.9 24.32,47.5 36.1,67.5 41.63,3 83.2,4.8 124.73,5.4 -10.24,-13.9 -22.89,-32.2 -36.36,-54.3 -41.47,-5.1 -83.04,-11.3 -124.47,-18.6" /></g><g
         transform="scale(1.9074)"
         id="g336"><path
           id="path338"
           style="fill:#b2ffca;fill-opacity:1;fill-rule:nonzero;stroke:none"
           d="m 6875.71,14668.7 c -33.03,217.8 -7.29,496.5 6.39,614 162.48,385.1 429.38,727.7 784.11,980.4 58.51,24.6 110.99,36.9 158.22,36.9 35.08,0 67.27,-6.8 96.79,-20.4 3.35,-1.5 6.65,-3.1 9.96,-4.8 -120.64,-77.6 -232.21,-164.8 -334.33,-260.1 -31.09,-29 -40.69,-73.6 -26.01,-113.5 40.53,-110.4 -17.46,-325.3 -154.03,-535.8 -126.87,-195.4 -284.89,-330.5 -400.81,-355.2 -38.17,-8.1 -68.73,-36 -79.53,-73.5 -25.32,-88 -45.67,-177.5 -60.76,-268" /></g><g
         transform="scale(1.91909)"
         id="g340"><path
           id="path342"
           style="fill:#b2b2d4;fill-opacity:1;fill-rule:nonzero;stroke:none"
           d="m 6805.48,14325.6 c -4.38,8 -8.7,16.4 -13.08,25.1 -57.01,114.1 -76.13,282.4 -78.53,443.3 30.18,135.5 72.49,267.9 126.31,395.6 -13.6,-116.7 -39.18,-393.8 -6.35,-610.3 -13.97,-83.8 -23.45,-168.5 -28.35,-253.7 m 814.03,1838.4 c 68.58,48.9 140.38,94.3 215.42,136 28.5,-4.7 55.65,-12.9 81.5,-24.8 23.29,-10.7 44.91,-24 65.08,-39.5 -33.51,-19.3 -66.44,-39.3 -98.64,-60.1 -3.28,1.7 -6.57,3.4 -9.9,4.9 -29.34,13.5 -61.33,20.2 -96.19,20.2 -46.95,0 -99.11,-12.2 -157.27,-36.7" /></g><g
         transform="scale(2.00849)"
         id="g344"><path
           id="path346"
           style="fill:#000072;fill-opacity:1;fill-rule:nonzero;stroke:none"
           d="m 8547.73,15850.8 c -319.29,0 -643.22,-70.1 -949.42,-218.1 -1086.64,-525.5 -1543.15,-1837 -1017.73,-2923.6 525.47,-1086.6 1836.91,-1543.1 2923.55,-1017.7 1086.67,525.5 1543.17,1837 1017.77,2923.6 -377.4,780.4 -1160.37,1235.8 -1974.17,1235.8 m 7.17,-4502 c -860.15,0 -1687.49,481.3 -2086.35,1306.2 -555.34,1148.3 -72.84,2534.4 1075.54,3089.7 1148.38,555.3 2534.41,72.9 3089.81,-1075.5 555.3,-1148.4 72.8,-2534.5 -1075.55,-3089.8 -323.58,-156.5 -666.08,-230.6 -1003.45,-230.6" /></g><g
         transform="scale(2.0349)"
         id="g348"><path
           id="path350"
           style="fill:#ffc524;fill-opacity:1;fill-rule:nonzero;stroke:none"
           d="m 12703.6,14106.6 c 0,-1211.4 -982,-2193.5 -2193.4,-2193.5 -1211.4,0 -2193.41,982.1 -2193.41,2193.5 0,1211.4 982.01,2193.4 2193.41,2193.4 1211.4,0 2193.4,-982 2193.4,-2193.4" /></g><g
         transform="scale(1.89506)"
         id="g352"><path
           id="path354"
           style="fill:#ff8500;fill-opacity:1;fill-rule:nonzero;stroke:none"
           d="m 13235.1,14436.2 c -611.8,234.1 -1201.7,521.3 -1816.1,749.1 -538.4,199.6 -1052,458.8 -1551.13,741.4 -214.09,121.1 -425.64,246.6 -636.45,373.3 -187.27,-333.1 -295.87,-716.3 -300.62,-1124.6 64.54,-28.5 129.44,-56.5 194.24,-84.7 901.96,-393.4 1820.86,-753.7 2770.46,-1015.8 429.3,-118.5 870.4,-260 1318.6,-279.8 117.4,167 213.7,350 284.9,545 -88.3,30.7 -176.3,62.6 -263.9,96.1" /></g><g
         transform="scale(1.96601)"
         id="g356"><path
           id="path358"
           style="fill:#ff8500;fill-opacity:1;fill-rule:nonzero;stroke:none"
           d="m 9083.9,15991.4 c 418.26,-250.9 840.43,-496.1 1278.8,-710.5 503.8,-246.4 1034.5,-427.3 1549.4,-648.4 393.8,-169.2 786.2,-345.8 1190.7,-488.4 30.1,147.5 46,300.3 46,456.8 0,159.9 -16.6,315.9 -48.1,466.4 -421.1,94.1 -830,242 -1239.2,377.2 -558.5,184.5 -1118.7,362.3 -1671.7,563 -265.82,96.4 -528.03,201.8 -797.82,286.7 -6.35,2 -12.71,3.8 -19.02,5.8 -105.59,-93.6 -202.44,-196.9 -289.06,-308.6" /></g><g
         transform="scale(1.71885)"
         id="g360"><path
           id="path362"
           style="fill:#ff8500;fill-opacity:1;fill-rule:nonzero;stroke:none"
           d="m 12843.3,15195.7 c -541.3,156.7 -1074.4,341.2 -1600.9,542.1 -460.3,175.5 -913.2,367.9 -1365.7,562.2 192.5,-1244.1 1268,-2196.4 2566,-2196.4 711.3,0 1355.7,286.1 1824.7,749.4 -483.1,62.5 -958.4,207.9 -1424.1,342.7" /></g><g
         transform="scale(1.59422)"
         id="g364"><path
           id="path366"
           style="fill:#bd9424;fill-opacity:1;fill-rule:nonzero;stroke:none"
           d="m 14913.3,16096.8 c -110.6,24.1 -220.9,50.9 -330.7,79.4 7,3.6 14.1,7.2 21.1,10.8 177.8,20.3 350.1,58.6 515.1,113 -65,-71.1 -133.6,-139 -205.5,-203.2" /></g><g
         transform="scale(1.92202)"
         id="g368"><path
           id="path370"
           style="fill:#bd9424;fill-opacity:1;fill-rule:nonzero;stroke:none"
           d="m 10478.6,13917.1 c -142.1,50.9 -283.6,103.4 -424.5,157.1 -325.04,124 -646.01,257.4 -965.88,393.5 -32.83,129.3 -54.78,263 -64.93,399.9 328.98,-143.2 660.14,-281.8 994.41,-412.6 123.3,-203.8 279.4,-385.5 460.9,-537.9 m -767.13,1796.4 c -163.94,93 -326.43,188.6 -488.29,285.3 47.56,104.8 102.65,205.4 164.62,301.2 125.7,-75 251.87,-149.4 378.77,-222.4 -28.35,-117.9 -47.03,-239.5 -55.1,-364.1" /></g><g
         transform="scale(1.88649)"
         id="g372"><path
           id="path374"
           style="fill:#bd670b;fill-opacity:1;fill-rule:nonzero;stroke:none"
           d="m 10206.3,14727.2 c -340.54,133.2 -677.94,274.4 -1013.11,420.3 -4.29,58.4 -6.47,117.2 -6.47,176.6 0,348 75.17,678.4 210.13,975.9 164.91,-98.5 330.45,-195.9 497.48,-290.6 -3.13,-47.8 -4.66,-96 -4.66,-144.5 0,-416.4 115.63,-805.8 316.63,-1137.7" /></g><g
         transform="scale(1.99181)"
         id="g376"><path
           id="path378"
           style="fill:#bd9424;fill-opacity:1;fill-rule:nonzero;stroke:none"
           d="m 9593.86,15972.2 c -89.02,32.4 -178.28,63.9 -268.4,93.3 6.07,6.3 12.1,12.5 18.22,18.7 96.3,80.4 199.72,152.7 309.07,215.8 39.16,-14 78.27,-28.1 117.33,-42.4 -66.02,-89.9 -125.06,-185.3 -176.22,-285.4" /></g><g
         transform="scale(1.96315)"
         id="g380"><path
           id="path382"
           style="fill:#bd670b;fill-opacity:1;fill-rule:nonzero;stroke:none"
           d="m 9561.93,15740.7 c -124.24,71.5 -247.76,144.3 -370.83,217.8 79.21,122.4 169.93,236.8 270.48,341.5 91.44,-29.8 182.01,-61.7 272.32,-94.6 -74.62,-145.9 -132.74,-301.6 -171.97,-464.7" /></g><g
         transform="scale(1.70596)"
         id="g384"><path
           id="path386"
           style="fill:#bd670b;fill-opacity:1;fill-rule:nonzero;stroke:none"
           d="m 12261.1,14379.9 c -84.3,16.8 -167.2,37.7 -248.4,62.4 457.7,151 935.8,344 1418,577.1 66.3,32 131.8,64.5 196.7,97.3 102.7,-26.7 205.7,-51.7 309.1,-74.2 -447.3,-399.1 -1032.6,-646.8 -1675.4,-662.6 m -1329.2,709.2 c -330.9,328.4 -574.3,744.7 -692.7,1210.9 360.4,-153.4 722,-303.6 1088.2,-443.3 158.8,-60.6 318.2,-119.7 478.2,-177.1 108.6,-91.1 225.1,-172.9 348.6,-244.2 -441.8,-164.2 -858.1,-281 -1222.3,-346.3" /></g><g
         transform="scale(2.0349)"
         id="g388"><path
           id="path390"
           style="fill:#ff8500;fill-opacity:1;fill-rule:nonzero;stroke:none"
           d="m 9765.46,15838.4 c 528.94,-198 1065.74,-374.5 1603.24,-547.6 392.1,-126.2 780.9,-270.4 1180.1,-373.4 -322.4,810 -1113.6,1382.6 -2038.6,1382.6 -416.8,0 -806.46,-116.3 -1138.32,-318.1 131.65,-46.1 262.51,-94.4 393.58,-143.5" /></g><g
         transform="scale(1.50237)"
         id="g392"><path
           id="path394"
           style="fill:#b59dd9;fill-opacity:1;fill-rule:nonzero;stroke:none"
           d="m 14932,16132.5 v 0.2 c 175.4,41.1 345.2,97.4 507.7,167.3 2.3,-2.8 4.6,-5.6 6.9,-8.4 -164.5,-67.9 -336.7,-121.5 -514.6,-159.1" /></g><g
         transform="scale(1.48695)"
         id="g396"><path
           id="path398"
           style="fill:#9999c7;fill-opacity:1;fill-rule:nonzero;stroke:none"
           d="m 15075.5,16297.4 c 3.8,0.9 7.4,1.7 11.3,2.6 v -0.3 c -3.7,-0.8 -7.5,-1.5 -11.3,-2.3" /></g><g
         transform="scale(1.67584)"
         id="g400"><path
           id="path402"
           style="fill:#99cfff;fill-opacity:1;fill-rule:nonzero;stroke:none"
           d="m 14026.6,14687 c -2.4,3.4 -4.8,6.8 -7.2,10.2 7.5,3.8 14.9,7.7 22.3,11.6 14.1,2.8 28.3,5.4 42.6,8 -19.1,-10.1 -38.3,-20.1 -57.7,-29.8 m 1115.7,1089.9 c 92,161.3 168,332.7 226,512.3 5.1,3.6 10,7.2 15,10.8 -53.7,-178.8 -125.9,-349.8 -214,-510.6 -9,-4.2 -18,-8.4 -27,-12.5" /></g><g
         transform="scale(1.62334)"
         id="g404"><path
           id="path406"
           style="fill:#c0e4ff;fill-opacity:1;fill-rule:nonzero;stroke:none"
           d="m 14495.8,15184.5 c 475,252.2 870.2,636.1 1136.2,1102.6 9.3,4.2 18.5,8.5 27.8,12.9 -257.3,-469.3 -647.5,-855.2 -1120.1,-1107.3 -14.7,-2.6 -29.4,-5.3 -43.9,-8.2" /></g><g
         transform="scale(1.51105)"
         id="g408"><path
           id="path410"
           style="fill:#e0f0ff;fill-opacity:1;fill-rule:nonzero;stroke:none"
           d="m 15514.9,16268.3 c -2.9,3.4 -5.8,6.8 -8.7,10.2 14.2,7.1 28.1,14.2 42.1,21.5 2.7,-3.8 5.4,-7.5 8,-11.3 -13.7,-6.9 -27.5,-13.7 -41.4,-20.4" /></g><g
         transform="scale(1.50906)"
         id="g412"><path
           id="path414"
           style="fill:#9999c7;fill-opacity:1;fill-rule:nonzero;stroke:none"
           d="m 15378.2,16219.4 c -2.4,2.8 -4.7,5.6 -6.9,8.4 52.5,22.6 104.4,46.8 155.4,72.2 2.9,-3.4 5.8,-6.8 8.7,-10.2 -51.7,-25 -104,-48.4 -157.2,-70.4" /></g><g
         transform="scale(1.60898)"
         id="g416"><path
           id="path418"
           style="fill:#ffe8a7;fill-opacity:1;fill-rule:nonzero;stroke:none"
           d="m 14980.1,16150.5 c 44.1,48.3 86.4,98.2 127.1,149.5 58.9,-10.3 117.8,-19.5 176.9,-27.2 -98.1,-46.9 -199.6,-87.9 -304,-122.3" /></g><g
         transform="scale(1.65939)"
         id="g420"><path
           id="path422"
           style="fill:#ffce99;fill-opacity:1;fill-rule:nonzero;stroke:none"
           d="m 14819.8,15778.5 c -57.2,7.5 -114.4,16.4 -171.5,26.4 37.5,47.4 73.5,96.2 107.8,146 191.1,114 374.4,230.7 548.7,349.1 -54.4,-131.1 -119.1,-256.8 -193.2,-376.2 -43.3,-21.7 -87.1,-42.3 -131.8,-61.6 h 0.1 c -52.2,-29.7 -105.5,-57.7 -160.1,-83.7" /></g><g
         transform="scale(1.50694)"
         id="g424"><path
           id="path426"
           style="fill:#ffce99;fill-opacity:1;fill-rule:nonzero;stroke:none"
           d="m 14192.5,16169.9 c -277.9,0 -546.7,39.5 -801.1,113.3 17.8,5.6 35.8,11.2 53.7,16.8 118.3,-14.4 238.7,-21.8 361,-21.8 24.9,0 49.6,0.3 74.4,0.9 188.1,-37.5 382.8,-57.1 582,-57.1 136.4,0 270.5,9.2 402,27 -215.7,-51.7 -440.6,-79.1 -672,-79.1" /></g><g
         transform="scale(1.60629)"
         id="g428"><path
           id="path430"
           style="fill:#e5d4a7;fill-opacity:1;fill-rule:nonzero;stroke:none"
           d="m 15168,15907.7 c -122.8,18.5 -245,41.7 -366.8,68.1 71.4,63.7 139.5,131.1 204,201.7 104.5,34.5 206.2,75.5 304.4,122.5 62.3,-8.2 124.6,-14.8 187.1,-19.4 -98,-134.2 -208.2,-259.1 -328.7,-372.9" /></g><g
         transform="scale(1.62109)"
         id="g432"><path
           id="path434"
           style="fill:#e5c29d;fill-opacity:1;fill-rule:nonzero;stroke:none"
           d="m 15355.2,16132 c -61.9,4.6 -123.6,11.1 -185.3,19.2 55.8,26.7 110.4,55.3 163.9,85.8 l -0.1,-0.1 c 45.7,19.7 90.6,40.8 134.8,63.1 -35.6,-57.5 -73.4,-113.6 -113.3,-168" /></g><g
         transform="scale(1.57435)"
         id="g436"><path
           id="path438"
           style="fill:#e5c29d;fill-opacity:1;fill-rule:nonzero;stroke:none"
           d="m 13843.2,15527.4 c -190.6,0 -377,18.8 -557.1,54.7 696.6,17.1 1330.7,285.5 1815.4,717.9 124.3,-27 249,-50.7 374.3,-69.6 -344.3,-325.2 -772.3,-563 -1247.8,-677.1 -125.8,-17.1 -254.2,-25.9 -384.8,-25.9" /></g><g
         transform="scale(1.87137)"
         id="g440"><path
           id="path442"
           style="fill:#ffe8a7;fill-opacity:1;fill-rule:nonzero;stroke:none"
           d="m 13691.2,15846 c -74.9,17.8 -149.5,37.1 -223.8,57.6 -23.6,136.5 -58.9,268.9 -104.7,396.4 66.8,-20 133.8,-39.2 201.1,-57.5 53.8,-126.8 96.7,-259.4 127.4,-396.5" /></g><g
         transform="scale(1.82585)"
         id="g444"><path
           id="path446"
           style="fill:#ffce99;fill-opacity:1;fill-rule:nonzero;stroke:none"
           d="m 13838.2,15810 c 0.6,23 1,46.3 1,69.5 0,143.4 -12.4,283.9 -36.1,420.5 76.2,-21 152.6,-40.8 229.4,-59 16.4,-73.5 29.4,-148 38.8,-223.8 -71.4,-68.2 -149.3,-137.4 -233.1,-207.2" /></g><g
         transform="scale(1.98336)"
         id="g448"><path
           id="path450"
           style="fill:#ffce99;fill-opacity:1;fill-rule:nonzero;stroke:none"
           d="m 12797.9,15325.4 c -63.5,17.2 -126.7,35.3 -189.8,54.2 -128.4,357.4 -344.8,672.9 -623,920.4 358.2,-236.4 643.2,-575.4 812.8,-974.6" /></g><g
         transform="scale(2.04256)"
         id="g452"><path
           id="path454"
           style="fill:#000072;fill-opacity:1;fill-rule:nonzero;stroke:none"
           d="m 10470.8,16177.6 c -1171.21,0 -2124.03,-952.8 -2124.03,-2124 0,-1171.2 952.82,-2124 2124.03,-2124 1171.1,0 2124,952.8 2124,2124 0,1171.2 -952.9,2124 -2124,2124 m 0,-4370.4 c -1238.72,0 -2246.43,1007.7 -2246.43,2246.4 0,1238.7 1007.71,2246.4 2246.43,2246.4 1238.6,0 2246.4,-1007.7 2246.4,-2246.4 0,-1238.7 -1007.8,-2246.4 -2246.4,-2246.4" /></g><g
         transform="scale(2.01286)"
         id="g456"><path
           id="path458"
           style="fill:#ffb600;fill-opacity:1;fill-rule:nonzero;stroke:none"
           d="m 12388.1,15652.6 c 428.8,37.9 731.6,-32.8 824.4,-224.7 212.1,-438.7 -753.3,-1344.3 -2156.3,-2022.8 -1402.95,-678.4 -2712.23,-872.8 -2924.37,-434.1 -92.16,190.5 37.81,469.1 329.19,778.9 l -52.27,549.5 c -909.7,-722.6 -1390.41,-1471.6 -1159.05,-1950 350.35,-724.6 2200.91,-554.4 4133.3,380 1932.4,934.5 3214.9,2279.3 2864.5,3003.9 -231.3,478.4 -1116.9,566.7 -2248.3,302.4 l 388.9,-383.1" /></g><g
         transform="scale(1.94398)"
         id="g460"><path
           id="path462"
           style="fill:#b27f22;fill-opacity:1;fill-rule:nonzero;stroke:none"
           d="m 8666.74,12321.9 c -584.67,0 -1006.33,150.8 -1158.91,462.3 17.75,-36.2 39.25,-70.1 64.05,-101.9 -8.34,30.8 -14.3,62.5 -17.85,95 211.42,-167.7 553.65,-249.6 984.42,-249.6 817.6,0 1954.05,295 3119.25,858.5 1837.3,888.5 3106.9,2135.1 3021.3,2913.8 42.4,-33.6 79.5,-70.7 111,-111.3 v 0 0 c -9.3,34.5 -21.5,68.1 -36.9,100.3 39.7,-82.7 58.9,-173.2 58.9,-270 0.3,-542.9 -600.6,-1285.4 -1563.5,-1976.6 -60.1,-43.2 -121.5,-86.1 -184.3,-128.7 -148.8,-101 -305.3,-200.7 -468.4,-298 -60.5,-36.1 -121.9,-71.8 -184.2,-107.2 -146.2,-83 -297.2,-164.1 -452.7,-242.7 -56.9,-28.8 -114.5,-57.2 -172.6,-85.4 -423.2,-204.6 -842.7,-373.9 -1244.4,-506.4 -54.2,-17.9 -107.7,-35 -161.2,-51.6 -72.3,-22.3 -144.2,-43.5 -215.2,-63.4 -58.8,-16.6 -117.2,-32.2 -174.93,-47 -127.06,-32.6 -251.13,-61 -372.33,-85.2 -89.3,-17.9 -176.85,-33.5 -262.5,-46.9 -25.62,-4 -51.23,-7.8 -76.49,-11.4 -218.78,-31 -424.03,-46.6 -612.51,-46.6" /></g><g
         transform="scale(1.52478)"
         id="g464"><path
           id="path466"
           style="fill:#b27f22;fill-opacity:1;fill-rule:nonzero;stroke:none"
           d="m 9571.55,16299.7 c -0.07,0.2 -0.07,0.2 -0.13,0.3 0.06,-0.1 0.13,-0.2 0.13,-0.3" /></g><g
         transform="scale(1.52489)"
         id="g468"><path
           id="path470"
           style="fill:#b27f22;fill-opacity:1;fill-rule:nonzero;stroke:none"
           d="m 9570.2,16299.9 v 0.1 c 0,-0.1 0,-0.1 0,-0.1" /></g><g
         transform="scale(1.52512)"
         id="g472"><path
           id="path474"
           style="fill:#007cd4;fill-opacity:1;fill-rule:nonzero;stroke:none"
           d="m 9568.19,16298.8 c -0.2,0.3 -0.4,0.8 -0.59,1.2 0.19,-0.4 0.39,-0.9 0.59,-1.2" /></g><g
         transform="scale(1.94287)"
         id="g476"><path
           id="path478"
           style="fill:#b27f22;fill-opacity:1;fill-rule:nonzero;stroke:none"
           d="m 14761.5,16298.6 c -0.3,0.4 -0.5,0.9 -0.8,1.4 v 0 0 c 0.2,-0.5 0.5,-1 0.8,-1.4" /></g><g
         transform="scale(1.94303)"
         id="g480"><path
           id="path482"
           style="fill:#000072;fill-opacity:1;fill-rule:nonzero;stroke:none"
           d="m 14758.9,16299.8 c 0,0.1 -0.1,0.2 -0.1,0.2 0.1,-0.1 0.1,-0.1 0.1,-0.2" /></g><g
         transform="scale(1.9427)"
         id="g484"><path
           id="path486"
           style="fill:#b2b2d4;fill-opacity:1;fill-rule:nonzero;stroke:none"
           d="m 14762.8,16299.8 c 0,0.1 0,0.1 0,0.2 0,-0.1 0,-0.1 0,-0.2" /></g><g
         transform="scale(1.94302)"
         id="g488"><path
           id="path490"
           style="fill:#ffe9b2;fill-opacity:1;fill-rule:nonzero;stroke:none"
           d="m 14759.6,16298.8 c -0.2,0.4 -0.4,0.8 -0.5,1.2 0.2,-0.4 0.3,-0.8 0.5,-1.2" /></g><g
         transform="scale(1.99833)"
         id="g492"><path
           id="path494"
           style="fill:#ffe9b2;fill-opacity:1;fill-rule:nonzero;stroke:none"
           d="m 14350.4,15849 c -26,53.4 -60.6,101.8 -102.3,145.6 16,-44 26.5,-90.1 31.7,-137.9 -205.6,163.2 -538.5,242.9 -957.7,242.9 -309.2,0 -665.3,-43.4 -1051.7,-128.6 l -183.9,181.2 c 419,97.9 804.3,147.8 1136,147.8 569.4,0 980,-147.2 1127.9,-451" /></g><g
         transform="scale(1.96089)"
         id="g496"><path
           id="path498"
           style="fill:#e8d8bc;fill-opacity:1;fill-rule:nonzero;stroke:none"
           d="m 14662.5,16049.1 c -31.2,40.2 -68,77 -110,110.4 -5.4,48.7 -16.1,95.7 -32.3,140.5 42.5,-44.7 77.7,-93.9 104.2,-148.4 0,0 0.1,-0.1 0.1,-0.2 0.2,-0.4 0.4,-0.8 0.6,-1.2 v 0 c 0.3,-0.4 0.5,-0.9 0.7,-1.4 0.1,-0.1 0.1,-0.1 0.1,-0.2 15.3,-32 27.4,-65.2 36.6,-99.5" /></g><g
         transform="scale(1.75956)"
         id="g500"><path
           id="path502"
           style="fill:#b2e7ff;fill-opacity:1;fill-rule:nonzero;stroke:none"
           d="m 8227.41,14427.5 c -0.06,66.7 8.18,136.2 24.21,208 v 0 c -16.03,-71.8 -24.27,-141.3 -24.21,-208 m 662.89,1261.2 v 0 c 185.5,201.8 405.95,407.2 656.87,611.3 v 0 c -250.92,-204.1 -471.37,-409.5 -656.87,-611.3" /></g><g
         transform="scale(1.6835)"
         id="g504"><path
           id="path506"
           style="fill:#b2ffca;fill-opacity:1;fill-rule:nonzero;stroke:none"
           d="m 8663.19,15433.6 v 0 c 91.06,267.9 276.74,562.2 541.54,866.4 v 0 c -264.8,-304.2 -450.48,-598.5 -541.54,-866.4" /></g><g
         transform="scale(1.69357)"
         id="g508"><path
           id="path510"
           style="fill:#b2b2d4;fill-opacity:1;fill-rule:nonzero;stroke:none"
           d="m 8573.13,15205.8 v 0 c 9.98,44.5 22.85,89.9 38.56,136 v 0 c -15.71,-46.1 -28.58,-91.5 -38.56,-136 m 576.89,997.3 v 0 c 27.99,32.2 56.92,64.5 86.68,96.9 v 0 c -29.76,-32.4 -58.69,-64.7 -86.68,-96.9" /></g><g
         transform="scale(1.76581)"
         id="g512"><path
           id="path514"
           style="fill:#b2b2d4;fill-opacity:1;fill-rule:nonzero;stroke:none"
           d="m 9613.27,16004.7 -28.09,295.3 28.09,-295.3 v 0 m -99.9,237.6 v 0 c 21.69,17.6 43.66,35.3 65.75,52.9 -22.09,-17.6 -44.06,-35.3 -65.75,-52.9" /></g><g
         transform="scale(1.76581)"
         id="g516"><path
           id="path518"
           style="fill:#ffe9b2;fill-opacity:1;fill-rule:nonzero;stroke:none"
           d="m 8316.24,14066.5 c -27.8,22 -53.51,45.4 -77.07,70.1 7.19,-19.8 15.12,-39.3 24.29,-58.4 -10.08,20.9 -18.97,42.3 -26.67,64.2 -25.88,73.3 -38.51,151.6 -38.51,234 -0.06,66.5 8.15,135.8 24.12,207.3 9.57,42.7 21.92,86.2 36.98,130.5 86.82,255.5 263.85,536 516.31,826 26.84,30.9 54.59,61.9 83.14,93 184.84,201 404.51,405.7 654.54,609.1 21.69,17.6 43.66,35.3 65.75,52.9 2.04,1.6 4.08,3.2 6.06,4.8 v 0 l 28.09,-295.3 C 8756.66,15304.5 8258.59,14589.6 8316.24,14066.5" /></g><g
         transform="scale(1.525)"
         id="g520"><path
           id="path522"
           style="fill:#b2e7ff;fill-opacity:1;fill-rule:nonzero;stroke:none"
           d="m 9570.56,16296.6 c -0.13,0.3 -0.27,0.5 -0.4,0.8 0.13,-0.2 0.33,-0.6 0.4,-0.8 m -0.53,1 c -0.13,0.4 -0.32,0.8 -0.52,1.1 0.2,-0.3 0.39,-0.7 0.52,-1.1 m -0.52,1.2 c -0.2,0.4 -0.39,0.8 -0.59,1.2 v 0 0 c 0.2,-0.5 0.39,-0.8 0.59,-1.2" /></g><g
         transform="scale(1.53145)"
         id="g524"><path
           id="path526"
           style="fill:#e8d8bc;fill-opacity:1;fill-rule:nonzero;stroke:none"
           d="m 9611.56,16098.6 c -31.47,40.4 -58.77,83.4 -81.3,129.4 -0.06,0.2 -0.26,0.6 -0.39,0.8 0,0 -0.07,0.2 -0.13,0.2 -0.13,0.4 -0.33,0.7 -0.52,1.1 0,0 0,0 0,0.1 -0.2,0.4 -0.39,0.7 -0.59,1.2 -0.2,0.4 -0.39,0.8 -0.59,1.2 -10.58,22 -19.72,44.5 -28.01,67.4 27.16,-28.5 56.81,-55.4 88.87,-80.8 4.5,-41.3 12.08,-81.5 22.66,-120.6" /></g><g
         transform="scale(2.02268)"
         id="g528"><path
           id="path530"
           style="fill:#000072;fill-opacity:1;fill-rule:nonzero;stroke:none"
           d="m 8317.3,14109.7 c -847.49,-696.9 -1247.71,-1378.6 -1047.18,-1793.4 154.35,-319.1 666.39,-463.2 1404.97,-395.3 769.67,70.7 1702.21,355.7 2625.71,802.3 923.6,446.6 1726,1000.6 2259.4,1560 511.8,536.7 716.8,1027.5 562.5,1346.7 -200.6,414.9 -984.3,524.5 -2057.7,292.4 l 286.1,-281.8 c 458.3,35.9 752.9,-54 852.8,-260.8 114.9,-237.5 -56.8,-588.7 -483.4,-988.9 -409.8,-384.4 -1010.3,-777.3 -1691.1,-1106.5 -680.7,-329.2 -1361.61,-555.9 -1917.26,-638.4 -578.64,-85.8 -960.56,-2.4 -1075.41,235.2 -99.27,205.2 11.02,489.7 319.08,823.7 z m 11.42,-2329.1 c -607.51,0 -1017.47,166.7 -1169.84,481.9 -237.55,491.3 200.03,1244.9 1170.63,2015.9 l 89.19,70.9 65.41,-688.2 -19.14,-20.4 c -280.37,-298 -392.94,-548.7 -317,-705.8 171.65,-354.8 1348.81,-254.4 2827.73,460.8 1478.8,715.1 2288.6,1575.5 2117,1930.4 -76.6,158.4 -346.3,225.5 -759.3,189 l -28.5,-2.6 -487.2,480 109.2,25.5 c 1207.1,282 2069.5,157.1 2307.1,-334.2 180.6,-373.6 -26.9,-901.3 -584.4,-1485.8 -543.4,-569.9 -1358.4,-1133.1 -2295,-1586 -936.5,-452.9 -1884.13,-742 -2668.24,-814.1 -125.72,-11.6 -245.07,-17.3 -357.64,-17.3" /></g><g
         transform="scale(1.55412)"
         id="g532"><path
           id="path534"
           style="fill:#000072;fill-opacity:1;fill-rule:nonzero;stroke:none"
           d="m 16208,9764.39 c -12.8,0 -25.8,3.02 -37.8,9.52 -699.1,374.19 -1137.5,1361.79 -1155.9,1403.59 -17.8,40.8 0.7,88.1 41.5,106 40.6,17.8 88,-0.7 105.9,-41.4 4.2,-9.7 434.8,-978.6 1084.4,-1326.37 39.1,-20.98 53.9,-69.69 32.9,-108.87 -14.5,-27.09 -42.3,-42.47 -71,-42.47" /></g><g
         transform="scale(1.53056)"
         id="g536"><path
           id="path538"
           style="fill:#ffffff;fill-opacity:1;fill-rule:nonzero;stroke:none"
           d="m 15774.9,11616.3 c 11.6,-32.8 21.2,-70.8 28.1,-114.9 0,0 248.5,7 182,-287 0,0 315,-262.6 -112,-493.6 -427,-230.9 -367.5,196 -367.5,196 0,0 -210.4,-3.4 -231.3,266.1 0,0 -482.7,105.4 101.1,550.4 138.1,105.1 341.7,46.6 399.6,-117" /></g><g
         transform="scale(1.50149)"
         id="g540"><path
           id="path542"
           style="fill:#300892;fill-opacity:1;fill-rule:nonzero;stroke:none"
           d="m 16295,11433.6 c 0.3,1.2 0.5,2.3 0.7,3.4 -0.2,-1.1 -0.4,-2.2 -0.7,-3.4 m 0.9,4.2 c 0.7,3.1 1.3,6.2 1.9,9.4 -0.6,-3.2 -1.2,-6.3 -1.9,-9.4 m 3,14.8 c 0,0.1 0,0.2 0,0.2 0,0 0,-0.1 0,-0.2 m 0,0.2 c 0,0.3 0.1,0.6 0.2,0.9 -0.1,-0.3 -0.2,-0.6 -0.2,-0.9 m 1.1,6.3 v 0 0 m -182.4,264.8 v 0 0 m -3.9,0.1 c -0.1,0 -0.2,0 -0.4,0 0.2,0 0.3,0 0.4,0 m -0.4,0 c -1.2,0.1 -2.1,0.1 -2.8,0.1 v 0 c 0.7,0 1.6,0 2.8,-0.1 m -4.3,0.1 c 0,0 0.5,0 1.5,0 -1,0 -1.5,0 -1.5,0 m -28.6,117.1 c -0.2,0.6 -0.4,1.2 -0.6,1.8 0.2,-0.6 0.4,-1.2 0.6,-1.8" /></g><g
         transform="scale(1.44374)"
         id="g544"><path
           id="path546"
           style="fill:#000072;fill-opacity:1;fill-rule:nonzero;stroke:none"
           d="m 16294.9,12435 v 0 0 m 1.7,1.3 c 0.2,0.1 0.4,0.3 0.6,0.5 -0.2,-0.2 -0.5,-0.4 -0.6,-0.5 m 1.7,1.3 c 0.5,0.4 1.1,0.8 1.7,1.3 -0.6,-0.4 -1.2,-0.9 -1.7,-1.3" /></g><g
         transform="scale(1.45425)"
         id="g548"><path
           id="path550"
           style="fill:#b2b2d4;fill-opacity:1;fill-rule:nonzero;stroke:none"
           d="m 16209.1,12367 v 0 c 28.8,17.1 59.6,28.1 90.9,33.5 v 0 c -31.3,-5.4 -62.1,-16.4 -90.9,-33.5" /></g><g
         transform="scale(1.46539)"
         id="g552"><path
           id="path554"
           style="fill:#000072;fill-opacity:1;fill-rule:nonzero;stroke:none"
           d="m 16300,12299.1 c -25.1,7.4 -51.2,11.2 -77.5,11.2 -15.5,0 -31,-1.3 -46.4,-4 v 0 c 15.4,2.7 30.9,4 46.4,4 26.3,0 52.4,-3.8 77.5,-11.2" /></g><g
         transform="scale(1.44614)"
         id="g556"><path
           id="path558"
           style="fill:#000072;fill-opacity:1;fill-rule:nonzero;stroke:none"
           d="m 16272.9,12418.2 c 8.8,6.7 17.8,12.7 27.1,18.2 v 0 c -9.3,-5.5 -18.3,-11.5 -27.1,-18.2" /></g><g
         transform="scale(1.5115)"
         id="g560"><path
           id="path562"
           style="fill:#b2b2d4;fill-opacity:1;fill-rule:nonzero;stroke:none"
           d="m 16065.7,10852.2 c 112.1,179.9 -77.6,338.2 -77.6,338.2 64.3,284.2 -162.1,290.6 -182.8,290.6 -1,0 -1.5,0 -1.5,0 -6.9,44.7 -16.7,83.2 -28.4,116.4 -38.5,108.9 -140.8,171.6 -246,171.6 -42.6,0 -85.6,-10.2 -125.1,-31.8 41.1,42.6 93.3,89.1 160.1,140.3 v 0 c 0.5,0.4 1,0.8 1.6,1.2 0.1,0.1 0.4,0.3 0.5,0.5 0.4,0.2 0.7,0.5 1.1,0.8 0.5,0.4 1.1,0.8 1.6,1.2 v 0 0 c 8.4,6.4 17.1,12.2 25.9,17.4 27.8,16.4 57.4,27 87.5,32.2 14.9,2.6 29.9,3.9 44.9,3.9 25.5,0 50.8,-3.7 75.2,-10.8 75.5,-22.2 141,-77.7 170.5,-159.3 0.2,-0.6 0.4,-1.2 0.6,-1.8 v 0 c 11.8,-33.2 21.5,-71.7 28.5,-116.4 v 0 c 0,0 0.5,0 1.4,0 0.1,0 0.1,0 0.1,0 0.7,0 1.6,0 2.7,0 h 0.1 c 0.1,0 0.2,0 0.4,0 1,0 2.4,-0.1 3.8,-0.2 h 0.1 c 42.1,-2 222,-24.3 181.1,-263 v 0 c -0.2,-1.8 -0.6,-3.6 -0.9,-5.4 -0.1,-0.3 -0.1,-0.6 -0.2,-0.9 v 0 c 0,0 0,-0.1 0,-0.1 -0.3,-1.8 -0.7,-3.6 -1.1,-5.5 -0.6,-3.1 -1.1,-6.2 -1.9,-9.3 0,-0.3 0,-0.5 -0.1,-0.7 -0.3,-1.1 -0.5,-2.3 -0.7,-3.5 -0.2,-0.6 -0.4,-1.4 -0.5,-2 v 0 0 0 c 0,0 113.2,-94.4 113.3,-220.1 0.1,-85.3 -51.9,-185.1 -226.8,-279.7 v 0 c -2.5,-1.4 -4.8,-2.4 -7.4,-3.8" /></g><g
         transform="scale(1.52018)"
         id="g564"><path
           id="path566"
           style="fill:#000072;fill-opacity:1;fill-rule:nonzero;stroke:none"
           d="m 15637.5,11784.4 c -38.5,0 -75.8,-12.4 -107.3,-36.4 -260,-198.1 -262.3,-296.1 -256.9,-321.4 10.2,-46.9 87.4,-79 123.2,-87.2 35.1,-7.9 61.2,-38 64.1,-73.9 13.8,-180.7 127.9,-191.5 150.6,-191.9 23.6,-0.3 46.6,-10.8 61.9,-28.7 15.3,-17.9 23,-41.6 19.7,-64.8 -5.2,-39.6 -3.4,-135.9 36,-163.1 33.6,-23.2 113.4,-4.8 213.5,49.4 78,42.2 172.9,109.9 181.6,192.5 9.4,89.5 -81.8,168.4 -82.8,169.2 -23.2,19.7 -33.9,51.2 -27.1,81 11,48.5 17.7,114.2 -12.1,151.3 -30,37.3 -90.3,36.6 -89.6,37.3 -39.8,1 -76.4,29.3 -82.6,69.5 -5.9,37.4 -14.1,71.5 -24.6,101.1 -18.7,52.6 -60.6,92.1 -115.2,108.4 -17.3,5.2 -35,7.7 -52.4,7.7 z M 15767,10643 c -50.5,0 -94.7,13 -132.1,39 -85.7,59.5 -105.8,166.2 -108.5,240.6 -89.1,28.2 -192,105.2 -222.7,274 -65.7,25.5 -165.9,81.9 -190.8,194.2 -31.4,141.6 72.5,301.1 317.5,488 86.8,66.1 201.3,86.9 306.5,55.5 105.5,-31.5 186.9,-108.5 223.3,-211.2 v -0.1 c 7.6,-21.7 14.3,-44.7 20,-69 45.6,-10.6 103.8,-34.5 148.2,-88.5 51,-62 69.2,-144.8 54.5,-247 45.7,-50.7 117.1,-151.1 104.7,-275.2 -12.4,-124.2 -102.3,-232.4 -267.1,-321.6 -97,-52.5 -181.7,-78.7 -253.5,-78.7" /></g><g
         transform="scale(1.49053)"
         id="g568"><path
           id="path570"
           style="fill:#000072;fill-opacity:1;fill-rule:nonzero;stroke:none"
           d="m 15690.9,11399.6 -12.7,167.2 c 318.3,24.1 470.6,275.2 476.9,285.9 l 144.9,-84.5 c -8.1,-13.8 -200.7,-337.8 -609.1,-368.6" /></g><g
         transform="scale(1.50802)"
         id="g572"><path
           id="path574"
           style="fill:#000072;fill-opacity:1;fill-rule:nonzero;stroke:none"
           d="m 15750.9,10998.2 -27.3,163.6 c 329.5,54.9 420.9,245.8 424.6,253.9 l 151.8,-66.7 c -4.9,-11.3 -125.8,-280.2 -549.1,-350.8" /></g><g
         transform="scale(1.39112)"
         id="g576"><path
           id="path578"
           style="fill:#ffffff;fill-opacity:1;fill-rule:nonzero;stroke:none"
           d="m 11633.3,6686.76 c -111.2,0 -207.8,0.64 -288.1,1.44 -151.4,1.65 -271.4,127.52 -266.2,278.83 5,146.29 125.5,261.81 271.9,260.23 687.4,-7.27 2623.1,2.23 4620.5,286.17 144.7,20.63 279.4,-78.07 303.5,-222.27 l 0.1,-0.43 c 25,-149.52 -78.3,-290.34 -228.4,-311.62 -1799.3,-255.12 -3546.9,-292.35 -4413.3,-292.35" /></g><g
         transform="scale(1.38211)"
         id="g580"><path
           id="path582"
           style="fill:#b2b2d4;fill-opacity:1;fill-rule:nonzero;stroke:none"
           d="m 11709.2,6820.8 c -111.5,0 -208.5,0.65 -289.1,1.45 -49,0.5 -94.6,20.33 -128.5,55.71 -29.5,30.89 -46.8,70.26 -49.7,112.36 40.8,-25.75 89.1,-40.87 141.1,-41.45 80.8,-0.8 178.1,-1.45 290,-1.45 110.9,0 236.3,0.58 374.2,2.17 l 6.2,-126.91 c -125.8,-1.37 -241,-1.88 -344.2,-1.88 m 3659.1,196.3 -6.3,129.43 c 248.5,27.79 500.3,59.33 753.1,95.15 71,10.13 131.6,46.81 173.2,98.47 1.4,-5.5 2.7,-11.07 3.6,-16.79 8.1,-48.47 -3.4,-97.09 -32.5,-136.74 -29.2,-39.8 -72.1,-65.55 -120.9,-72.43 -258.6,-36.68 -516.2,-68.88 -770.2,-97.09" /></g><g
         transform="scale(1.39793)"
         id="g584"><path
           id="path586"
           style="fill:#000072;fill-opacity:1;fill-rule:nonzero;stroke:none"
           d="m 11292.7,7102.66 c -96.8,0 -174.9,-75.47 -178.3,-172.68 -1.7,-48.57 15.9,-94.71 49.5,-129.84 33.5,-34.98 78.5,-54.58 127,-55.08 79.7,-0.79 175.6,-1.43 285.8,-1.43 871.5,0 2599.2,37.7 4379.2,290.07 48.3,6.8 90.7,32.26 119.6,71.61 28.7,39.2 40.1,87.27 32.1,135.2 -16.2,96.86 -104.5,161.81 -201.3,147.86 -1977.7,-281.2 -3883.9,-293.5 -4611.6,-285.71 -0.7,0 -1.3,0 -2,0 m 284,-537.86 c -111,0 -207.4,0.64 -287.7,1.43 -97,1.07 -187.3,40.2 -254.4,110.3 -67.1,70.25 -102.3,162.38 -99,259.6 6.7,194.43 163.2,345.37 357.1,345.37 1.3,0 2.6,0 3.9,0 723.6,-7.51 2619,4.51 4584.5,283.92 193.7,27.04 370.5,-102.08 402.8,-295.01 16.1,-96.29 -6.7,-192.35 -64.2,-270.83 -57.5,-78.54 -142.3,-129.33 -238.7,-142.92 -1790.9,-253.95 -3528.1,-291.86 -4404.3,-291.86" /></g><g
         transform="scale(1.29831)"
         id="g588"><path
           id="path590"
           style="fill:#ffffff;fill-opacity:1;fill-rule:nonzero;stroke:none"
           d="m 16294.2,6848.89 c 5.8,-122.85 -88.9,-227.22 -211.8,-233.38 L 13189,6474.94 c -122.8,-5.78 -227.2,88.96 -233.3,211.81 l -17.8,365.09 -59.6,1225.83 c -5.8,122.85 88.9,227.6 211.8,233.38 l 2893.3,140.56 c 10.4,0.39 21.2,0.39 31.2,-0.77 108.6,-9.63 196.4,-98.97 202.2,-211.04 l 77.4,-1590.91" /></g><g
         transform="scale(1.30583)"
         id="g592"><path
           id="path594"
           style="fill:#000072;fill-opacity:1;fill-rule:nonzero;stroke:none"
           d="m 15902.2,8506.4 c -2.1,0 -4.2,0 -6.2,-0.15 l -2876.5,-139.76 c -69.3,-3.37 -122.9,-62.49 -119.6,-131.79 l 76.9,-1581.68 c 1.6,-33.62 16.2,-64.48 41.1,-87.07 24.9,-22.52 57,-34.39 90.6,-32.47 l 2876.6,139.76 v 0 c 33.5,1.61 64.5,16.23 87.1,41.12 22.6,24.89 34.1,57.05 32.4,90.67 l -76.8,1581.68 c -3.3,67.23 -59,119.69 -125.6,119.69 M 13102,6341.87 c -78.8,0 -153.9,28.88 -212.8,82.33 -62.7,56.9 -99.5,134.86 -103.7,219.55 l -76.8,1581.68 c -8.5,174.68 126.8,323.78 301.5,332.28 l 2876.5,139.76 c 175.4,9.03 323.9,-126.82 332.4,-301.49 l 76.8,-1581.68 c 4.1,-84.7 -25,-165.88 -82,-228.59 -56.9,-62.8 -134.9,-99.64 -219.5,-103.69 l -2876.6,-139.76 c -5.2,-0.31 -10.5,-0.39 -15.8,-0.39" /></g><g
         transform="scale(1.1228)"
         id="g596"><path
           id="path598"
           style="fill:#000072;fill-opacity:1;fill-rule:nonzero;stroke:none"
           d="m 16077.5,7527.49 -51.7,1065.91 -274.9,-13.45 c -29.3,-1.6 -58.3,8.91 -80.1,28.77 -21.9,19.86 -35,47.56 -36.5,77.04 l -57.1,1177.14 222.4,10.78 51.8,-1065.91 274.7,13.36 c 29.4,1.61 58.4,-8.91 80.3,-28.68 21.8,-19.86 34.9,-47.64 36.3,-77.12 l 57.3,-1177.06 -222.5,-10.78" /></g><g
         transform="scale(1.19987)"
         id="g600"><path
           id="path602"
           style="fill:#000072;fill-opacity:1;fill-rule:nonzero;stroke:none"
           d="m 16164.4,8298.14 -247.4,-12 c -76.6,-3.67 -141.7,55.34 -145.4,131.93 l -12.1,247.44 c -3.6,76.59 55.4,141.68 132,145.35 l 247.4,12.08 c 76.6,3.67 141.7,-55.33 145.3,-131.92 l 12.1,-247.45 c 3.7,-76.59 -55.3,-141.68 -131.9,-145.43" /></g><g
         transform="scale(1.25617)"
         id="g604"><path
           id="path606"
           style="fill:#000072;fill-opacity:1;fill-rule:nonzero;stroke:none"
           d="m 16170.5,7961.73 -236.5,-11.47 c -73,-3.57 -135.2,52.87 -138.8,125.95 l -11.5,236.43 c -3.5,73.16 52.9,135.33 126,138.83 l 236.4,11.47 c 73.2,3.58 135.3,-52.78 138.9,-125.94 l 11.4,-236.43 c 3.6,-73.09 -52.8,-135.26 -125.9,-138.84" /></g><g
         transform="scale(1.20244)"
         id="g608"><path
           id="path610"
           style="fill:#000072;fill-opacity:1;fill-rule:nonzero;stroke:none"
           d="m 16164.7,7566.23 -247,-11.98 c -76.4,-3.66 -141.4,55.22 -145,131.65 l -12.1,246.92 c -3.7,76.43 55.2,141.38 131.6,145.04 l 247,12.06 c 76.4,3.65 141.3,-55.22 145.1,-131.65 l 12,-247 c 3.7,-76.35 -55.3,-141.3 -131.6,-145.04" /></g><g
         transform="scale(1.25873)"
         id="g612"><path
           id="path614"
           style="fill:#000072;fill-opacity:1;fill-rule:nonzero;stroke:none"
           d="m 16170.7,7263.27 -235.9,-11.44 c -72.9,-3.57 -135,52.75 -138.6,125.69 l -11.4,235.95 c -3.5,73.01 52.7,134.98 125.8,138.55 l 235.8,11.44 c 73,3.58 135.1,-52.67 138.6,-125.68 l 11.5,-235.96 c 3.5,-72.92 -52.7,-134.97 -125.8,-138.55" /></g><g
         transform="scale(1.29031)"
         id="g616"><path
           id="path618"
           style="fill:#b2b2d4;fill-opacity:1;fill-rule:nonzero;stroke:none"
           d="m 13259.1,6611.84 c -31.4,0 -61.2,11.86 -84.6,33.09 -25.2,22.86 -39.9,54.1 -41.6,88.12 l -16.8,345.81 c 202.2,-32.86 510.7,-72.15 852.4,-77.73 l 17.2,-354.11 -719.5,-34.95 c -2.4,-0.16 -4.7,-0.23 -7.1,-0.23 m 920.2,44.56 -16.9,345.42 c 196,4.65 398,22.09 593.8,59.29 20.4,-13.56 44.9,-21.47 71.1,-21.47 2.1,0 4.2,0.08 6.4,0.16 l 230.2,11.16 c 70.2,3.41 124.6,62.39 122.6,132.37 76.2,30.38 149.4,65.18 218.8,105.09 l 4.4,-91.45 c 3.4,-69.05 60.4,-122.76 128.8,-122.76 2.1,0 4.2,0.08 6.3,0.16 l 230.2,11.15 c 71.2,3.49 126.1,64.02 122.7,135.16 l -11.2,230.18 c -3.4,69.06 -60.4,122.77 -128.9,122.77 -2,0 -4.1,0 -6.2,-0.16 305.3,363.4 385.9,725.49 370.9,1031.93 54,-12.56 95.5,-59.76 98.3,-117.81 l 77.8,-1600.7 c 1.6,-34.02 -10,-66.57 -32.9,-91.76 -22.9,-25.19 -54.2,-39.99 -88.1,-41.62 v 0 l -1998.1,-97.11" /></g><g
         transform="scale(1.29831)"
         id="g620"><path
           id="path622"
           style="fill:#000072;fill-opacity:1;fill-rule:nonzero;stroke:none"
           d="m 13178.4,6474.71 c -118.1,0 -216.7,92.74 -222.7,212.04 l -17.8,365.09 c 28.8,-5.16 61.4,-10.86 97.3,-16.63 l 16.7,-343.68 c 1.7,-33.81 16.3,-64.85 41.3,-87.57 23.4,-21.11 52.9,-32.89 84.1,-32.89 2.4,0 4.7,0.07 7.1,0.23 l 715.1,34.73 4.6,-96.12 192.4,9.32 -4.7,96.13 1985.8,96.51 v 0 c 33.8,1.61 64.9,16.32 87.6,41.36 22.7,25.03 34.3,57.38 32.7,91.19 l -77.3,1590.84 c -2.8,57.68 -44,104.59 -97.7,117.07 -1.7,33.58 -4.5,66.39 -8.3,98.51 108.6,-9.63 196.4,-98.97 202.2,-211.04 l 77.4,-1590.91 c 5.8,-122.85 -88.9,-227.22 -211.8,-233.38 L 13189,6474.94 c -3.5,-0.15 -7,-0.23 -10.6,-0.23" /></g><g
         transform="scale(1.1228)"
         id="g624"><path
           id="path626"
           style="fill:#000072;fill-opacity:1;fill-rule:nonzero;stroke:none"
           d="m 16077.5,7527.49 -5.3,111.15 -19.8,406.93 c 30.9,-0.53 62.1,-0.8 93.4,-0.8 42.9,0 86,0.54 129.4,1.6 l 19.4,-396.95 5.4,-111.15 -222.5,-10.78" /></g><g
         transform="scale(1.20232)"
         id="g628"><path
           id="path630"
           style="fill:#000072;fill-opacity:1;fill-rule:nonzero;stroke:none"
           d="m 15912.4,7554.82 c -28.1,0 -54.4,8.48 -76.3,23.04 159.8,30.35 315.8,73.02 461.8,131.16 2.1,-75.1 -56.3,-138.4 -131.6,-142.06 l -247.1,-11.98 c -2.3,-0.08 -4.5,-0.16 -6.8,-0.16" /></g><g
         transform="scale(1.25873)"
         id="g632"><path
           id="path634"
           style="fill:#000072;fill-opacity:1;fill-rule:nonzero;stroke:none"
           d="m 15928.3,7251.68 c -70.1,0 -128.6,55.05 -132.1,125.84 l -4.5,93.74 c 134.7,77.54 255.2,173.67 354.7,292.12 0,0.08 0.1,0.08 0.1,0.08 2.2,0.16 4.3,0.16 6.4,0.16 70.2,0 128.7,-55.06 132.1,-125.84 l 11.5,-235.96 c 3.5,-72.92 -52.7,-134.97 -125.8,-138.55 l -235.9,-11.44 c -2.2,-0.08 -4.4,-0.15 -6.5,-0.15" /></g><path
         id="path636"
         style="fill:#ffffff;fill-opacity:1;fill-rule:nonzero;stroke:none"
         d="m 9710.58,7849 c 0,-60.4 -123.81,-113.1 -308.75,-142.1 -93.37,-14.6 -166.9,-88.2 -181.55,-181.5 -29,-185 -81.67,-308.8 -142.07,-308.8 -60.4,0 -113.07,123.8 -142.07,308.8 -14.64,93.3 -88.19,166.9 -181.57,181.5 -185.07,29 -309.19,81.7 -309.19,142.1 0,60.7 124.01,113.5 308.96,142.3 93.49,14.5 167.16,88.1 181.81,181.6 29,185.1 81.67,308.9 142.06,308.9 60.39,0 113.07,-123.8 142.07,-308.9 14.64,-93.5 88.3,-167.1 181.79,-181.6 184.8,-28.8 308.51,-81.6 308.51,-142.3" /><g
         transform="scale(2.07408)"
         id="g638"><path
           id="path640"
           style="fill:#ffffff;fill-opacity:1;fill-rule:nonzero;stroke:none"
           d="m 16296.5,8002.88 c 3.5,-26.86 -48.6,-57.33 -129.2,-80.81 -40.7,-11.81 -69.3,-48.75 -70.4,-91.13 -2.4,-83.94 -18.8,-142.03 -45.6,-145.46 -26.9,-3.47 -57.4,48.65 -80.8,129.26 -11.9,40.7 -48.8,69.24 -91.2,70.39 -84,2.37 -142.2,18.71 -145.7,45.62 -3.4,27 48.7,57.52 129.4,80.9 40.7,11.81 69.3,48.75 70.5,91.17 2.3,84.04 18.7,142.14 45.6,145.56 26.8,3.43 57.4,-48.65 80.8,-129.36 11.9,-40.74 48.8,-69.28 91.3,-70.44 83.8,-2.26 141.9,-18.66 145.3,-45.7" /></g><g
         transform="scale(2.15585)"
         id="g642"><path
           id="path644"
           style="fill:#ffffff;fill-opacity:1;fill-rule:nonzero;stroke:none"
           d="m 15108,15974.9 c 0,-31 -63.6,-58.1 -158.6,-73 -48,-7.5 -85.8,-45.3 -93.3,-93.3 -14.9,-95 -42,-158.6 -73,-158.6 -31,0 -58.1,63.6 -73,158.6 -7.5,48 -45.3,85.8 -93.2,93.3 -95.1,14.9 -158.9,42 -158.9,73 0,31.2 63.7,58.3 158.7,73.1 48.1,7.5 85.9,45.3 93.4,93.3 14.9,95.1 42,158.7 73,158.7 31,0 58.1,-63.6 73,-158.7 7.5,-48 45.4,-85.8 93.4,-93.3 94.9,-14.8 158.5,-41.9 158.5,-73.1" /></g><g
         transform="scale(2.10382)"
         id="g646"><path
           id="path648"
           style="fill:#ffffff;fill-opacity:1;fill-rule:nonzero;stroke:none"
           d="m 16300,12972.2 c 0,-47.4 -38.4,-85.7 -85.7,-85.7 -47.3,0 -85.7,38.3 -85.7,85.7 0,47.3 38.4,85.7 85.7,85.7 47.3,0 85.7,-38.4 85.7,-85.7" /></g><g
         transform="scale(1.88548)"
         id="g650"><path
           id="path652"
           style="fill:#ffffff;fill-opacity:1;fill-rule:nonzero;stroke:none"
           d="m 16288.5,6699.92 c -11.6,-61.57 -70.8,-102.15 -132.4,-90.58 -61.5,11.5 -102.1,70.75 -90.6,132.32 11.6,61.58 70.8,102.1 132.4,90.59 61.5,-11.51 102.1,-70.75 90.6,-132.33" /></g><g
         transform="scale(1.82659)"
         id="g654"><path
           id="path656"
           style="fill:#ffffff;fill-opacity:1;fill-rule:nonzero;stroke:none"
           d="m 4968.47,16161 c -6.76,-66.1 -66.65,-114.2 -133.75,-107.3 -67.11,6.9 -116.02,66.1 -109.26,132.2 6.78,66.1 66.66,114.1 133.76,107.3 67.1,-6.9 116.02,-66.1 109.25,-132.2" /></g><g
         transform="scale(2.15276)"
         id="g658"><path
           id="path660"
           style="fill:#ffffff;fill-opacity:1;fill-rule:nonzero;stroke:none"
           d="m 16300,14520.9 c 0,-46.3 -37.5,-83.8 -83.8,-83.8 -46.2,0 -83.7,37.5 -83.7,83.8 0,46.3 37.5,83.8 83.7,83.8 46.3,0 83.8,-37.5 83.8,-83.8" /></g><g
         transform="scale(2.06471)"
         id="g662"><path
           id="path664"
           style="fill:#ffffff;fill-opacity:1;fill-rule:nonzero;stroke:none"
           d="m 3234.62,16177 c -5.99,-58.5 -58.96,-100.9 -118.33,-94.9 -59.36,6.1 -102.64,58.5 -96.65,116.9 5.99,58.5 58.97,101 118.33,94.9 59.37,-6.1 102.64,-58.4 96.65,-116.9" /></g><path
         id="path666"
         style="fill:#ffffff;fill-opacity:1;fill-rule:nonzero;stroke:none"
         d="m 6212.23,10699.2 c 0,-111.9 -90.68,-202.6 -202.54,-202.6 -111.85,0 -202.53,90.7 -202.53,202.6 0,111.8 90.68,202.5 202.53,202.5 111.86,0 202.54,-90.7 202.54,-202.5" /><g
         transform="scale(1.83617)"
         id="g668"><path
           id="path670"
           style="fill:#ffffff;fill-opacity:1;fill-rule:nonzero;stroke:none"
           d="m 16300,10829.1 c 0,-46.4 -37.6,-84.1 -84.1,-84.1 -46.4,0 -84.1,37.7 -84.1,84.1 0,46.5 37.7,84.1 84.1,84.1 46.5,0 84.1,-37.6 84.1,-84.1" /></g><g
         transform="scale(1.9715)"
         id="g672"><path
           id="path674"
           style="fill:#ffffff;fill-opacity:1;fill-rule:nonzero;stroke:none"
           d="m 16294.3,3595.59 c -5.7,-30.23 -34.8,-50.21 -65.1,-44.53 -30.2,5.68 -50.2,34.79 -44.5,65.07 5.6,30.29 34.8,50.22 65.1,44.59 30.3,-5.68 50.2,-34.84 44.5,-65.13" /></g><g
         transform="scale(2.15386)"
         id="g676"><path
           id="path678"
           style="fill:#ffffff;fill-opacity:1;fill-rule:nonzero;stroke:none"
           d="m 5070.11,16239.4 c -2.97,-28.9 -29.06,-49.8 -58.36,-46.8 -29.25,3 -50.6,28.8 -47.63,57.6 2.97,28.9 29.06,49.8 58.31,46.8 29.3,-3 50.61,-28.8 47.68,-57.6" /></g><g
         transform="scale(1.58629)"
         id="g680"><path
           id="path682"
           style="fill:#ffffff;fill-opacity:1;fill-rule:nonzero;stroke:none"
           d="m 3136.55,16217.7 c -4,-39.1 -39.47,-67.6 -79.21,-63.5 -39.74,4.1 -68.71,39.1 -64.7,78.2 4.01,39.2 39.47,67.6 79.21,63.6 39.74,-4.1 68.71,-39.1 64.7,-78.3" /></g><path
         id="path684"
         style="fill:#ffffff;fill-opacity:1;fill-rule:nonzero;stroke:none"
         d="m 8555.85,13680.4 c 0,-57.5 -46.64,-104.2 -104.16,-104.2 -57.52,0 -104.16,46.7 -104.16,104.2 0,57.5 46.64,104.2 104.16,104.2 57.52,0 104.16,-46.7 104.16,-104.2" /><g
         transform="scale(2.1202)"
         id="g686"><path
           id="path688"
           style="fill:#ffffff;fill-opacity:1;fill-rule:nonzero;stroke:none"
           d="m 16294.7,5033.62 c -5.3,-28.15 -32.3,-46.69 -60.5,-41.41 -28.2,5.29 -46.7,32.36 -41.5,60.52 5.3,28.15 32.4,46.69 60.6,41.41 28.2,-5.24 46.7,-32.36 41.4,-60.52" /></g><g
         transform="scale(1.37775)"
         id="g690"><path
           id="path692"
           style="fill:#ffffff;fill-opacity:1;fill-rule:nonzero;stroke:none"
           d="m 5564.58,16125.4 c -8.5,-83 -83.71,-143.3 -167.98,-134.7 -84.27,8.6 -145.7,82.9 -137.2,166 8.5,83 83.71,143.3 167.98,134.7 84.27,-8.7 145.7,-83 137.2,-166" /></g></g></g></svg>