<svg id="visual" viewBox="0 0 900 600" width="900" height="600" xmlns="http://www.w3.org/2000/svg" xmlns:xlink="http://www.w3.org/1999/xlink" version="1.1"><rect x="0" y="0" width="900" height="600" fill="#fff"></rect><g transform="translate(454.3820491406369 306.86507245529725)"><path d="M174.8 -303.6C224.6 -274 261.7 -223.3 281.1 -169.1C300.5 -115 302.3 -57.5 296.6 -3.3C291 51 278 102 257.3 154C236.7 205.9 208.3 258.8 164.2 289C120 319.2 60 326.6 2.8 321.8C-54.5 317.1 -109 300.1 -149.6 267.9C-190.2 235.7 -216.9 188.2 -241.6 141C-266.4 93.8 -289.2 46.9 -300.7 -6.6C-312.2 -60.2 -312.4 -120.3 -287.6 -167.4C-262.8 -214.4 -212.9 -248.4 -160.8 -276.6C-108.7 -304.9 -54.3 -327.4 4.1 -334.5C62.5 -341.6 125 -333.2 174.8 -303.6" fill="#5ACCFF"></path></g></svg>