<svg id="visual" viewBox="0 0 900 600" width="900" height="600" xmlns="http://www.w3.org/2000/svg" xmlns:xlink="http://www.w3.org/1999/xlink" version="1.1"><rect x="0" y="0" width="900" height="600" fill="#fff"></rect><defs><linearGradient id="grad1_0" x1="33.3%" y1="0%" x2="100%" y2="100%"><stop offset="20%" stop-color="#ffffff" stop-opacity="1"></stop><stop offset="80%" stop-color="#ffffff" stop-opacity="1"></stop></linearGradient></defs><defs><linearGradient id="grad2_0" x1="0%" y1="0%" x2="66.7%" y2="100%"><stop offset="20%" stop-color="#ffffff" stop-opacity="1"></stop><stop offset="80%" stop-color="#ffffff" stop-opacity="1"></stop></linearGradient></defs><g transform="translate(900, 0)"><path d="M0 270.4C-34.4 257.1 -68.8 243.7 -92.6 223.6C-116.4 203.4 -129.6 176.4 -157.7 157.7C-185.7 138.9 -228.6 128.4 -249.8 103.5C-271.1 78.6 -270.8 39.3 -270.4 0L0 0Z" fill="#5ACCFF"></path></g><g transform="translate(0, 600)"><path d="M0 -270.4C38.7 -270.6 77.4 -270.7 103.5 -249.8C129.6 -228.9 143.1 -187 157 -157C170.9 -126.9 185.2 -108.8 204.2 -84.6C223.2 -60.4 246.8 -30.2 270.4 0L0 0Z" fill="#5ACCFF"></path></g></svg>