<svg width="657" height="359" viewBox="0 0 657 359" fill="none" xmlns="http://www.w3.org/2000/svg">
<g clip-path="url(#clip0)">
<path fill-rule="evenodd" clip-rule="evenodd" d="M180.511 119.704H183.108C183.389 119.704 183.618 119.913 183.618 120.169V139.013C183.618 139.269 183.389 139.478 183.108 139.478H180.511C180.23 139.478 180 139.269 180 139.013V120.169C180 119.913 180.23 119.704 180.511 119.704Z" fill="#1F2226"/>
<path fill-rule="evenodd" clip-rule="evenodd" d="M180.511 144.71H183.108C183.389 144.71 183.618 144.919 183.618 145.175V164.018C183.618 164.275 183.389 164.483 183.108 164.483H180.511C180.23 164.483 180 164.275 180 164.018V145.175C180 144.919 180.23 144.71 180.511 144.71Z" fill="#1F2226"/>
<path fill-rule="evenodd" clip-rule="evenodd" d="M180.511 99.7348H183.108C183.389 99.7348 183.618 99.9438 183.618 100.199V109.156C183.618 109.412 183.389 109.621 183.108 109.621H180.511C180.23 109.621 180 109.412 180 109.156V100.199C180 99.9438 180.23 99.7348 180.511 99.7348Z" fill="#1F2226"/>
<path fill-rule="evenodd" clip-rule="evenodd" d="M339.893 119.704H342.491C342.771 119.704 343.001 119.913 343.001 120.169V139.013C343.001 139.269 342.771 139.478 342.491 139.478H339.893C339.611 139.478 339.383 139.269 339.383 139.013V120.169C339.383 119.913 339.611 119.704 339.893 119.704Z" fill="#1F2226"/>
<path fill-rule="evenodd" clip-rule="evenodd" d="M204.989 63H318.917C330.905 63 340.714 71.9327 340.714 82.8512V339.149C340.714 350.067 330.905 359 318.917 359H204.989C193 359 183.192 350.067 183.192 339.149V82.8512C183.192 71.9327 193 63 204.989 63Z" fill="#2C3A4A"/>
<path fill-rule="evenodd" clip-rule="evenodd" d="M234.014 85.6481C236.558 85.6481 238.633 83.7577 238.633 81.4411C238.633 79.1231 236.558 77.2334 234.014 77.2334C231.469 77.2334 229.394 79.1231 229.394 81.4411C229.394 83.7577 231.469 85.6481 234.014 85.6481Z" fill="#606E7C"/>
<path fill-rule="evenodd" clip-rule="evenodd" d="M234.014 84.1058C235.626 84.1058 236.941 82.9087 236.941 81.4404C236.941 79.972 235.626 78.775 234.014 78.775C232.402 78.775 231.087 79.972 231.087 81.4404C231.087 82.9087 232.402 84.1058 234.014 84.1058Z" fill="#E4E8E6"/>
<path fill-rule="evenodd" clip-rule="evenodd" d="M247.746 78.009H276.159C277.853 78.009 279.238 79.2704 279.238 80.8128V81.7768C279.238 83.3199 277.853 84.582 276.159 84.582H247.746C246.053 84.582 244.667 83.3199 244.667 81.7768V80.8128C244.667 79.2704 246.053 78.009 247.746 78.009Z" fill="#606E7C"/>
<path fill-rule="evenodd" clip-rule="evenodd" d="M248.276 79.5506H275.629C276.683 79.5506 277.545 80.3359 277.545 81.2951C277.545 82.2551 276.683 83.0403 275.629 83.0403H248.276C247.222 83.0403 246.36 82.2551 246.36 81.2951C246.36 80.3359 247.222 79.5506 248.276 79.5506Z" fill="#E4E8E6"/>
<path fill-rule="evenodd" clip-rule="evenodd" d="M191.387 324.589H332.944V96.9982H191.387V324.589Z" fill="white"/>
<path fill-rule="evenodd" clip-rule="evenodd" d="M191.387 96.9982H332.944V97.3689L191.735 324.589H191.387V96.9982Z" fill="white"/>
<path fill-rule="evenodd" clip-rule="evenodd" d="M261.953 351.548C268.994 351.548 274.738 346.317 274.738 339.904C274.738 333.491 268.994 328.261 261.953 328.261C254.911 328.261 249.168 333.491 249.168 339.904C249.168 346.317 254.911 351.548 261.953 351.548Z" fill="#606E7C"/>
<path fill-rule="evenodd" clip-rule="evenodd" d="M261.953 349.066C267.494 349.066 272.014 344.951 272.014 339.904C272.014 334.857 267.494 330.741 261.953 330.741C256.412 330.741 251.892 334.857 251.892 339.904C251.892 344.951 256.412 349.066 261.953 349.066Z" fill="#E4E8E6"/>
</g>
<path d="M232.007 163.991H205.9V136.388H228.582L230.001 134.38H204V166H233.907V147.513L232.007 149.434V163.991Z" fill="#1A1A1A"/>
<path d="M237.746 126L231.825 134.38L230.406 136.388L218.18 153.692L209.944 142.039L207.653 152.906L218.242 161.221L232.007 147.296L233.907 145.375L244 135.165L237.746 126Z" fill="#4890D4"/>
<path d="M232.007 163.991H205.9V136.388H228.582L230.001 134.38H204V166H233.907V147.513L232.007 149.434V163.991Z" fill="#1A1A1A"/>
<path d="M237.746 126L231.825 134.38L230.406 136.388L218.18 153.692L209.944 142.039L207.653 152.906L218.242 161.221L232.007 147.296L233.907 145.375L244 135.165L237.746 126Z" fill="#4890D4"/>
<path d="M232.007 293.991H205.9V266.388H228.582L230.001 264.38H204V296H233.907V277.513L232.007 279.434V293.991Z" fill="#1A1A1A"/>
<path d="M237.746 256L231.825 264.38L230.406 266.388L218.18 283.692L209.944 272.039L207.653 282.906L218.242 291.221L232.007 277.296L233.907 275.375L244 265.165L237.746 256Z" fill="#4890D4"/>
<path d="M232.007 163.991H205.9V136.388H228.582L230.001 134.38H204V166H233.907V147.513L232.007 149.434V163.991Z" fill="#1A1A1A"/>
<path d="M237.746 126L231.825 134.38L230.406 136.388L218.18 153.692L209.944 142.039L207.653 152.906L218.242 161.221L232.007 147.296L233.907 145.375L244 135.165L237.746 126Z" fill="#4890D4"/>
<path d="M232.007 228.991H205.9V201.388H228.582L230.001 199.38H204V231H233.907V212.513L232.007 214.434V228.991Z" fill="#1A1A1A"/>
<path d="M237.746 191L231.825 199.38L230.406 201.388L218.18 218.692L209.944 207.039L207.653 217.906L218.242 226.221L232.007 212.296L233.907 210.375L244 200.165L237.746 191Z" fill="#4890D4"/>
<rect x="251" y="139" width="73" height="5" rx="2.5" fill="#C4C4C4"/>
<rect x="251" y="161" width="73" height="5" rx="2.5" fill="#C4C4C4"/>
<rect x="251" y="150" width="73" height="5" rx="2.5" fill="#C4C4C4"/>
<rect x="251" y="264" width="73" height="5" rx="2.5" fill="#C4C4C4"/>
<rect x="251" y="286" width="73" height="5" rx="2.5" fill="#C4C4C4"/>
<rect x="251" y="275" width="73" height="5" rx="2.5" fill="#C4C4C4"/>
<rect x="251" y="199" width="73" height="5" rx="2.5" fill="#C4C4C4"/>
<rect x="251" y="221" width="73" height="5" rx="2.5" fill="#C4C4C4"/>
<rect x="251" y="210" width="73" height="5" rx="2.5" fill="#C4C4C4"/>
<path d="M0.0176901 273.161C-0.199293 263.234 1.53307 251.23 7.81061 243.612C14.9534 235.302 20.1477 226.991 22.5288 215.679C25.1265 203.906 26.6418 193.517 35.0833 184.516C42.443 176.436 52.183 172.048 62.1401 176.205C67.7682 178.743 70.1492 181.975 72.5299 187.747C74.9114 193.286 78.1579 197.672 80.1064 203.213C84.6512 216.372 89.8465 224.451 100.886 232.3C110.41 239.226 118.852 247.768 119.933 260.464C120.8 269.697 120.15 280.547 118.635 289.782C116.687 301.093 102.834 305.248 93.5259 306.865C80.1064 309.404 65.8205 310.558 52.183 310.558C40.2783 310.558 26.4251 310.789 15.3862 305.479C13.4381 304.555 11.2399 303.63 9.97461 301.786C5.75012 295.624 0.234143 281.702 0.0176901 273.161Z" fill="#81A4DC"/>
<path d="M102.141 256.87C96.925 251.987 90.0801 249.656 84.8731 244.775C78.3489 238.659 75.5959 228.787 72.9271 220.278C71.1712 214.68 70.9498 208.827 67.6395 203.864C66.8531 202.684 65.9017 201.407 65.2646 200.036L65.1306 199.926C54.2539 189.092 40.3719 201.745 37.2564 213.951C34.1523 226.112 38.3932 237.218 39.1486 249.279C39.8473 260.432 33.9398 273.087 40.9779 282.913C45.152 288.74 51.1522 292.102 58.0883 290.616C62.6452 289.639 67.0305 287.805 71.3329 285.959C76.0436 283.938 80.9204 282.958 85.9782 282.652C90.441 282.383 95.0333 282.482 99.2467 280.631C104.13 278.488 107.882 274.21 107.402 268.217C107.046 263.795 105.288 259.817 102.141 256.87Z" fill="#7193D3"/>
<path d="M50.3619 183.957C42.4867 187.872 36.6692 195.928 34.289 204.749C33.0248 209.435 33.1384 214.646 32.7515 219.473C32.2152 226.167 30.8309 232.39 27.2009 237.977C21.7885 246.306 14.3662 252.725 11.6333 262.79C8.52983 274.218 11.2829 287.823 15.4511 298.493C15.7471 299.251 16.9198 298.919 16.6192 298.15C12.3713 287.276 10.2114 274.764 12.8013 263.133C14.971 253.389 22.8916 246.406 28.2467 238.628C33.7352 230.656 33.7946 220.773 34.5826 211.336C35.5061 200.273 41.3169 189.873 50.9731 185.073C51.681 184.722 51.0651 183.608 50.3619 183.957Z" fill="#161D3A"/>
<path d="M59.0445 285.336C61.7428 276.542 75.0941 274.225 82.4457 272.928C93.3996 270.996 104.215 274.419 113.135 281.336C113.768 281.826 114.372 280.704 113.746 280.221C104.209 272.827 93.0217 269.761 81.3958 271.811C73.7559 273.159 60.6788 275.86 57.8766 284.993C57.633 285.786 58.8029 286.124 59.0445 285.336Z" fill="#161D3A"/>
<path d="M80.5617 209.028C80.5617 209.028 80.5279 209.735 80.4687 210.974C80.4252 212.175 80.3973 213.866 80.5159 215.83C80.5881 216.802 80.673 217.858 80.8503 218.924C81.0259 219.988 81.2391 221.099 81.5662 222.167C81.8881 223.238 82.2913 224.291 82.7867 225.282C83.2911 226.265 83.9018 227.167 84.6024 227.987C85.2935 228.818 86.1226 229.509 87.0175 230.121C87.8986 230.755 88.9187 231.193 89.9219 231.615C90.4516 231.774 90.9548 231.977 91.4835 232.107C92.0185 232.221 92.5249 232.387 93.0535 232.46C93.5811 232.536 94.0875 232.644 94.5949 232.694C95.1055 232.741 95.5992 232.785 96.0726 232.827C97.0376 232.846 97.9229 232.91 98.7244 232.862C99.5248 232.82 100.222 232.83 100.804 232.755C101.967 232.648 102.632 232.585 102.632 232.585L103.674 238.866C103.674 238.866 102.938 239.031 101.65 239.321C101.009 239.484 100.201 239.587 99.2838 239.749C98.3698 239.92 97.3019 239.993 96.1437 240.112C95.5546 240.136 94.941 240.16 94.3051 240.186C93.6671 240.204 92.9951 240.16 92.3073 240.144C91.6194 240.132 90.8986 240.016 90.1661 239.947C89.4315 239.862 88.6746 239.685 87.905 239.546C86.3721 239.144 84.7627 238.669 83.1977 237.854C81.6335 237.072 80.08 236.071 78.7117 234.82C77.335 233.586 76.1007 232.167 75.0751 230.657C74.0597 229.145 73.2312 227.568 72.556 226.012C71.8746 224.455 71.3848 222.924 70.9697 221.469C70.5532 220.013 70.2777 218.639 70.0375 217.371C69.5889 214.837 69.3913 212.747 69.278 211.304C69.1855 209.898 69.1327 209.096 69.1327 209.096L80.5617 209.028Z" fill="#EF6764"/>
<path d="M111.81 310.669C111.711 308.126 111.721 305.196 112.325 304.086C113.259 302.159 114.186 304.977 116.334 304.667L117.858 302.116C117.654 304.478 119.356 307.279 121.206 308.627C121.724 309.11 122.342 309.575 123.012 309.981L111.81 310.669Z" fill="#EF6764"/>
<path d="M111.767 309.126C114.523 310.032 118.127 309.711 120.547 308.08C120.763 308.282 120.983 308.467 121.206 308.627C122.542 309.869 124.536 311.019 126.421 311.283C127.973 311.598 129.678 310.456 131.42 310.923C135.254 311.984 136.254 317.219 132.799 319.154C129.673 321.038 125.696 320.178 122.259 319.593C118.284 318.734 110.695 321.065 111.187 313.979C111.258 312.93 111.796 311.151 111.767 309.126" fill="#4B6EBE"/>
<path d="M122.088 318.031C125.817 318.594 130.13 319.436 133.533 317.532C134.035 317.272 134.449 316.952 134.784 316.59C134.526 317.618 133.879 318.547 132.798 319.154C129.673 321.038 125.696 320.177 122.259 319.593C118.864 318.86 112.838 320.447 111.455 316.516C113.902 318.47 119.001 317.43 122.088 318.031Z" fill="white"/>
<path d="M129.858 309.995C126.528 309.584 124.848 313.981 124.766 316.882C124.742 317.716 125.954 317.713 125.978 316.882C126.042 314.644 127.241 310.964 129.858 311.287C130.633 311.382 130.624 310.09 129.858 309.995Z" fill="#161D3A"/>
<path d="M124.554 309.835C123.258 310.147 122.177 311.247 122.212 312.73C122.233 313.561 123.444 313.563 123.424 312.73C123.403 311.808 124.098 311.268 124.877 311.081C125.639 310.897 125.316 309.652 124.554 309.835Z" fill="#161D3A"/>
<path d="M123.26 308.741C121.922 308.868 121.178 309.946 120.673 311.175C120.541 311.497 120.581 311.865 120.891 312.059C121.15 312.221 121.586 312.15 121.719 311.827C122.013 311.111 122.421 310.112 123.26 310.032C124.032 309.959 124.04 308.667 123.26 308.741Z" fill="#161D3A"/>
<path d="M57.5394 263.64C64.7019 293.3 103.895 259.983 103.895 259.983L110.156 305.006C110.156 305.006 116.304 308.194 120.662 304.264L116.653 235.95C116.653 235.95 69.2131 248.41 69.0006 247.712C68.7877 247.016 54.1135 249.454 57.5394 263.64Z" fill="#1A2345"/>
<path d="M82.2719 211.006C80.319 196.29 78.6179 178.813 69.0643 185.249C63.249 189.166 62.9125 197.571 66.7957 213.973C71.9987 213.325 77.3368 212.957 82.2719 211.006Z" fill="#4B6EBE"/>
<path d="M163.162 285.775C161.018 284.659 158.607 283.255 157.98 282.16C156.834 280.367 159.599 280.838 160.367 278.677L158.988 276.033C160.839 277.349 163.958 277.086 165.952 275.992C166.597 275.735 167.272 275.377 167.927 274.943L163.162 285.775Z" fill="#EF6764"/>
<path d="M161.871 285.082C163.929 282.929 165.381 279.395 165.185 276.349C165.455 276.243 165.714 276.124 165.953 275.992C167.612 275.33 169.507 274.006 170.624 272.364C171.623 271.059 171.491 268.916 172.706 267.504C175.406 264.413 180.199 265.968 180.151 270.13C180.216 273.957 177.612 277.278 175.496 280.224C172.896 283.543 171.205 291.772 165.597 287.936C164.765 287.37 163.555 286.019 161.871 285.082Z" fill="#4B6EBE"/>
<path d="M174.127 279.64C176.366 276.411 179.112 272.767 179.162 268.668C179.187 268.074 179.121 267.533 178.981 267.047C179.705 267.778 180.164 268.827 180.15 270.13C180.216 273.958 177.612 277.278 175.496 280.224C173.275 283.059 171.715 289.467 167.815 288.893C170.591 287.529 172.16 282.249 174.127 279.64Z" fill="white"/>
<path d="M171.206 268.51C169.32 271.478 172.049 275.068 174.437 276.572C175.111 276.996 175.719 275.88 175.047 275.457C173.228 274.312 170.769 271.494 172.252 269.162C172.692 268.47 171.642 267.825 171.206 268.51Z" fill="#161D3A"/>
<path d="M168.55 273.399C168.194 274.767 168.551 276.302 169.798 276.989C170.489 277.372 171.102 276.257 170.409 275.874C169.64 275.451 169.5 274.577 169.717 273.742C169.926 272.938 168.758 272.598 168.55 273.399Z" fill="#161D3A"/>
<path d="M166.971 274.254C166.467 275.581 167.139 276.791 167.888 277.825C168.366 278.484 169.216 277.562 168.745 276.911C168.244 276.221 167.807 275.473 168.139 274.597C168.433 273.825 167.261 273.492 166.971 274.254Z" fill="#161D3A"/>
<path d="M58.3088 276.099C81.3855 287.424 111.9 258.358 111.9 258.358L157.707 284.632C157.707 284.632 163.261 280.382 162.095 274.426L114.668 240.712C114.668 240.712 48.203 253.783 47.5274 253.651C46.8514 253.519 45.8306 269.976 58.3088 276.099Z" fill="#2A3A73"/>
<path d="M77.7492 247.933C77.1133 243.374 80.0674 211.248 79.0875 202.46C76.8413 182.318 67.7854 179.984 62.9416 179.984C43.689 179.984 48.1753 197.588 47.4793 216.545C46.9523 230.905 45.6999 246.762 47.5272 253.651C50.8284 253.735 67.6262 256.162 77.7492 247.933Z" fill="#4B6EBE"/>
<path d="M69.5084 168.843L70.1961 183.237C69.999 185.547 71.5116 189.646 66.0725 189.584C62.5648 189.544 58.4166 184.414 58.7673 182.124C59.3127 178.569 61.8891 168.102 61.8891 168.102L69.5084 168.843Z" fill="#EF6764"/>
<path d="M65.4096 179.227C66.8895 180.269 68.4432 180.912 70.1013 181.254L69.5083 168.843L61.889 168.102C61.889 168.102 61.4 170.09 60.8021 172.628C61.9773 175.079 63.2077 177.677 65.4096 179.227Z" fill="#151A36"/>
<path d="M76.0076 238.739C77.5131 238.468 79.3101 238.778 80.6159 239.637C81.9339 240.504 82.9665 242.617 81.6875 244.029C81.1064 244.67 80.2424 244.782 79.447 244.745C78.4991 244.699 77.5568 244.514 76.6132 244.409C76.2729 244.37 75.9241 244.427 75.5798 244.384C75.2333 244.339 74.8933 244.244 74.5745 244.092C73.9983 243.816 73.4415 243.358 73.1167 242.771C72.541 241.732 73.3286 240.484 74.0326 239.758C74.5612 239.211 75.2839 238.868 76.0076 238.739Z" fill="#EF6764"/>
<path d="M53.0275 206.053C53.0275 206.053 52.6195 207.017 51.9058 208.703C51.5502 209.5 51.1183 210.467 50.6227 211.576C50.146 212.652 49.6112 213.848 49.0972 215.116C48.5905 216.384 48.0573 217.747 47.6469 219.139C47.2318 220.53 46.903 221.965 46.7701 223.345C46.5031 226.133 47.0291 228.473 48.9114 230.649C49.8448 231.732 51.1343 232.67 52.4912 233.528C53.9032 234.333 55.3948 235.068 56.9439 235.627C57.7134 235.915 58.4685 236.212 59.248 236.427C60.0228 236.647 60.7613 236.92 61.5211 237.089C62.2757 237.276 63.0095 237.458 63.7197 237.634C64.4349 237.798 65.1391 237.921 65.8094 238.059C67.1482 238.348 68.4021 238.522 69.51 238.697C70.6166 238.883 71.5912 239.002 72.3959 239.091C74.0052 239.281 74.9253 239.39 74.9253 239.39L74.7691 244.073C74.7691 244.073 73.811 244.08 72.1345 244.091C71.2953 244.104 70.2755 244.107 69.0998 244.059C67.925 244.021 66.599 244.001 65.143 243.875C64.4153 243.817 63.6571 243.78 62.8699 243.7C62.0806 243.606 61.2648 243.508 60.4257 243.409C59.5859 243.326 58.7188 243.132 57.8316 242.991C56.9448 242.858 56.0357 242.633 55.1086 242.411C53.2547 241.986 51.3288 241.34 49.3713 240.514C47.4276 239.606 45.4271 238.526 43.5804 236.884C41.7446 235.257 40.0968 233.078 39.0709 230.597C38.0267 228.125 37.6163 225.496 37.569 223.13C37.5201 220.749 37.7885 218.583 38.1364 216.629C38.4866 214.668 38.9494 212.945 39.3807 211.378C39.8198 209.814 40.2546 208.455 40.631 207.261C40.999 206.107 41.32 205.1 41.5843 204.271C42.0554 202.684 42.3247 201.777 42.3247 201.777L53.0275 206.053Z" fill="#EF6764"/>
<path d="M53.3762 212.208C58.3643 198.331 64.8304 182.17 53.5476 182.852C46.6809 183.268 42.5635 190.442 38.495 206.793C43.3386 208.921 48.1736 211.361 53.3762 212.208Z" fill="#4B6EBE"/>
<path d="M52.4846 265.321C57.9052 263.963 63.2971 262.098 63.5342 255.244C63.5632 254.411 62.3518 254.413 62.3232 255.244C62.1085 261.44 56.9523 262.875 52.1629 264.076C51.4025 264.266 51.7248 265.512 52.4846 265.321Z" fill="#161D3A"/>
<path d="M71.629 245.47C71.5749 244.479 72.2855 243.625 73.216 243.568L122.674 240.497C123.605 240.439 124.405 241.198 124.459 242.189C124.513 243.183 123.801 244.036 122.871 244.094L73.4124 247.164C72.4818 247.222 71.6832 246.463 71.629 245.47Z" fill="#70D1F6"/>
<path d="M126.313 240.847C126.102 242.527 124.631 243.984 123.043 244.082L93.0823 245.943C93.2808 244.435 96.2914 220.442 96.2914 220.442C96.5016 218.762 97.9718 217.305 99.5599 217.206L126.617 215.526C128.204 215.428 129.331 216.723 129.121 218.404L126.313 240.847Z" fill="#80D6F7"/>
<path d="M116.521 230.761C116.371 233.073 114.803 234.84 113.02 234.706C111.236 234.574 109.915 232.591 110.066 230.279C110.219 227.967 111.786 226.201 113.569 226.335C115.352 226.467 116.672 228.451 116.521 230.761Z" fill="white"/>
<path d="M59.496 168.978C59.496 168.978 55.0755 157.839 62.2367 150.082C62.2367 150.082 68.2446 159.838 68.0473 160.483C67.8503 161.129 59.496 168.978 59.496 168.978Z" fill="#161D3A"/>
<path d="M65.6721 148.934C65.2025 149.878 61.2701 155.277 61.0427 156.371L59.5038 163.775C58.1472 170.3 62.0062 176.759 68.1242 178.205C74.2406 179.652 80.2988 175.538 81.6553 169.013L83.1942 161.608C83.4217 160.513 82.5532 152.992 82.5009 151.925L69.6721 147.82L65.6721 148.934Z" fill="#EF6764"/>
<path d="M69.4786 163.33C69.3171 164.105 69.5539 164.822 70.0069 164.929C70.4615 165.036 70.959 164.494 71.1198 163.718C71.2812 162.943 71.0454 162.227 70.591 162.12C70.1377 162.013 69.6393 162.554 69.4786 163.33Z" fill="#161D3A"/>
<path d="M78.2007 165.392C78.0398 166.167 78.2767 166.884 78.7303 166.991C79.184 167.097 79.682 166.555 79.843 165.78C80.0041 165.004 79.7682 164.289 79.3142 164.181C78.8607 164.074 78.3621 164.616 78.2007 165.392Z" fill="#161D3A"/>
<path d="M74.014 169.207L75.7963 169.629C75.9276 169.66 76.0576 169.572 76.0864 169.434C76.2619 168.588 76.1218 164.902 76.1164 164.745C76.1104 164.602 75.9982 164.493 75.8644 164.499C75.7315 164.503 75.6274 164.625 75.6326 164.766C75.6692 165.71 75.7326 168.121 75.6471 169.065L74.1184 168.703C73.9876 168.673 73.8586 168.761 73.8299 168.9C73.8012 169.039 73.8832 169.177 74.014 169.207Z" fill="#161D3A"/>
<path d="M73.8867 159.666C73.9256 159.394 74.0061 158.914 73.7295 158.719C73.233 158.37 72.5955 158.145 72.0263 158.167C71.3392 158.196 70.6555 158.292 69.9862 158.451C69.5931 158.544 69.1901 158.659 68.8136 158.808C68.4974 158.931 68.1244 159.12 68.0677 159.515C68.0374 159.71 68.005 160.057 68.2456 160.105C68.4348 160.145 68.6342 160.03 68.8157 159.993C69.2473 159.904 69.6934 159.872 70.1322 159.883C70.5828 159.891 71.0043 159.936 71.4386 160.072C71.8505 160.203 72.2263 160.406 72.6079 160.61C72.8616 160.746 73.1406 160.919 73.4145 160.734C73.7273 160.522 73.8323 160.028 73.8867 159.666Z" fill="#161D3A"/>
<path d="M77.2996 160.471C77.3713 160.207 77.4901 159.736 77.8178 159.685C78.4067 159.591 79.0734 159.674 79.5807 159.951C80.1915 160.288 80.7725 160.683 81.3155 161.129C81.6351 161.39 81.9556 161.676 82.2378 161.981C82.4744 162.234 82.7377 162.573 82.634 162.956C82.584 163.148 82.4752 163.477 82.2383 163.413C82.0506 163.362 81.9155 163.169 81.7663 163.053C81.4104 162.778 81.0188 162.548 80.6181 162.361C80.2044 162.164 79.8048 162.015 79.3585 161.943C78.9328 161.876 78.5121 161.89 78.0834 161.903C77.8011 161.914 77.4795 161.943 77.3048 161.653C77.1055 161.319 77.2054 160.825 77.2996 160.471Z" fill="#161D3A"/>
<path d="M80.9459 166.177L81.0817 166.168C81.2078 166.119 81.272 165.971 81.2268 165.835C80.3394 163.251 77.7848 163.88 77.7597 163.885C77.629 163.919 77.5502 164.058 77.5807 164.196C77.6126 164.333 77.7419 164.421 77.8724 164.388C77.9606 164.367 80.0345 163.866 80.7709 166.014C80.8006 166.101 80.8684 166.159 80.9459 166.177Z" fill="#161D3A"/>
<path d="M68.3217 163.194C68.3992 163.212 68.4846 163.189 68.5452 163.125C70.065 161.509 71.7452 162.896 71.8173 162.957C71.9213 163.045 72.0749 163.025 72.1569 162.914C72.2397 162.803 72.2225 162.642 72.1185 162.553C72.0978 162.534 70.032 160.815 68.2017 162.757C68.1089 162.859 68.1089 163.022 68.2031 163.124L68.3217 163.194Z" fill="#161D3A"/>
<path d="M69.5123 169.021C69.5968 169.081 69.6408 169.194 69.6127 169.305C69.3921 170.162 69.9894 170.756 70.1118 170.867C70.5664 171.277 71.2855 171.488 71.7863 171.1C71.8941 171.015 72.0469 171.041 72.1243 171.156C72.2037 171.272 72.1785 171.434 72.0708 171.516C71.3353 172.088 70.3764 171.781 69.7985 171.261C69.3313 170.838 68.9141 170.066 69.1456 169.168C69.181 169.031 69.3148 168.95 69.443 168.987L69.5123 169.021Z" fill="#161D3A"/>
<path d="M80.5763 155.672C80.5176 156.239 80.5783 156.8 80.7237 157.224C81.1184 158.378 82.2265 158.191 82.4945 159.349C82.7454 160.432 82.3369 161.978 82.1204 163.173C82.0012 163.834 81.9156 164.405 81.9087 165.058C81.9031 165.528 82.1526 166.59 82.0708 166.984C82.1905 166.407 82.3338 165.681 82.4701 165.059C82.7946 163.581 83.1893 162.085 83.6128 160.647C83.9258 159.585 84.3164 158.051 84.4905 156.597L80.5763 155.672Z" fill="#161D3A"/>
<path d="M86.9251 155.534C86.9739 155.474 87.0218 155.41 87.0695 155.346C89.4814 152.052 89.4559 144.152 84.2913 144.002C82.5282 143.952 80.9597 144.915 79.2881 145.345C77.6282 145.771 76.0948 145.414 74.4806 144.941C70.8617 143.879 67.3105 143.212 65.1277 147.161C64.9196 147.539 64.7303 147.931 64.5425 148.321C61.791 148.71 61.0913 152.982 60.9341 155.284C60.8311 156.798 60.6531 158.345 60.3729 159.833C60.2546 160.461 60.0919 161.182 59.9717 161.759C60.054 161.364 61.0147 160.589 61.2585 160.174C61.5969 159.6 62.0854 161.247 62.2505 160.597C62.5498 159.42 63.5226 156.465 64.4973 155.67C65.5408 154.823 66.0788 154.821 67.3175 154.054C67.9177 153.683 68.4145 153.02 68.5235 152.27C69.7158 153.396 70.9421 154.447 72.5371 154.803C74.0347 155.141 75.5886 154.91 77.0942 155.206C80.4431 155.868 84.1034 159.111 86.9251 155.534Z" fill="#161D3A"/>
<path d="M60.4496 157.743C58.8353 157.63 57.4931 159.082 57.9788 161.681C58.391 163.882 58.1903 165.806 59.8046 165.92C61.4187 166.033 62.8713 164.297 63.05 162.038C63.2281 159.78 62.0642 157.858 60.4496 157.743Z" fill="#EF6764"/>
<g clip-path="url(#clip1)">
<path d="M275.035 182.932C277.746 187.678 283.672 189.799 283.672 189.799C283.672 189.799 285.202 184.224 282.49 179.477C279.779 174.73 273.853 172.61 273.853 172.61C273.853 172.61 272.323 178.185 275.035 182.932Z" fill="#F1F1F1"/>
<path d="M277.001 181.42C282.02 184.26 283.858 189.759 283.858 189.759C283.858 189.759 277.559 190.653 272.54 187.813C267.521 184.974 265.683 179.475 265.683 179.475C265.683 179.475 271.982 178.58 277.001 181.42Z" fill="#F1F1F1"/>
<path d="M133.073 113.498H92.8177V131.767H133.073V113.498Z" fill="white"/>
<path d="M128.317 118.175H97.5739V119.113H128.317V118.175Z" fill="#6C63FF"/>
<path d="M128.317 122.164H97.5739V123.102H128.317V122.164Z" fill="#6C63FF"/>
<path d="M128.317 126.152H97.5739V127.091H128.317V126.152Z" fill="#6C63FF"/>
<path d="M133.39 132.053H92.5008V113.213H133.39V132.053ZM93.1347 131.482H132.756V113.784H93.1347V131.482Z" fill="#3F3D56"/>
<path d="M104.145 90.8072C95.623 90.8135 87.2678 88.6774 80.0203 84.6394L79.8362 84.5367L79.95 84.3709L104.025 49.2822H150.038V49.4773C150.038 72.2668 129.451 90.8072 104.145 90.8072Z" fill="#4B6EBE"/>
<path d="M74.6237 75.9085L74.4758 75.8261C66.3531 71.3031 60.4974 64.1169 58.1427 55.7819C55.7881 47.447 57.1185 38.6144 61.8534 31.1455L61.9398 31.0098L94.0808 47.5499L74.6237 75.9085Z" fill="#F1F1F1"/>
<path d="M150.038 43.7463H103.876L113.827 3.14551L114.039 3.18734C124.245 5.21898 133.377 10.3268 139.923 17.6663C146.469 25.0058 150.037 34.1373 150.038 43.5511V43.7463Z" fill="#4B6EBE"/>
<path d="M96.523 37.3518L65.2451 21.2558L65.3291 21.1237C69.1211 15.1583 74.9292 10.4392 81.9071 7.65407C88.8851 4.86892 96.6683 4.16321 104.123 5.63978L104.288 5.67247L96.523 37.3518Z" fill="#F1F1F1"/>
<path d="M213.585 0.285492H173.33V18.5545H213.585V0.285492Z" fill="white"/>
<path d="M208.829 4.9621H178.086V5.90062H208.829V4.9621Z" fill="#6C63FF"/>
<path d="M208.829 8.95074H178.086V9.88927H208.829V8.95074Z" fill="#6C63FF"/>
<path d="M208.829 12.9395H178.086V13.878H208.829V12.9395Z" fill="#6C63FF"/>
<path d="M213.902 18.84H173.013V0H213.902V18.84ZM173.647 18.2691H213.268V0.570908H173.647V18.2691Z" fill="#3F3D56"/>
<path d="M113.349 66.2164H112.715V113.213H113.349V66.2164Z" fill="#3F3D56"/>
<path d="M173.173 9.4412L125.583 28.8262L125.844 29.3464L173.434 9.96137L173.173 9.4412Z" fill="#3F3D56"/>
</g>
<rect x="370" y="99" width="166" height="157" fill="#333333"/>
<path d="M599.268 232.165L595.416 241.448C595.124 242.152 595.123 242.921 595.412 243.625C595.701 244.33 596.263 244.926 597.003 245.313C597.541 245.595 598.153 245.756 598.783 245.779C599.412 245.803 600.038 245.69 600.603 245.45C601.168 245.21 601.654 244.851 602.016 244.406C602.378 243.961 602.605 243.444 602.675 242.904L603.897 233.498L613.156 207.059L605.183 203.726L599.268 232.165Z" fill="#A0616A"/>
<path d="M596.053 302.263H601.711V254.717L588.852 254.495L596.053 302.263Z" fill="#A0616A"/>
<path d="M570.849 302.263H576.507V254.717L563.649 254.495L570.849 302.263Z" fill="#A0616A"/>
<path d="M602.612 259.716L587.952 258.383L584.866 244.385L579.208 258.605L561.72 257.05L568.921 233.498C582.084 225.771 594.586 225.94 606.469 233.498L602.612 259.716Z" fill="#2F2E41"/>
<path d="M577.757 304.288C577.844 304.892 577.77 305.504 577.54 306.079C577.31 306.653 576.93 307.175 576.43 307.602C575.93 308.03 575.322 308.353 574.655 308.545C573.988 308.738 573.278 308.796 572.58 308.714L562.157 307.493C561.225 307.367 560.389 306.927 559.832 306.269C559.275 305.612 559.042 304.79 559.186 303.984C559.315 303.258 559.741 302.595 560.387 302.117C561.033 301.638 561.856 301.375 562.706 301.375H564.425L570.079 296.924C570.135 299.956 572.719 299.283 576.99 298.987L577.757 304.288Z" fill="#2F2E41"/>
<path d="M602.961 304.288C603.048 304.892 602.974 305.504 602.744 306.079C602.514 306.653 602.134 307.175 601.634 307.602C601.133 308.03 600.526 308.353 599.859 308.545C599.191 308.738 598.482 308.796 597.784 308.714L587.361 307.493C586.429 307.367 585.592 306.927 585.035 306.269C584.478 305.612 584.246 304.79 584.389 303.984C584.519 303.258 584.945 302.595 585.591 302.117C586.237 301.638 587.059 301.375 587.91 301.375H589.629L595.283 296.924C595.339 299.956 597.923 299.283 602.194 298.987L602.961 304.288Z" fill="#2F2E41"/>
<path d="M582.873 178.842C587.88 178.842 591.938 175.335 591.938 171.01C591.938 166.685 587.88 163.178 582.873 163.178C577.866 163.178 573.807 166.685 573.807 171.01C573.807 175.335 577.866 178.842 582.873 178.842Z" fill="#A0616A"/>
<path d="M594.382 184.174L583.066 185.063V176.398L588.981 173.287L594.382 184.174Z" fill="#A0616A"/>
<path d="M607.755 236.831C596.371 229.629 582.701 230.361 567.635 235.942C574.461 219.248 577.369 203.689 572.007 190.527C572.007 188.201 572.903 185.942 574.554 184.105C576.205 182.268 578.516 180.958 581.124 180.382L583.066 179.953L592.581 180.397L601.517 184.922C603.339 185.845 604.852 187.162 605.906 188.743C606.96 190.325 607.52 192.116 607.529 193.941L607.755 236.831Z" fill="#E6E6E6"/>
<path d="M563.777 230.388L559.925 239.671C559.633 240.374 559.632 241.143 559.921 241.848C560.21 242.552 560.772 243.149 561.512 243.536C562.051 243.818 562.663 243.978 563.292 244.002C563.921 244.026 564.547 243.913 565.112 243.673C565.677 243.432 566.163 243.073 566.525 242.628C566.887 242.183 567.114 241.667 567.184 241.126L568.406 231.721L577.665 205.281L569.692 201.949L563.777 230.388Z" fill="#A0616A"/>
<path d="M615.213 212.169H602.611V185.507C604.791 186.553 606.685 187.992 608.164 189.726C609.643 191.46 610.673 193.448 611.184 195.557L615.213 212.169Z" fill="#E6E6E6"/>
<path d="M575.961 166.769C575.407 166.996 574.797 167.099 574.185 167.07C573.573 167.042 572.98 166.882 572.457 166.606C571.946 166.314 571.56 165.885 571.359 165.385C571.157 164.885 571.152 164.342 571.343 163.839C571.725 162.99 572.693 162.459 573.631 162.043C575.701 161.128 577.92 160.487 580.212 160.144C581.304 159.981 582.462 159.891 583.494 160.24C584.005 160.413 584.463 160.686 584.971 160.867C585.903 161.199 586.944 161.201 587.931 161.381C588.941 161.572 589.893 161.948 590.72 162.483C591.548 163.019 592.233 163.702 592.729 164.487C593.054 165.02 593.303 165.586 593.471 166.171C593.947 167.771 593.941 169.451 593.453 171.049C592.677 173.58 590.701 175.906 590.879 178.52C589.418 177.786 588.734 176.289 587.514 175.278C586.608 174.531 585.434 174.072 584.186 173.976C583.845 173.988 583.508 173.913 583.215 173.762C583.002 173.583 582.855 173.353 582.792 173.102L581.418 169.384C581.138 168.627 580.8 167.805 580.01 167.399C579.522 167.185 578.984 167.072 578.438 167.069C577.131 166.986 575.818 166.997 574.513 167.101" fill="#2F2E41"/>
<path d="M578.951 207.281L564.292 202.393L570.949 186.896C571.724 185.092 573.085 183.519 574.87 182.366C576.654 181.213 578.785 180.53 581.008 180.397L578.951 207.281Z" fill="#E6E6E6"/>
<path d="M405.643 155.769C407.732 155.769 409.425 154.306 409.425 152.501C409.425 150.697 407.732 149.234 405.643 149.234C403.554 149.234 401.861 150.697 401.861 152.501C401.861 154.306 403.554 155.769 405.643 155.769Z" fill="#E6E6E6"/>
<path d="M421.402 155.769C423.491 155.769 425.184 154.306 425.184 152.501C425.184 150.697 423.491 149.234 421.402 149.234C419.313 149.234 417.62 150.697 417.62 152.501C417.62 154.306 419.313 155.769 421.402 155.769Z" fill="#E6E6E6"/>
<path d="M437.161 155.769C439.25 155.769 440.943 154.306 440.943 152.501C440.943 150.697 439.25 149.234 437.161 149.234C435.072 149.234 433.379 150.697 433.379 152.501C433.379 154.306 435.072 155.769 437.161 155.769Z" fill="#059BFF"/>
<path d="M452.92 155.769C455.008 155.769 456.702 154.306 456.702 152.501C456.702 150.697 455.008 149.234 452.92 149.234C450.831 149.234 449.137 150.697 449.137 152.501C449.137 154.306 450.831 155.769 452.92 155.769Z" fill="#059BFF"/>
<path d="M468.679 155.769C470.767 155.769 472.461 154.306 472.461 152.501C472.461 150.697 470.767 149.234 468.679 149.234C466.59 149.234 464.896 150.697 464.896 152.501C464.896 154.306 466.59 155.769 468.679 155.769Z" fill="#059BFF"/>
<path d="M484.437 155.769C486.526 155.769 488.22 154.306 488.22 152.501C488.22 150.697 486.526 149.234 484.437 149.234C482.349 149.234 480.655 150.697 480.655 152.501C480.655 154.306 482.349 155.769 484.437 155.769Z" fill="#E6E6E6"/>
<path d="M500.196 155.769C502.285 155.769 503.979 154.306 503.979 152.501C503.979 150.697 502.285 149.234 500.196 149.234C498.108 149.234 496.414 150.697 496.414 152.501C496.414 154.306 498.108 155.769 500.196 155.769Z" fill="#E6E6E6"/>
<path d="M405.643 166.116C407.732 166.116 409.425 164.653 409.425 162.848C409.425 161.044 407.732 159.581 405.643 159.581C403.554 159.581 401.861 161.044 401.861 162.848C401.861 164.653 403.554 166.116 405.643 166.116Z" fill="#E6E6E6"/>
<path d="M421.402 166.116C423.491 166.116 425.184 164.653 425.184 162.848C425.184 161.044 423.491 159.581 421.402 159.581C419.313 159.581 417.62 161.044 417.62 162.848C417.62 164.653 419.313 166.116 421.402 166.116Z" fill="#E6E6E6"/>
<path d="M437.161 166.116C439.25 166.116 440.943 164.653 440.943 162.848C440.943 161.044 439.25 159.581 437.161 159.581C435.072 159.581 433.379 161.044 433.379 162.848C433.379 164.653 435.072 166.116 437.161 166.116Z" fill="#E6E6E6"/>
<path d="M452.92 166.116C455.008 166.116 456.702 164.653 456.702 162.848C456.702 161.044 455.008 159.581 452.92 159.581C450.831 159.581 449.137 161.044 449.137 162.848C449.137 164.653 450.831 166.116 452.92 166.116Z" fill="#E6E6E6"/>
<path d="M468.679 166.116C470.767 166.116 472.461 164.653 472.461 162.848C472.461 161.044 470.767 159.581 468.679 159.581C466.59 159.581 464.896 161.044 464.896 162.848C464.896 164.653 466.59 166.116 468.679 166.116Z" fill="#E6E6E6"/>
<path d="M484.437 166.116C486.526 166.116 488.22 164.653 488.22 162.848C488.22 161.044 486.526 159.581 484.437 159.581C482.349 159.581 480.655 161.044 480.655 162.848C480.655 164.653 482.349 166.116 484.437 166.116Z" fill="#E6E6E6"/>
<path d="M500.196 166.116C502.285 166.116 503.979 164.653 503.979 162.848C503.979 161.044 502.285 159.581 500.196 159.581C498.108 159.581 496.414 161.044 496.414 162.848C496.414 164.653 498.108 166.116 500.196 166.116Z" fill="#E6E6E6"/>
<path d="M405.643 176.463C407.732 176.463 409.425 175 409.425 173.195C409.425 171.391 407.732 169.928 405.643 169.928C403.554 169.928 401.861 171.391 401.861 173.195C401.861 175 403.554 176.463 405.643 176.463Z" fill="#059BFF"/>
<path d="M421.402 176.463C423.491 176.463 425.184 175 425.184 173.195C425.184 171.391 423.491 169.928 421.402 169.928C419.313 169.928 417.62 171.391 417.62 173.195C417.62 175 419.313 176.463 421.402 176.463Z" fill="#059BFF"/>
<path d="M437.161 176.463C439.25 176.463 440.943 175 440.943 173.195C440.943 171.391 439.25 169.928 437.161 169.928C435.072 169.928 433.379 171.391 433.379 173.195C433.379 175 435.072 176.463 437.161 176.463Z" fill="#059BFF"/>
<path d="M452.92 176.463C455.008 176.463 456.702 175 456.702 173.195C456.702 171.391 455.008 169.928 452.92 169.928C450.831 169.928 449.137 171.391 449.137 173.195C449.137 175 450.831 176.463 452.92 176.463Z" fill="#E6E6E6"/>
<path d="M468.679 176.463C470.767 176.463 472.461 175 472.461 173.195C472.461 171.391 470.767 169.928 468.679 169.928C466.59 169.928 464.896 171.391 464.896 173.195C464.896 175 466.59 176.463 468.679 176.463Z" fill="#E6E6E6"/>
<path d="M484.437 176.463C486.526 176.463 488.22 175 488.22 173.195C488.22 171.391 486.526 169.928 484.437 169.928C482.349 169.928 480.655 171.391 480.655 173.195C480.655 175 482.349 176.463 484.437 176.463Z" fill="#E6E6E6"/>
<path d="M500.196 176.463C502.285 176.463 503.979 175 503.979 173.195C503.979 171.391 502.285 169.928 500.196 169.928C498.108 169.928 496.414 171.391 496.414 173.195C496.414 175 498.108 176.463 500.196 176.463Z" fill="#E6E6E6"/>
<path d="M405.643 186.809C407.732 186.809 409.425 185.347 409.425 183.542C409.425 181.737 407.732 180.275 405.643 180.275C403.554 180.275 401.861 181.737 401.861 183.542C401.861 185.347 403.554 186.809 405.643 186.809Z" fill="#E6E6E6"/>
<path d="M421.402 186.809C423.491 186.809 425.184 185.347 425.184 183.542C425.184 181.737 423.491 180.275 421.402 180.275C419.313 180.275 417.62 181.737 417.62 183.542C417.62 185.347 419.313 186.809 421.402 186.809Z" fill="#E6E6E6"/>
<path d="M405.643 197.156C407.732 197.156 409.425 195.693 409.425 193.889C409.425 192.084 407.732 190.621 405.643 190.621C403.554 190.621 401.861 192.084 401.861 193.889C401.861 195.693 403.554 197.156 405.643 197.156Z" fill="#E6E6E6"/>
<path d="M421.402 197.156C423.491 197.156 425.184 195.693 425.184 193.889C425.184 192.084 423.491 190.621 421.402 190.621C419.313 190.621 417.62 192.084 417.62 193.889C417.62 195.693 419.313 197.156 421.402 197.156Z" fill="#E6E6E6"/>
<path d="M437.161 197.156C439.25 197.156 440.943 195.693 440.943 193.889C440.943 192.084 439.25 190.621 437.161 190.621C435.072 190.621 433.379 192.084 433.379 193.889C433.379 195.693 435.072 197.156 437.161 197.156Z" fill="#E6E6E6"/>
<path d="M437.161 186.809C439.25 186.809 440.943 185.347 440.943 183.542C440.943 181.737 439.25 180.275 437.161 180.275C435.072 180.275 433.379 181.737 433.379 183.542C433.379 185.347 435.072 186.809 437.161 186.809Z" fill="#E6E6E6"/>
<path d="M452.92 186.809C455.008 186.809 456.702 185.347 456.702 183.542C456.702 181.737 455.008 180.275 452.92 180.275C450.831 180.275 449.137 181.737 449.137 183.542C449.137 185.347 450.831 186.809 452.92 186.809Z" fill="#059BFF"/>
<path d="M468.679 186.809C470.767 186.809 472.461 185.347 472.461 183.542C472.461 181.737 470.767 180.275 468.679 180.275C466.59 180.275 464.896 181.737 464.896 183.542C464.896 185.347 466.59 186.809 468.679 186.809Z" fill="#059BFF"/>
<path d="M484.437 186.809C486.526 186.809 488.22 185.347 488.22 183.542C488.22 181.737 486.526 180.275 484.437 180.275C482.349 180.275 480.655 181.737 480.655 183.542C480.655 185.347 482.349 186.809 484.437 186.809Z" fill="#059BFF"/>
<path d="M500.196 186.809C502.285 186.809 503.979 185.347 503.979 183.542C503.979 181.737 502.285 180.275 500.196 180.275C498.108 180.275 496.414 181.737 496.414 183.542C496.414 185.347 498.108 186.809 500.196 186.809Z" fill="#E6E6E6"/>
<path d="M424.289 123.62C423.69 123.628 423.118 123.84 422.698 124.209C422.277 124.579 422.042 125.076 422.042 125.594C422.042 126.112 422.277 126.609 422.698 126.978C423.118 127.347 423.69 127.559 424.289 127.567H481.575C481.875 127.572 482.173 127.525 482.452 127.43C482.732 127.335 482.987 127.193 483.203 127.013C483.419 126.833 483.591 126.617 483.711 126.379C483.83 126.142 483.894 125.885 483.899 125.626C483.904 125.367 483.85 125.109 483.74 124.868C483.629 124.627 483.465 124.406 483.256 124.22C483.047 124.034 482.797 123.885 482.522 123.782C482.246 123.679 481.95 123.624 481.65 123.62C481.625 123.619 481.6 123.619 481.575 123.62H424.289Z" fill="#3F3D56"/>
<path d="M494.565 123.07C494.524 123.106 494.491 123.149 494.468 123.196C494.445 123.243 494.434 123.294 494.434 123.345C494.434 123.396 494.445 123.446 494.468 123.494C494.491 123.541 494.524 123.583 494.565 123.62L496.495 125.287H491.736C491.617 125.287 491.503 125.328 491.418 125.401C491.334 125.474 491.287 125.572 491.287 125.675C491.287 125.778 491.334 125.877 491.418 125.95C491.503 126.023 491.617 126.064 491.736 126.064H496.495L494.565 127.731C494.524 127.767 494.491 127.81 494.468 127.857C494.445 127.904 494.434 127.955 494.434 128.006C494.434 128.057 494.445 128.107 494.468 128.154C494.491 128.202 494.524 128.244 494.565 128.28C494.607 128.316 494.657 128.345 494.711 128.365C494.766 128.384 494.824 128.394 494.883 128.394C494.942 128.394 495.001 128.384 495.055 128.365C495.11 128.345 495.16 128.316 495.201 128.28L497.899 125.95C497.983 125.877 498.03 125.778 498.03 125.675C498.03 125.572 497.983 125.474 497.899 125.401L495.201 123.07C495.16 123.034 495.11 123.006 495.055 122.986C495.001 122.967 494.942 122.957 494.883 122.957C494.824 122.957 494.766 122.967 494.711 122.986C494.657 123.006 494.607 123.034 494.565 123.07Z" fill="#E6E6E6"/>
<path d="M411.274 123.07C411.315 123.106 411.349 123.149 411.371 123.196C411.394 123.243 411.405 123.294 411.405 123.345C411.405 123.396 411.394 123.446 411.371 123.494C411.349 123.541 411.315 123.583 411.274 123.62L409.344 125.287H414.103C414.222 125.287 414.337 125.328 414.421 125.401C414.505 125.474 414.553 125.572 414.553 125.675C414.553 125.778 414.505 125.877 414.421 125.95C414.337 126.023 414.222 126.064 414.103 126.064H409.344L411.274 127.731C411.358 127.804 411.405 127.903 411.405 128.006C411.405 128.109 411.358 128.208 411.274 128.28C411.189 128.353 411.075 128.394 410.956 128.394C410.837 128.394 410.722 128.353 410.638 128.28L407.94 125.95C407.856 125.877 407.809 125.778 407.809 125.675C407.809 125.572 407.856 125.474 407.94 125.401L410.638 123.07C410.68 123.034 410.729 123.006 410.784 122.986C410.838 122.967 410.897 122.956 410.956 122.956C411.015 122.956 411.073 122.967 411.128 122.986C411.182 123.006 411.232 123.034 411.274 123.07Z" fill="#E6E6E6"/>
<path d="M421.087 218.01C420.01 218.01 418.944 218.193 417.949 218.548C416.954 218.903 416.05 219.425 415.288 220.082C414.527 220.74 413.923 221.52 413.511 222.38C413.098 223.239 412.886 224.16 412.886 225.09C412.886 226.02 413.098 226.941 413.511 227.8C413.923 228.659 414.527 229.44 415.288 230.098C416.05 230.755 416.954 231.276 417.949 231.632C418.944 231.987 420.01 232.17 421.087 232.169H484.753C485.829 232.17 486.895 231.987 487.89 231.632C488.885 231.276 489.789 230.755 490.551 230.098C491.312 229.44 491.916 228.659 492.329 227.8C492.741 226.941 492.953 226.02 492.953 225.09C492.953 224.16 492.741 223.239 492.329 222.38C491.916 221.52 491.312 220.74 490.551 220.082C489.789 219.425 488.885 218.903 487.89 218.548C486.895 218.193 485.829 218.01 484.753 218.01H421.087Z" fill="#C0BCBC"/>
<defs>
<clipPath id="clip0">
<rect width="163" height="296" fill="white" transform="translate(180 63)"/>
</clipPath>
<clipPath id="clip1">
<rect width="248" height="190" fill="white" transform="translate(57)"/>
</clipPath>
</defs>
</svg>
