<svg id="visual" viewBox="0 0 900 600" width="900" height="600" xmlns="http://www.w3.org/2000/svg" xmlns:xlink="http://www.w3.org/1999/xlink" version="1.1"><rect x="0" y="0" width="900" height="600" fill="#fafafa"></rect><path d="M0 559L21.5 556.8C43 554.7 86 550.3 128.8 546.5C171.7 542.7 214.3 539.3 257.2 540.3C300 541.3 343 546.7 385.8 551.5C428.7 556.3 471.3 560.7 514.2 561.5C557 562.3 600 559.7 642.8 557.7C685.7 555.7 728.3 554.3 771.2 552C814 549.7 857 546.3 878.5 544.7L900 543L900 601L878.5 601C857 601 814 601 771.2 601C728.3 601 685.7 601 642.8 601C600 601 557 601 514.2 601C471.3 601 428.7 601 385.8 601C343 601 300 601 257.2 601C214.3 601 171.7 601 128.8 601C86 601 43 601 21.5 601L0 601Z" fill="#4FAAF8"></path></svg>