<svg id="visual" viewBox="0 0 900 600" width="900" height="600" xmlns="http://www.w3.org/2000/svg" xmlns:xlink="http://www.w3.org/1999/xlink" version="1.1"><rect x="0" y="0" width="900" height="600" fill="#fff"></rect><path d="M0 378L25 397C50 416 100 454 150 468.5C200 483 250 474 300 462.7C350 451.3 400 437.7 450 430.7C500 423.7 550 423.3 600 431.5C650 439.7 700 456.3 750 462.5C800 468.7 850 464.3 875 462.2L900 460L900 601L875 601C850 601 800 601 750 601C700 601 650 601 600 601C550 601 500 601 450 601C400 601 350 601 300 601C250 601 200 601 150 601C100 601 50 601 25 601L0 601Z" fill="#4faaf8" stroke-linecap="round" stroke-linejoin="miter"></path></svg>