<?xml version="1.0" encoding="utf-8"?><svg xmlns="http://www.w3.org/2000/svg" xmlns:xlink="http://www.w3.org/1999/xlink" width="1536" height="722" preserveAspectRatio="xMidYMid" viewBox="0 0 1536 722" style="z-index:1;display:block;background-color:rgb(153, 204, 255);animation-play-state:paused" ><g transform="translate(768,361) scale(1,1) translate(-768,-361)" style="animation-play-state:paused" ><defs style="animation-play-state:paused" ><linearGradient id="lg-0.8613046202073353" x1="0" x2="0" y1="0" y2="1" style="animation-play-state:paused" ><stop stop-color="#ffffff" offset="0" style="animation-play-state:paused" ></stop>

  
<stop stop-color="#e9f6ff" offset="1" style="animation-play-state:paused" ></stop></linearGradient></defs>


<rect x="0" y="0" width="1536" height="722" fill="url(#lg-0.8613046202073353)" style="animation-play-state:paused" ></rect>
<circle cx="0" cy="305.13250445094786" r="37.389579624210114" fill="#5accff" transform="matrix(1,0,0,1,0,0)" style="animation-play-state:paused" ></circle>
<circle cx="37.389579624210114" cy="265.80538038488936" r="73.75278951805157" fill="#5accff" transform="matrix(1,0,0,1,-0.005429745186120272,0)" style="animation-play-state:paused" ></circle>
<circle cx="111.14236914226169" cy="284.86218999517547" r="63.46610961746825" fill="#5accff" transform="matrix(1,0,0,1,-0.022117653861641884,0)" style="animation-play-state:paused" ></circle>
<circle cx="174.60847875972993" cy="269.5534050025811" r="86.76534624346444" fill="#5accff" transform="matrix(1,0,0,1,-0.050691839307546616,0)" style="animation-play-state:paused" ></circle>
<circle cx="261.3738250031944" cy="284.20216811885564" r="83.11969353774096" fill="#5accff" transform="matrix(1,0,0,1,-0.09182170033454895,0)" style="animation-play-state:paused" ></circle>
<circle cx="344.4935185409353" cy="312.0581210175645" r="57.33749921630386" fill="#5accff" transform="matrix(1,0,0,1,-0.14621886610984802,0)" style="animation-play-state:paused" ></circle>
<circle cx="401.8310177572392" cy="301.9401181116743" r="84.00035475461566" fill="#5accff" transform="matrix(1,0,0,1,-0.21463720500469208,0)" style="animation-play-state:paused" ></circle>
<circle cx="485.83137251185485" cy="319.799529107635" r="68.4991153806623" fill="#5accff" transform="matrix(1,0,0,1,-0.2978716492652893,0)" style="animation-play-state:paused" ></circle>
<circle cx="554.3304878925171" cy="335.50372087604995" r="43.42041383358938" fill="#5accff" transform="matrix(1,0,0,1,-0.3967548906803131,0)" style="animation-play-state:paused" ></circle>
<circle cx="597.7509017261065" cy="329.6573937696853" r="76.47187632357524" fill="#5accff" transform="matrix(1,0,0,1,-0.5121518969535828,0)" style="animation-play-state:paused" ></circle>
<circle cx="674.2227780496817" cy="344.33184670849715" r="38.68336074706578" fill="#5accff" transform="matrix(1,0,0,1,-0.6449503302574158,0)" style="animation-play-state:paused" ></circle>
<circle cx="712.9061387967474" cy="343.8440275300625" r="71.5110956958565" fill="#5accff" transform="matrix(1,0,0,1,-0.7960466742515564,0)" style="animation-play-state:paused" ></circle>
<circle cx="784.4172344926039" cy="348.39731892849363" r="62.47799446527731" fill="#5accff" transform="matrix(1,0,0,1,-0.9663257598876953,0)" style="animation-play-state:paused" ></circle>
<circle cx="846.8952289578813" cy="343.5637317653708" r="52.21116314095178" fill="#5accff" transform="matrix(1,0,0,1,-1.1566325426101685,0)" style="animation-play-state:paused" ></circle>
<circle cx="899.1063920988331" cy="336.67409059437364" r="65.0508482696382" fill="#5accff" transform="matrix(1,0,0,1,-1.3677335977554321,0)" style="animation-play-state:paused" ></circle>
<circle cx="964.1572403684713" cy="338.1872130647969" r="38.541445752033276" fill="#5accff" transform="matrix(1,0,0,1,-1.600266933441162,0)" style="animation-play-state:paused" ></circle>
<circle cx="1002.6986861205046" cy="329.57492589630186" r="55.69714787263464" fill="#5accff" transform="matrix(1,0,0,1,-1.8546782732009888,0)" style="animation-play-state:paused" ></circle>
<circle cx="1058.3958339931391" cy="311.6432983899689" r="84.53388842692517" fill="#5accff" transform="matrix(1,0,0,1,-2.131143808364868,0)" style="animation-play-state:paused" ></circle>
<circle cx="1142.9297224200643" cy="307.8609086958198" r="71.93086283103409" fill="#5accff" transform="matrix(1,0,0,1,-2.4294800758361816,0)" style="animation-play-state:paused" ></circle>
<circle cx="1214.8605852510984" cy="293.49048706046716" r="80.93371730464591" fill="#5accff" transform="matrix(1,0,0,1,-2.749046564102173,0)" style="animation-play-state:paused" ></circle>
<circle cx="1295.7943025557443" cy="318.5433169105701" r="38.14417298509733" fill="#5accff" transform="matrix(1,0,0,1,-3.0886495113372803,0)" style="animation-play-state:paused" ></circle>
<circle cx="1333.9384755408416" cy="286.72681094167035" r="71.55343336328549" fill="#5accff" transform="matrix(1,0,0,1,-3.4464612007141113,0)" style="animation-play-state:paused" ></circle>
<circle cx="1405.491908904127" cy="314.6843908972578" r="35.454551673618425" fill="#5accff" transform="matrix(1,0,0,1,-3.8199729919433594,0)" style="animation-play-state:paused" ></circle>
<circle cx="1440.9464605777455" cy="274.23621864291306" r="72.05449899670546" fill="#5accff" transform="matrix(1,0,0,1,-4.206000328063965,0)" style="animation-play-state:paused" ></circle>
<circle cx="1513.000959574451" cy="305.77705406691126" r="37.99013280914893" fill="#5accff" transform="matrix(1,0,0,1,-4.6007561683654785,0)" style="animation-play-state:paused" ></circle>
<circle cx="1550.9910923835998" cy="276.3989492641117" r="60.15990849598474" fill="#5accff" transform="matrix(1,0,0,1,-5,0)" style="animation-play-state:paused" ></circle>
<circle cx="0" cy="335.39625032031904" r="63.83645806640082" fill="#86d1ff" transform="matrix(1,0,0,1,0,0)" style="animation-play-state:paused" ></circle>
<circle cx="63.83645806640082" cy="376.03178690456525" r="32.69078134586087" fill="#86d1ff" transform="matrix(1,0,0,1,-0.022117653861641884,0)" style="animation-play-state:paused" ></circle>
<circle cx="96.5272394122617" cy="344.36500939255563" r="64.46485476324601" fill="#86d1ff" transform="matrix(1,0,0,1,-0.09182170033454895,0)" style="animation-play-state:paused" ></circle>
<circle cx="160.9920941755077" cy="341.0481501361635" r="74.80822486352392" fill="#86d1ff" transform="matrix(1,0,0,1,-0.21463720500469208,0)" style="animation-play-state:paused" ></circle>
<circle cx="235.80031903903162" cy="372.6031033578553" r="47.37698039473612" fill="#86d1ff" transform="matrix(1,0,0,1,-0.3967548906803131,0)" style="animation-play-state:paused" ></circle>
<circle cx="283.17729943376776" cy="384.3701478728861" r="36.47334446324507" fill="#86d1ff" transform="matrix(1,0,0,1,-0.6449503302574158,0)" style="animation-play-state:paused" ></circle>
<circle cx="319.65064389701286" cy="389.8804009726276" r="31.57480474727509" fill="#86d1ff" transform="matrix(1,0,0,1,-0.9663257598876953,0)" style="animation-play-state:paused" ></circle>
<circle cx="351.22544864428795" cy="365.97292997165863" r="70.6792790546297" fill="#86d1ff" transform="matrix(1,0,0,1,-1.3677335977554321,0)" style="animation-play-state:paused" ></circle>
<circle cx="421.90472769891767" cy="369.1417983112186" r="79.25346364442171" fill="#86d1ff" transform="matrix(1,0,0,1,-1.8546782732009888,0)" style="animation-play-state:paused" ></circle>
<circle cx="501.15819134333935" cy="381.53795526251287" r="73.06092223755103" fill="#86d1ff" transform="matrix(1,0,0,1,-2.4294800758361816,0)" style="animation-play-state:paused" ></circle>
<circle cx="574.2191135808904" cy="399.4429494334212" r="41.47216225045565" fill="#86d1ff" transform="matrix(1,0,0,1,-3.0886495113372803,0)" style="animation-play-state:paused" ></circle>
<circle cx="615.691275831346" cy="394.54608590013925" r="73.34120277668134" fill="#86d1ff" transform="matrix(1,0,0,1,-3.8199729919433594,0)" style="animation-play-state:paused" ></circle>
<circle cx="689.0324786080274" cy="400.7061237300643" r="91.53232475007927" fill="#86d1ff" transform="matrix(1,0,0,1,-4.6007561683654785,0)" style="animation-play-state:paused" ></circle>
<circle cx="780.5648033581067" cy="410.7967113126887" r="61.29063367970149" fill="#86d1ff" transform="matrix(1,0,0,1,-5.3992438316345215,0)" style="animation-play-state:paused" ></circle>
<circle cx="841.8554370378082" cy="407.2337674910236" r="41.302156321724866" fill="#86d1ff" transform="matrix(1,0,0,1,-6.180027008056641,0)" style="animation-play-state:paused" ></circle>
<circle cx="883.157593359533" cy="400.1700816246819" r="65.74597071133384" fill="#86d1ff" transform="matrix(1,0,0,1,-6.911350250244141,0)" style="animation-play-state:paused" ></circle>
<circle cx="948.9035640708669" cy="386.98763633072207" r="88.48865322557685" fill="#86d1ff" transform="matrix(1,0,0,1,-7.570519924163818,0)" style="animation-play-state:paused" ></circle>
<circle cx="1037.3922172964437" cy="374.47690112013095" r="89.14430982499358" fill="#86d1ff" transform="matrix(1,0,0,1,-8.1453218460083,0)" style="animation-play-state:paused" ></circle>
<circle cx="1126.5365271214373" cy="370.24047796625507" r="74.54217933154847" fill="#86d1ff" transform="matrix(1,0,0,1,-8.6322660446167,0)" style="animation-play-state:paused" ></circle>
<circle cx="1201.0787064529857" cy="385.7074001354853" r="38.85497869684843" fill="#86d1ff" transform="matrix(1,0,0,1,-9.033674240112305,0)" style="animation-play-state:paused" ></circle>
<circle cx="1239.933685149834" cy="345.69533102452425" r="89.91726905620608" fill="#86d1ff" transform="matrix(1,0,0,1,-9.355050086975098,0)" style="animation-play-state:paused" ></circle>
<circle cx="1329.8509542060401" cy="332.81148152030715" r="90.20301816274568" fill="#86d1ff" transform="matrix(1,0,0,1,-9.60324478149414,0)" style="animation-play-state:paused" ></circle>
<circle cx="1420.0539723687857" cy="377.50711646517476" r="33.85524266049995" fill="#86d1ff" transform="matrix(1,0,0,1,-9.78536319732666,0)" style="animation-play-state:paused" ></circle>
<circle cx="1453.9092150292856" cy="372.68955821734454" r="36.67931876352663" fill="#86d1ff" transform="matrix(1,0,0,1,-9.908178329467773,0)" style="animation-play-state:paused" ></circle>
<circle cx="1490.5885337928123" cy="357.96283301228823" r="47.8609682478739" fill="#86d1ff" transform="matrix(1,0,0,1,-9.977882385253906,0)" style="animation-play-state:paused" ></circle>
<circle cx="1538.4495020406862" cy="318.67071513283014" r="77.52713468797131" fill="#86d1ff" transform="matrix(1,0,0,1,-10,0)" style="animation-play-state:paused" ></circle>
<circle cx="0" cy="390.3509687681792" r="69.70752602651734" fill="#a7d6ff" transform="matrix(1,0,0,1,0,0)" style="animation-play-state:paused" ></circle>
<circle cx="69.70752602651734" cy="430.97797838286743" r="39.430603738699965" fill="#a7d6ff" transform="matrix(1,0,0,1,-0.05070226266980171,0)" style="animation-play-state:paused" ></circle>
<circle cx="109.13812976521731" cy="428.44411364610437" r="44.25171433293544" fill="#a7d6ff" transform="matrix(1,0,0,1,-0.21468262374401093,0)" style="animation-play-state:paused" ></circle>
<circle cx="153.38984409815276" cy="392.4317168789188" r="84.93790852006171" fill="#a7d6ff" transform="matrix(1,0,0,1,-0.5122634768486023,0)" style="animation-play-state:paused" ></circle>
<circle cx="238.32775261821448" cy="435.64539520140096" r="46.34365344312644" fill="#a7d6ff" transform="matrix(1,0,0,1,-0.9665420055389404,0)" style="animation-play-state:paused" ></circle>
<circle cx="284.6714060613409" cy="408.81951121156385" r="86.30880388155433" fill="#a7d6ff" transform="matrix(1,0,0,1,-1.6006320714950562,0)" style="animation-play-state:paused" ></circle>
<circle cx="370.98020994289527" cy="437.9994850784629" r="58.033201686167246" fill="#a7d6ff" transform="matrix(1,0,0,1,-2.4300365447998047,0)" style="animation-play-state:paused" ></circle>
<circle cx="429.0134116290625" cy="454.0480246919655" r="37.66893628006681" fill="#a7d6ff" transform="matrix(1,0,0,1,-3.447230339050293,0)" style="animation-play-state:paused" ></circle>
<circle cx="466.6823479091293" cy="434.4538610913299" r="83.99617057256266" fill="#a7d6ff" transform="matrix(1,0,0,1,-4.601711273193359,0)" style="animation-play-state:paused" ></circle>
<circle cx="550.678518481692" cy="449.09763201618625" r="73.33612580907308" fill="#a7d6ff" transform="matrix(1,0,0,1,-5.795055866241455,0)" style="animation-play-state:paused" ></circle>
<circle cx="624.0146442907651" cy="458.29307024493113" r="69.81567669662205" fill="#a7d6ff" transform="matrix(1,0,0,1,-6.912397861480713,0)" style="animation-play-state:paused" ></circle>
<circle cx="693.8303209873872" cy="469.2703805818538" r="40.8112380680362" fill="#a7d6ff" transform="matrix(1,0,0,1,-7.869804859161377,0)" style="animation-play-state:paused" ></circle>
<circle cx="734.6415590554234" cy="470.8555792891574" r="60.32743731287769" fill="#a7d6ff" transform="matrix(1,0,0,1,-8.633064270019531,0)" style="animation-play-state:paused" ></circle>
<circle cx="794.9689963683011" cy="471.0939156732282" r="68.96415215955292" fill="#a7d6ff" transform="matrix(1,0,0,1,-9.20457935333252,0)" style="animation-play-state:paused" ></circle>
<circle cx="863.933148527854" cy="463.00390007881776" r="73.35841737241971" fill="#a7d6ff" transform="matrix(1,0,0,1,-9.603693962097168,0)" style="animation-play-state:paused" ></circle>
<circle cx="937.2915659002737" cy="453.2887943545188" r="78.29788532357428" fill="#a7d6ff" transform="matrix(1,0,0,1,-9.854056358337402,0)" style="animation-play-state:paused" ></circle>
<circle cx="1015.589451223848" cy="439.9652114321439" r="87.97735354134426" fill="#a7d6ff" transform="matrix(1,0,0,1,-9.97799015045166,0)" style="animation-play-state:paused" ></circle>
<circle cx="1103.5668047651923" cy="452.67287918939456" r="40.675529059968916" fill="#a7d6ff" transform="matrix(1,0,0,1,-9.994514465332031,0)" style="animation-play-state:paused" ></circle>
<circle cx="1144.2423338251613" cy="423.7736234156648" r="85.43664049487886" fill="#a7d6ff" transform="matrix(1,0,0,1,-9.907920837402344,0)" style="animation-play-state:paused" ></circle>
<circle cx="1229.6789743200402" cy="411.72875370882974" r="86.32318091818078" fill="#a7d6ff" transform="matrix(1,0,0,1,-9.70160961151123,0)" style="animation-play-state:paused" ></circle>
<circle cx="1316.002155238221" cy="407.106322503961" r="78.12369566111339" fill="#a7d6ff" transform="matrix(1,0,0,1,-9.354198455810547,0)" style="animation-play-state:paused" ></circle>
<circle cx="1394.1258508993342" cy="423.54764975848474" r="51.5703098797004" fill="#a7d6ff" transform="matrix(1,0,0,1,-8.842103004455566,0)" style="animation-play-state:paused" ></circle>
<circle cx="1445.6961607790345" cy="412.8964044124054" r="57.704770130476376" fill="#a7d6ff" transform="matrix(1,0,0,1,-8.143568992614746,0)" style="animation-play-state:paused" ></circle>
<circle cx="1503.4009309095109" cy="383.15059975609245" r="79.06383268265847" fill="#a7d6ff" transform="matrix(1,0,0,1,-7.248676776885986,0)" style="animation-play-state:paused" ></circle>
<circle cx="0" cy="469.62174570365494" r="55.3152119136209" fill="#c2dcff" transform="matrix(1,0,0,1,0,0)" style="animation-play-state:paused" ></circle>
<circle cx="55.3152119136209" cy="457.7140066920419" r="70.30181723342827" fill="#c2dcff" transform="matrix(1,0,0,1,-0.09182170033454895,0)" style="animation-play-state:paused" ></circle>
<circle cx="125.61702914704917" cy="447.8707359039093" r="87.80234156364227" fill="#c2dcff" transform="matrix(1,0,0,1,-0.3967548906803131,0)" style="animation-play-state:paused" ></circle>
<circle cx="213.41937071069145" cy="496.4983471508631" r="45.58590128877226" fill="#c2dcff" transform="matrix(1,0,0,1,-0.9663257598876953,0)" style="animation-play-state:paused" ></circle>
<circle cx="259.00527199946373" cy="478.0667449869301" r="72.84413996587739" fill="#c2dcff" transform="matrix(1,0,0,1,-1.8546782732009888,0)" style="animation-play-state:paused" ></circle>
<circle cx="331.8494119653411" cy="478.85760390893114" r="83.84978606374804" fill="#c2dcff" transform="matrix(1,0,0,1,-3.0886495113372803,0)" style="animation-play-state:paused" ></circle>
<circle cx="415.6991980290892" cy="494.3337902267952" r="75.6920623105845" fill="#c2dcff" transform="matrix(1,0,0,1,-4.6007561683654785,0)" style="animation-play-state:paused" ></circle>
<circle cx="491.3912603396737" cy="502.68048442110137" r="77.09261101685173" fill="#c2dcff" transform="matrix(1,0,0,1,-6.180027008056641,0)" style="animation-play-state:paused" ></circle>
<circle cx="568.4838713565255" cy="521.4796101754888" r="46.57793608402134" fill="#c2dcff" transform="matrix(1,0,0,1,-7.570519924163818,0)" style="animation-play-state:paused" ></circle>
<circle cx="615.0618074405468" cy="516.9003024873912" r="79.92644743279382" fill="#c2dcff" transform="matrix(1,0,0,1,-8.6322660446167,0)" style="animation-play-state:paused" ></circle>
<circle cx="694.9882548733406" cy="531.1381518045486" r="42.617565703860045" fill="#c2dcff" transform="matrix(1,0,0,1,-9.355050086975098,0)" style="animation-play-state:paused" ></circle>
<circle cx="737.6058205772006" cy="533.4576443011977" r="53.53352773896513" fill="#c2dcff" transform="matrix(1,0,0,1,-9.78536319732666,0)" style="animation-play-state:paused" ></circle>
<circle cx="791.1393483161658" cy="534.1834850287693" r="50.242105598777314" fill="#c2dcff" transform="matrix(1,0,0,1,-9.977882385253906,0)" style="animation-play-state:paused" ></circle>
<circle cx="841.3814539149431" cy="531.5973365168943" r="38.39804853762746" fill="#c2dcff" transform="matrix(1,0,0,1,-9.977882385253906,0)" style="animation-play-state:paused" ></circle>
<circle cx="879.7795024525706" cy="528.4886596987164" r="43.006612906165586" fill="#c2dcff" transform="matrix(1,0,0,1,-9.78536319732666,0)" style="animation-play-state:paused" ></circle>
<circle cx="922.7861153587362" cy="517.3806962516487" r="76.98593876671153" fill="#c2dcff" transform="matrix(1,0,0,1,-9.355050086975098,0)" style="animation-play-state:paused" ></circle>
<circle cx="999.7720541254478" cy="507.47849937120094" r="78.75738285751858" fill="#c2dcff" transform="matrix(1,0,0,1,-8.6322660446167,0)" style="animation-play-state:paused" ></circle>
<circle cx="1078.5294369829664" cy="504.7397325344269" r="64.42729350346329" fill="#c2dcff" transform="matrix(1,0,0,1,-7.570519924163818,0)" style="animation-play-state:paused" ></circle>
<circle cx="1142.9567304864297" cy="492.1231055507578" r="74.89187462000046" fill="#c2dcff" transform="matrix(1,0,0,1,-6.180027008056641,0)" style="animation-play-state:paused" ></circle>
<circle cx="1217.84860510643" cy="501.20093139582934" r="49.50866503498439" fill="#c2dcff" transform="matrix(1,0,0,1,-4.6007561683654785,0)" style="animation-play-state:paused" ></circle>
<circle cx="1267.3572701414146" cy="469.10499804214146" r="85.73581243926853" fill="#c2dcff" transform="matrix(1,0,0,1,-3.0886495113372803,0)" style="animation-play-state:paused" ></circle>
<circle cx="1353.0930825806831" cy="487.79174882539" r="52.73226033653507" fill="#c2dcff" transform="matrix(1,0,0,1,-1.8546782732009888,0)" style="animation-play-state:paused" ></circle>
<circle cx="1405.8253429172182" cy="446.6817107619088" r="89.62281876560289" fill="#c2dcff" transform="matrix(1,0,0,1,-0.9663257598876953,0)" style="animation-play-state:paused" ></circle>
<circle cx="1495.4481616828211" cy="432.594654048576" r="90.97475929531132" fill="#c2dcff" transform="matrix(1,0,0,1,-0.3967548906803131,0)" style="animation-play-state:paused" ></circle>
<circle cx="0" cy="547.2653768375892" r="42.27885263534233" fill="#d8e3ff" transform="matrix(1,0,0,1,0,0)" style="animation-play-state:paused" ></circle>
<circle cx="42.27885263534233" cy="558.0726209539073" r="35.2112139522087" fill="#d8e3ff" transform="matrix(1,0,0,1,-0.14621886610984802,0)" style="animation-play-state:paused" ></circle>
<circle cx="77.49006658755104" cy="527.5421020355652" r="65.30399131898326" fill="#d8e3ff" transform="matrix(1,0,0,1,-0.6449503302574158,0)" style="animation-play-state:paused" ></circle>
<circle cx="142.7940579065343" cy="519.5352267644881" r="80.32146128134575" fill="#d8e3ff" transform="matrix(1,0,0,1,-1.600266933441162,0)" style="animation-play-state:paused" ></circle>
<circle cx="223.11551918788007" cy="533.5940267390243" r="75.64873718845614" fill="#d8e3ff" transform="matrix(1,0,0,1,-3.0886495113372803,0)" style="animation-play-state:paused" ></circle>
<circle cx="298.7642563763362" cy="562.2294031505676" r="48.788231277618806" fill="#d8e3ff" transform="matrix(1,0,0,1,-5,0)" style="animation-play-state:paused" ></circle>
<circle cx="347.55248765395504" cy="558.1554060514977" r="60.650947807376944" fill="#d8e3ff" transform="matrix(1,0,0,1,-6.911350250244141,0)" style="animation-play-state:paused" ></circle>
<circle cx="408.203435461332" cy="574.7895227975192" r="41.28640146587964" fill="#d8e3ff" transform="matrix(1,0,0,1,-8.399733543395996,0)" style="animation-play-state:paused" ></circle>
<circle cx="449.4898369272116" cy="559.4058099757721" r="77.54943006280526" fill="#d8e3ff" transform="matrix(1,0,0,1,-9.355050086975098,0)" style="animation-play-state:paused" ></circle>
<circle cx="527.0392669900169" cy="571.1767042474559" r="71.24359669389376" fill="#d8e3ff" transform="matrix(1,0,0,1,-9.853780746459961,0)" style="animation-play-state:paused" ></circle>
<circle cx="598.2828636839107" cy="576.8141744695793" r="79.89133350810539" fill="#d8e3ff" transform="matrix(1,0,0,1,-10,0)" style="animation-play-state:paused" ></circle>
<circle cx="678.1741971920161" cy="586.5653120929982" r="81.47102538148086" fill="#d8e3ff" transform="matrix(1,0,0,1,-9.853780746459961,0)" style="animation-play-state:paused" ></circle>
<circle cx="759.645222573497" cy="596.9586232937166" r="79.77245329206848" fill="#d8e3ff" transform="matrix(1,0,0,1,-9.355050086975098,0)" style="animation-play-state:paused" ></circle>
<circle cx="839.4176758655655" cy="593.004840347018" r="44.76345861389004" fill="#d8e3ff" transform="matrix(1,0,0,1,-8.399733543395996,0)" style="animation-play-state:paused" ></circle>
<circle cx="884.1811344794555" cy="584.4134251952254" r="74.84354421236418" fill="#d8e3ff" transform="matrix(1,0,0,1,-6.911350250244141,0)" style="animation-play-state:paused" ></circle>
<circle cx="959.0246786918196" cy="582.7417875346471" r="51.120389494700746" fill="#d8e3ff" transform="matrix(1,0,0,1,-5,0)" style="animation-play-state:paused" ></circle>
<circle cx="1010.1450681865203" cy="567.5106508739983" r="80.58468250780321" fill="#d8e3ff" transform="matrix(1,0,0,1,-3.0886495113372803,0)" style="animation-play-state:paused" ></circle>
<circle cx="1090.7297506943235" cy="577.9556478241886" r="39.74962136251821" fill="#d8e3ff" transform="matrix(1,0,0,1,-1.600266933441162,0)" style="animation-play-state:paused" ></circle>
<circle cx="1130.4793720568416" cy="566.1106918032332" r="56.30432741626568" fill="#d8e3ff" transform="matrix(1,0,0,1,-0.6449503302574158,0)" style="animation-play-state:paused" ></circle>
<circle cx="1186.7836994731074" cy="569.9548865043549" r="42.85953025343439" fill="#d8e3ff" transform="matrix(1,0,0,1,-0.14621886610984802,0)" style="animation-play-state:paused" ></circle>
<circle cx="1229.6432297265417" cy="574.9660130760898" r="31.933213100590557" fill="#d8e3ff" transform="matrix(1,0,0,1,0,0)" style="animation-play-state:paused" ></circle>
<circle cx="1261.5764428271323" cy="535.2527175039661" r="81.36178575995471" fill="#d8e3ff" transform="matrix(1,0,0,1,-0.14621886610984802,0)" style="animation-play-state:paused" ></circle>
<circle cx="1342.938228587087" cy="559.3374745367831" r="43.03769529687968" fill="#d8e3ff" transform="matrix(1,0,0,1,-0.6449503302574158,0)" style="animation-play-state:paused" ></circle>
<circle cx="1385.9759238839667" cy="551.9513918015984" r="47.68973694274627" fill="#d8e3ff" transform="matrix(1,0,0,1,-1.600266933441162,0)" style="animation-play-state:paused" ></circle>
<circle cx="1433.665660826713" cy="510.5369521617238" r="84.09078898102969" fill="#d8e3ff" transform="matrix(1,0,0,1,-3.0886495113372803,0)" style="animation-play-state:paused" ></circle>
<circle cx="1517.7564498077427" cy="532.0102569307775" r="56.32953951264062" fill="#d8e3ff" transform="matrix(1,0,0,1,-5,0)" style="animation-play-state:paused" ></circle>
<circle cx="1574.0859893203833" cy="544.2660424776924" r="42.6626107758939" fill="#d8e3ff" transform="matrix(1,0,0,1,-6.911350250244141,0)" style="animation-play-state:paused" ></circle>
<circle cx="0" cy="557.4814736435284" r="85.4321052970597" fill="#e9ebff" transform="matrix(1,0,0,1,0,0)" style="animation-play-state:paused" ></circle>
<circle cx="85.4321052970597" cy="601.0119462089418" r="55.30930288291305" fill="#e9ebff" transform="matrix(1,0,0,1,-0.21454641222953796,0)" style="animation-play-state:paused" ></circle>
<circle cx="140.74140817997275" cy="605.9876350926235" r="55.10950984413015" fill="#e9ebff" transform="matrix(1,0,0,1,-0.965893566608429,0)" style="animation-play-state:paused" ></circle>
<circle cx="195.8509180241029" cy="580.1141856601738" r="89.35943932816201" fill="#e9ebff" transform="matrix(1,0,0,1,-2.428367853164673,0)" style="animation-play-state:paused" ></circle>
<circle cx="285.2103573522649" cy="617.4304706979876" r="56.43140686256755" fill="#e9ebff" transform="matrix(1,0,0,1,-4.59884786605835,0)" style="animation-play-state:paused" ></circle>
<circle cx="341.64176421483245" cy="608.1343488446406" r="77.85475675942074" fill="#e9ebff" transform="matrix(1,0,0,1,-6.9092559814453125,0)" style="animation-play-state:paused" ></circle>
<circle cx="419.4965209742532" cy="618.7963833826201" r="75.66729235771834" fill="#e9ebff" transform="matrix(1,0,0,1,-8.630669593811035,0)" style="animation-play-state:paused" ></circle>
<circle cx="495.16381333197154" cy="638.0124322521866" r="51.57689502427565" fill="#e9ebff" transform="matrix(1,0,0,1,-9.602346420288086,0)" style="animation-play-state:paused" ></circle>
<circle cx="546.7407083562472" cy="646.0568255903569" r="40.331104541993334" fill="#e9ebff" transform="matrix(1,0,0,1,-9.977665901184082,0)" style="animation-play-state:paused" ></circle>
<circle cx="587.0718128982405" cy="644.3774946949422" r="55.26172320299398" fill="#e9ebff" transform="matrix(1,0,0,1,-9.908692359924316,0)" style="animation-play-state:paused" ></circle>
<circle cx="642.3335361012345" cy="649.8567601870055" r="51.65796250578035" fill="#e9ebff" transform="matrix(1,0,0,1,-9.356749534606934,0)" style="animation-play-state:paused" ></circle>
<circle cx="693.9914986070148" cy="651.7552761677389" r="71.29752870725306" fill="#e9ebff" transform="matrix(1,0,0,1,-8.148822784423828,0)" style="animation-play-state:paused" ></circle>
<circle cx="765.2890273142679" cy="659.7789093539201" r="52.1945551999917" fill="#e9ebff" transform="matrix(1,0,0,1,-6.185501575469971,0)" style="animation-play-state:paused" ></circle>
<circle cx="817.4835825142595" cy="654.9882514522811" r="64.81986363084776" fill="#e9ebff" transform="matrix(1,0,0,1,-3.825906753540039,0)" style="animation-play-state:paused" ></circle>
<circle cx="882.3034461451073" cy="654.389716000731" r="31.412716594510343" fill="#e9ebff" transform="matrix(1,0,0,1,-1.8591398000717163,0)" style="animation-play-state:paused" ></circle>
<circle cx="913.7161627396176" cy="644.7746622441111" r="66.87121030754142" fill="#e9ebff" transform="matrix(1,0,0,1,-0.6475051641464233,0)" style="animation-play-state:paused" ></circle>
<circle cx="980.5873730471591" cy="647.2823545449684" r="38.286813438419415" fill="#e9ebff" transform="matrix(1,0,0,1,-0.09273867309093475,0)" style="animation-play-state:paused" ></circle>
<circle cx="1018.8741864855785" cy="637.4295463739118" r="57.57902207099659" fill="#e9ebff" transform="matrix(1,0,0,1,-0.02166074886918068,0)" style="animation-play-state:paused" ></circle>
<circle cx="1076.4532085565752" cy="641.3253640308" r="38.74742323549505" fill="#e9ebff" transform="matrix(1,0,0,1,-0.3944481611251831,0)" style="animation-play-state:paused" ></circle>
<circle cx="1115.2006317920702" cy="615.351890486748" r="82.30051293683717" fill="#e9ebff" transform="matrix(1,0,0,1,-1.3626848459243774,0)" style="animation-play-state:paused" ></circle>
<circle cx="1197.5011447289073" cy="636.2929958989732" r="35.32582581178853" fill="#e9ebff" transform="matrix(1,0,0,1,-3.0802788734436035,0)" style="animation-play-state:paused" ></circle>
<circle cx="1232.8269705406958" cy="627.3209209369194" r="44.99439990765442" fill="#e9ebff" transform="matrix(1,0,0,1,-5.38922119140625,0)" style="animation-play-state:paused" ></circle>
<circle cx="1277.8213704483503" cy="589.9357575265076" r="87.95456169991597" fill="#e9ebff" transform="matrix(1,0,0,1,-7.562353610992432,0)" style="animation-play-state:paused" ></circle>
<circle cx="1365.7759321482663" cy="587.8825699073503" r="77.21146465938337" fill="#e9ebff" transform="matrix(1,0,0,1,-9.028695106506348,0)" style="animation-play-state:paused" ></circle>
<circle cx="1442.9873968076497" cy="608.9477440221453" r="48.406005771894286" fill="#e9ebff" transform="matrix(1,0,0,1,-9.783177375793457,0)" style="animation-play-state:paused" ></circle>
<circle cx="1491.393402579544" cy="580.1695520002047" r="70.6275265127967" fill="#e9ebff" transform="matrix(1,0,0,1,-9.999995231628418,0)" style="animation-play-state:paused" ></circle>
<circle cx="1562.0209290923408" cy="587.5909425251602" r="58.36344494958284" fill="#e9ebff" transform="matrix(1,0,0,1,-9.78771686553955,0)" style="animation-play-state:paused" ></circle>
<circle cx="0" cy="674.3543895715137" r="39.7046753570719" fill="#f6f4ff" transform="matrix(1,0,0,1,0,0)" style="animation-play-state:paused" ></circle>
<circle cx="39.7046753570719" cy="618.1977639912316" r="91.21770907726626" fill="#f6f4ff" transform="matrix(1,0,0,1,-0.2976807951927185,0)" style="animation-play-state:paused" ></circle>
<circle cx="130.92238443433817" cy="629.7017439460203" r="92.7216440058059" fill="#f6f4ff" transform="matrix(1,0,0,1,-1.3668028116226196,0)" style="animation-play-state:paused" ></circle>
<circle cx="223.64402844014407" cy="684.5249972475269" r="44.05940784089578" fill="#f6f4ff" transform="matrix(1,0,0,1,-3.44415545463562,0)" style="animation-play-state:paused" ></circle>
<circle cx="267.70343628103984" cy="679.8189625583547" r="53.959722933091804" fill="#f6f4ff" transform="matrix(1,0,0,1,-6.176832675933838,0)" style="animation-play-state:paused" ></circle>
<circle cx="321.66315921413167" cy="674.8664416170449" r="67.58455634533487" fill="#f6f4ff" transform="matrix(1,0,0,1,-8.397176742553711,0)" style="animation-play-state:paused" ></circle>
<circle cx="389.24771555946654" cy="678.538344700983" r="73.43971385534472" fill="#f6f4ff" transform="matrix(1,0,0,1,-9.601896286010742,0)" style="animation-play-state:paused" ></circle>
<circle cx="462.6874294148113" cy="699.0348176522452" r="48.139900281184254" fill="#f6f4ff" transform="matrix(1,0,0,1,-9.994407653808594,0)" style="animation-play-state:paused" ></circle>
<circle cx="510.82732969599556" cy="701.02084073112" r="52.20874331713215" fill="#f6f4ff" transform="matrix(1,0,0,1,-9.78663158416748,0)" style="animation-play-state:paused" ></circle>
<circle cx="563.0360730131277" cy="696.5172599531338" r="79.56987295154111" fill="#f6f4ff" transform="matrix(1,0,0,1,-8.847153663635254,0)" style="animation-play-state:paused" ></circle>
<circle cx="642.6059459646689" cy="714.0481644582081" r="40.58545507518916" fill="#f6f4ff" transform="matrix(1,0,0,1,-6.918674468994141,0)" style="animation-play-state:paused" ></circle>
<circle cx="683.1914010398581" cy="714.4210442585687" r="57.19386635305322" fill="#f6f4ff" transform="matrix(1,0,0,1,-4.215033531188965,0)" style="animation-play-state:paused" ></circle>
<circle cx="740.3852673929113" cy="717.9892052892756" r="92.95431722575307" fill="#f6f4ff" transform="matrix(1,0,0,1,-1.8613722324371338,0)" style="animation-play-state:paused" ></circle>
<circle cx="833.3395846186643" cy="718.2529316109205" r="36.70246425664945" fill="#f6f4ff" transform="matrix(1,0,0,1,-0.515541136264801,0)" style="animation-play-state:paused" ></circle>
<circle cx="870.0420488753138" cy="709.1443064713959" r="80.62993588417723" fill="#f6f4ff" transform="matrix(1,0,0,1,-0.0227847658097744,0)" style="animation-play-state:paused" ></circle>
<circle cx="950.671984759491" cy="712.3240018709939" r="33.900320351351134" fill="#f6f4ff" transform="matrix(1,0,0,1,-0.14429610967636108,0)" style="animation-play-state:paused" ></circle>
<circle cx="984.5723051108422" cy="701.513191591588" r="60.54124683519976" fill="#f6f4ff" transform="matrix(1,0,0,1,-0.9602856040000916,0)" style="animation-play-state:paused" ></circle>
<circle cx="1045.113551946042" cy="689.3237310263308" r="75.4665803829771" fill="#f6f4ff" transform="matrix(1,0,0,1,-2.737287998199463,0)" style="animation-play-state:paused" ></circle>
<circle cx="1120.580132329019" cy="680.515339298831" r="75.30254944703515" fill="#f6f4ff" transform="matrix(1,0,0,1,-5.384210586547852,0)" style="animation-play-state:paused" ></circle>
<circle cx="1195.8826817760541" cy="668.1257396109544" r="80.58172980002769" fill="#f6f4ff" transform="matrix(1,0,0,1,-7.857372283935547,0)" style="animation-play-state:paused" ></circle>
<circle cx="1276.4644115760818" cy="682.3959156878188" r="49.84933730411795" fill="#f6f4ff" transform="matrix(1,0,0,1,-9.349080085754395,0)" style="animation-play-state:paused" ></circle>
<circle cx="1326.3137488801997" cy="645.5239907346366" r="87.66512740909566" fill="#f6f4ff" transform="matrix(1,0,0,1,-9.94776439666748,0)" style="animation-play-state:paused" ></circle>
<circle cx="1413.9788762892954" cy="638.890940106215" r="82.339841571231" fill="#f6f4ff" transform="matrix(1,0,0,1,-9.910364151000977,0)" style="animation-play-state:paused" ></circle>
<circle cx="1496.3187178605265" cy="627.4227658088095" r="83.10843645508696" fill="#f6f4ff" transform="matrix(1,0,0,1,-9.21168327331543,0)" style="animation-play-state:paused" ></circle>
<circle cx="1579.4271543156135" cy="677.387565133794" r="35.18733402316752" fill="#f6f4ff" transform="matrix(1,0,0,1,-7.586066722869873,0)" style="animation-play-state:paused" ></circle>
<circle cx="0" cy="732.2523882721813" r="43.1230097731823" fill="#ffffff" transform="matrix(1,0,0,1,0,0)" style="animation-play-state:paused" ></circle>
<circle cx="43.1230097731823" cy="684.1887613719041" r="88.12418325210359" fill="#ffffff" transform="matrix(1,0,0,1,-0.3967548906803131,0)" style="animation-play-state:paused" ></circle>
<circle cx="131.2471930252859" cy="722.4002344164231" r="61.91390056181521" fill="#ffffff" transform="matrix(1,0,0,1,-1.8546782732009888,0)" style="animation-play-state:paused" ></circle>
<circle cx="193.1610935871011" cy="744.176253827045" r="44.33798280936834" fill="#ffffff" transform="matrix(1,0,0,1,-4.6007561683654785,0)" style="animation-play-state:paused" ></circle>
<circle cx="237.49907639646943" cy="733.548436548967" r="60.86511666998027" fill="#ffffff" transform="matrix(1,0,0,1,-7.570519924163818,0)" style="animation-play-state:paused" ></circle>
<circle cx="298.36419306644973" cy="747.4278698520419" r="49.83896659737655" fill="#ffffff" transform="matrix(1,0,0,1,-9.355050086975098,0)" style="animation-play-state:paused" ></circle>
<circle cx="348.2031596638263" cy="740.6217346737568" r="66.13220286880606" fill="#ffffff" transform="matrix(1,0,0,1,-9.977882385253906,0)" style="animation-play-state:paused" ></circle>
<circle cx="414.33536253263236" cy="736.1349381868818" r="86.61776246493457" fill="#ffffff" transform="matrix(1,0,0,1,-9.78536319732666,0)" style="animation-play-state:paused" ></circle>
<circle cx="500.95312499756693" cy="752.585013454672" r="75.28862260165646" fill="#ffffff" transform="matrix(1,0,0,1,-8.6322660446167,0)" style="animation-play-state:paused" ></circle>
<circle cx="576.2417475992233" cy="758.1129175479257" r="86.39906007643836" fill="#ffffff" transform="matrix(1,0,0,1,-6.180027008056641,0)" style="animation-play-state:paused" ></circle>
<circle cx="662.6408076756617" cy="770.8044318133509" r="80.15592615267789" fill="#ffffff" transform="matrix(1,0,0,1,-3.0886495113372803,0)" style="animation-play-state:paused" ></circle>
<circle cx="742.7967338283396" cy="780.7081176708617" r="83.59252631381162" fill="#ffffff" transform="matrix(1,0,0,1,-0.9663257598876953,0)" style="animation-play-state:paused" ></circle>
<circle cx="826.3892601421512" cy="777.7832401750524" r="68.14140611270149" fill="#ffffff" transform="matrix(1,0,0,1,-0.09182170033454895,0)" style="animation-play-state:paused" ></circle>
<circle cx="894.5306662548527" cy="773.6627686284614" r="52.28636087681184" fill="#ffffff" transform="matrix(1,0,0,1,-0.09182170033454895,0)" style="animation-play-state:paused" ></circle>
<circle cx="946.8170271316645" cy="768.4802495837428" r="55.546389657239835" fill="#ffffff" transform="matrix(1,0,0,1,-0.9663257598876953,0)" style="animation-play-state:paused" ></circle>
<circle cx="1002.3634167889044" cy="762.7555678547722" r="58.01432987808143" fill="#ffffff" transform="matrix(1,0,0,1,-3.0886495113372803,0)" style="animation-play-state:paused" ></circle>
<circle cx="1060.3777466669858" cy="763.554241314884" r="44.75472469311466" fill="#ffffff" transform="matrix(1,0,0,1,-6.180027008056641,0)" style="animation-play-state:paused" ></circle>
<circle cx="1105.1324713601005" cy="764.5965578385286" r="36.834787622926534" fill="#ffffff" transform="matrix(1,0,0,1,-8.6322660446167,0)" style="animation-play-state:paused" ></circle>
<circle cx="1141.967258983027" cy="733.152536126664" r="87.01932080212404" fill="#ffffff" transform="matrix(1,0,0,1,-9.78536319732666,0)" style="animation-play-state:paused" ></circle>
<circle cx="1228.986579785151" cy="746.0396040700339" r="52.70143310137396" fill="#ffffff" transform="matrix(1,0,0,1,-9.977882385253906,0)" style="animation-play-state:paused" ></circle>
<circle cx="1281.688012886525" cy="720.481614590529" r="79.13707472679825" fill="#ffffff" transform="matrix(1,0,0,1,-9.355050086975098,0)" style="animation-play-state:paused" ></circle>
<circle cx="1360.8250876133234" cy="739.2944617169351" r="48.26304604676872" fill="#ffffff" transform="matrix(1,0,0,1,-7.570519924163818,0)" style="animation-play-state:paused" ></circle>
<circle cx="1409.0881336600921" cy="748.6248294862528" r="35.31512742178143" fill="#ffffff" transform="matrix(1,0,0,1,-4.6007561683654785,0)" style="animation-play-state:paused" ></circle>
<circle cx="1444.4032610818736" cy="740.8040495240584" r="40.87119311102245" fill="#ffffff" transform="matrix(1,0,0,1,-1.8546782732009888,0)" style="animation-play-state:paused" ></circle>
<circle cx="1485.274454192896" cy="703.2962341487057" r="72.00927043044811" fill="#ffffff" transform="matrix(1,0,0,1,-0.3967548906803131,0)" style="animation-play-state:paused" ></circle>
<circle cx="1557.2837246233441" cy="727.5773187118109" r="45.75099536186866" fill="#ffffff" transform="matrix(1,0,0,1,0,0)" style="animation-play-state:paused" ></circle></g></svg>